<svg width="200" height="89" viewBox="0 0 200 89" fill="none" xmlns="http://www.w3.org/2000/svg">
<path d="M20.016 43.888H3.6V40.684H20.016V43.888ZM20.016 53.68H3.6V50.476H20.016V53.68Z" fill="black"/>
<path d="M41.668 35.324C40.156 35.324 39.04 34.976 38.32 34.28C37.6 33.584 37.24 32.48 37.24 30.968V17.756H34.9V15.884C35.092 15.812 35.44 15.692 35.944 15.524C36.448 15.332 36.832 15.176 37.096 15.056C37.504 14.744 37.852 14.204 38.14 13.436C38.356 12.932 38.752 11.684 39.328 9.692H42.208L42.352 14.984H47.86V17.756H42.388V27.872C42.388 29.216 42.424 30.164 42.496 30.716C42.568 31.268 42.724 31.628 42.964 31.796C43.204 31.94 43.624 32.012 44.224 32.012C44.824 32.012 45.448 31.952 46.096 31.832C46.744 31.688 47.284 31.52 47.716 31.328L48.4 33.344C47.728 33.848 46.744 34.304 45.448 34.712C44.152 35.12 42.892 35.324 41.668 35.324ZM52.0073 8.684L49.2713 8.216V6.272L55.9673 5.48H56.0753L57.0113 6.164L57.0473 14.192L56.7953 17.324C57.5393 16.652 58.5473 16.028 59.8193 15.452C61.1153 14.876 62.4713 14.588 63.8873 14.588C65.3993 14.588 66.5753 14.876 67.4153 15.452C68.2553 16.004 68.8433 16.856 69.1793 18.008C69.5153 19.16 69.6833 20.696 69.6833 22.616V32.516L71.9873 32.84V35H62.5193V32.84L64.6073 32.516V22.616C64.6073 21.368 64.5233 20.396 64.3553 19.7C64.1873 19.004 63.8753 18.488 63.4193 18.152C62.9873 17.816 62.3393 17.648 61.4753 17.648C60.7313 17.648 59.9633 17.828 59.1713 18.188C58.4033 18.524 57.7193 18.932 57.1193 19.412V32.516L59.3153 32.84V35H49.9913V32.84L52.0073 32.552V8.684ZM83.5045 35.396C80.3365 35.396 77.9725 34.472 76.4125 32.624C74.8765 30.752 74.1085 28.208 74.1085 24.992C74.1085 22.832 74.5045 20.96 75.2965 19.376C76.1125 17.792 77.2525 16.58 78.7165 15.74C80.1805 14.9 81.8725 14.48 83.7925 14.48C86.1925 14.48 88.0405 15.116 89.3365 16.388C90.6325 17.636 91.3045 19.424 91.3525 21.752C91.3525 23.336 91.2565 24.512 91.0645 25.28H79.3645C79.4605 27.464 79.9765 29.168 80.9125 30.392C81.8485 31.592 83.1805 32.192 84.9085 32.192C85.8445 32.192 86.8045 32.036 87.7885 31.724C88.7965 31.412 89.5885 31.04 90.1645 30.608L91.0645 32.588C90.4165 33.284 89.3605 33.932 87.8965 34.532C86.4565 35.108 84.9925 35.396 83.5045 35.396ZM86.3125 23.12C86.3605 22.448 86.3845 21.932 86.3845 21.572C86.3845 18.38 85.3165 16.784 83.1805 16.784C82.0045 16.784 81.0925 17.252 80.4445 18.188C79.7965 19.124 79.4365 20.768 79.3645 23.12H86.3125ZM101.148 6.272L107.736 5.48H107.808L108.816 6.164V16.784C109.464 16.136 110.256 15.596 111.192 15.164C112.152 14.708 113.184 14.48 114.288 14.48C116.592 14.48 118.464 15.296 119.904 16.928C121.368 18.536 122.1 21.008 122.1 24.344C122.1 26.408 121.668 28.28 120.804 29.96C119.94 31.64 118.692 32.972 117.06 33.956C115.452 34.916 113.58 35.396 111.444 35.396C109.548 35.396 107.904 35.24 106.512 34.928C105.12 34.592 104.232 34.292 103.848 34.028V8.576L101.148 8.144V6.272ZM112.38 17.648C111.66 17.648 110.976 17.816 110.328 18.152C109.704 18.464 109.2 18.824 108.816 19.232V32.372C108.96 32.636 109.296 32.852 109.824 33.02C110.352 33.188 110.952 33.272 111.624 33.272C113.16 33.272 114.384 32.564 115.296 31.148C116.232 29.708 116.7 27.584 116.7 24.776C116.7 22.352 116.304 20.564 115.512 19.412C114.72 18.236 113.676 17.648 112.38 17.648ZM134.094 35.396C130.926 35.396 128.562 34.472 127.002 32.624C125.466 30.752 124.698 28.208 124.698 24.992C124.698 22.832 125.094 20.96 125.886 19.376C126.702 17.792 127.842 16.58 129.306 15.74C130.77 14.9 132.462 14.48 134.382 14.48C136.782 14.48 138.63 15.116 139.926 16.388C141.222 17.636 141.894 19.424 141.942 21.752C141.942 23.336 141.846 24.512 141.654 25.28H129.954C130.05 27.464 130.566 29.168 131.502 30.392C132.438 31.592 133.77 32.192 135.498 32.192C136.434 32.192 137.394 32.036 138.378 31.724C139.386 31.412 140.178 31.04 140.754 30.608L141.654 32.588C141.006 33.284 139.95 33.932 138.486 34.532C137.046 35.108 135.582 35.396 134.094 35.396ZM136.902 23.12C136.95 22.448 136.974 21.932 136.974 21.572C136.974 18.38 135.906 16.784 133.77 16.784C132.594 16.784 131.682 17.252 131.034 18.188C130.386 19.124 130.026 20.768 129.954 23.12H136.902ZM148.811 32.048C149.003 32.336 149.435 32.612 150.107 32.876C150.803 33.116 151.499 33.236 152.195 33.236C153.323 33.236 154.163 33.008 154.715 32.552C155.291 32.072 155.579 31.448 155.579 30.68C155.579 29.888 155.231 29.252 154.535 28.772C153.839 28.268 152.663 27.656 151.007 26.936L149.999 26.504C148.343 25.808 147.107 24.968 146.291 23.984C145.475 23 145.067 21.728 145.067 20.168C145.067 19.088 145.391 18.128 146.039 17.288C146.687 16.424 147.599 15.752 148.775 15.272C149.951 14.792 151.307 14.552 152.843 14.552C153.971 14.552 154.931 14.624 155.723 14.768C156.539 14.912 157.391 15.104 158.279 15.344C158.759 15.512 159.119 15.608 159.359 15.632V20.348H156.515L155.687 17.612C155.543 17.372 155.219 17.156 154.715 16.964C154.211 16.772 153.635 16.676 152.987 16.676C152.003 16.676 151.211 16.892 150.611 17.324C150.035 17.732 149.747 18.308 149.747 19.052C149.747 19.724 149.951 20.288 150.359 20.744C150.767 21.176 151.211 21.512 151.691 21.752C152.171 21.992 153.059 22.388 154.355 22.94C155.651 23.492 156.719 24.02 157.559 24.524C158.423 25.028 159.131 25.688 159.683 26.504C160.259 27.296 160.547 28.268 160.547 29.42C160.547 31.196 159.851 32.636 158.459 33.74C157.067 34.844 155.063 35.396 152.447 35.396C151.223 35.396 150.119 35.288 149.135 35.072C148.175 34.856 147.059 34.568 145.787 34.208L144.995 33.956V29.204H147.983L148.811 32.048ZM169.531 35.324C168.019 35.324 166.903 34.976 166.183 34.28C165.463 33.584 165.103 32.48 165.103 30.968V17.756H162.763V15.884C162.955 15.812 163.303 15.692 163.807 15.524C164.311 15.332 164.695 15.176 164.959 15.056C165.367 14.744 165.715 14.204 166.003 13.436C166.219 12.932 166.615 11.684 167.191 9.692H170.071L170.215 14.984H175.723V17.756H170.251V27.872C170.251 29.216 170.287 30.164 170.359 30.716C170.431 31.268 170.587 31.628 170.827 31.796C171.067 31.94 171.487 32.012 172.087 32.012C172.687 32.012 173.311 31.952 173.959 31.832C174.607 31.688 175.147 31.52 175.579 31.328L176.263 33.344C175.591 33.848 174.607 34.304 173.311 34.712C172.015 35.12 170.755 35.324 169.531 35.324ZM44.692 80.396C41.524 80.396 39.16 79.472 37.6 77.624C36.064 75.752 35.296 73.208 35.296 69.992C35.296 67.832 35.692 65.96 36.484 64.376C37.3 62.792 38.44 61.58 39.904 60.74C41.368 59.9 43.06 59.48 44.98 59.48C47.38 59.48 49.228 60.116 50.524 61.388C51.82 62.636 52.492 64.424 52.54 66.752C52.54 68.336 52.444 69.512 52.252 70.28H40.552C40.648 72.464 41.164 74.168 42.1 75.392C43.036 76.592 44.368 77.192 46.096 77.192C47.032 77.192 47.992 77.036 48.976 76.724C49.984 76.412 50.776 76.04 51.352 75.608L52.252 77.588C51.604 78.284 50.548 78.932 49.084 79.532C47.644 80.108 46.18 80.396 44.692 80.396ZM47.5 68.12C47.548 67.448 47.572 66.932 47.572 66.572C47.572 63.38 46.504 61.784 44.368 61.784C43.192 61.784 42.28 62.252 41.632 63.188C40.984 64.124 40.624 65.768 40.552 68.12H47.5ZM62.001 70.172L56.061 62.504L54.189 62.072V59.984H64.593V62.072L62.253 62.504L65.097 66.5L66.033 68.012L66.969 66.5L69.885 62.504L67.437 62.072V59.984H75.249V62.072L73.197 62.504L67.509 69.488L73.737 77.552L75.717 77.876V80H65.313V77.876L67.437 77.516L64.665 73.304L63.585 71.72L62.721 73.268L59.769 77.516L62.541 77.876V80H53.901V77.876L56.205 77.516L62.001 70.172ZM97.1178 69.344C97.1178 71.36 96.6978 73.208 95.8578 74.888C95.0418 76.568 93.8298 77.912 92.2218 78.92C90.6378 79.904 88.7418 80.396 86.5338 80.396C86.0538 80.396 85.5498 80.348 85.0218 80.252C84.5178 80.18 84.1098 80.084 83.7978 79.964L83.9058 82.952V86.228L87.2538 86.66V88.712H76.5618V86.66L78.9018 86.228V63.404L76.5618 62.756V60.272L82.5018 59.516H82.5738L83.4738 60.236V62.252C84.0738 61.508 84.8898 60.86 85.9218 60.308C86.9538 59.756 88.0818 59.48 89.3058 59.48C91.5858 59.48 93.4578 60.296 94.9218 61.928C96.3858 63.536 97.1178 66.008 97.1178 69.344ZM87.4338 62.468C86.7138 62.468 86.0298 62.624 85.3818 62.936C84.7338 63.248 84.2418 63.596 83.9058 63.98V77.336C84.0738 77.576 84.4098 77.78 84.9138 77.948C85.4418 78.116 86.0178 78.2 86.6418 78.2C88.2018 78.2 89.4378 77.528 90.3498 76.184C91.2858 74.816 91.7538 72.68 91.7538 69.776C91.7538 67.328 91.3578 65.504 90.5658 64.304C89.7738 63.08 88.7298 62.468 87.4338 62.468ZM109.133 80.396C105.965 80.396 103.601 79.472 102.041 77.624C100.505 75.752 99.7374 73.208 99.7374 69.992C99.7374 67.832 100.133 65.96 100.925 64.376C101.741 62.792 102.881 61.58 104.345 60.74C105.809 59.9 107.501 59.48 109.421 59.48C111.821 59.48 113.669 60.116 114.965 61.388C116.261 62.636 116.933 64.424 116.981 66.752C116.981 68.336 116.885 69.512 116.693 70.28H104.993C105.089 72.464 105.605 74.168 106.541 75.392C107.477 76.592 108.809 77.192 110.537 77.192C111.473 77.192 112.433 77.036 113.417 76.724C114.425 76.412 115.217 76.04 115.793 75.608L116.693 77.588C116.045 78.284 114.989 78.932 113.525 79.532C112.085 80.108 110.621 80.396 109.133 80.396ZM111.941 68.12C111.989 67.448 112.013 66.932 112.013 66.572C112.013 63.38 110.945 61.784 108.809 61.784C107.633 61.784 106.721 62.252 106.073 63.188C105.425 64.124 105.065 65.768 104.993 68.12H111.941ZM119.854 77.876L122.23 77.588V63.404L119.926 62.756V60.272L125.506 59.516H125.614L126.514 60.236V61.028L126.406 63.944H126.514C126.682 63.464 127.078 62.876 127.702 62.18C128.326 61.46 129.106 60.836 130.042 60.308C131.002 59.756 132.034 59.48 133.138 59.48C133.666 59.48 134.122 59.552 134.506 59.696V65.096C133.786 64.592 132.91 64.34 131.878 64.34C130.126 64.34 128.602 64.808 127.306 65.744V77.552L131.482 77.876V80H119.854V77.876ZM142.848 80.324C141.336 80.324 140.22 79.976 139.5 79.28C138.78 78.584 138.42 77.48 138.42 75.968V62.756H136.08V60.884C136.272 60.812 136.62 60.692 137.124 60.524C137.628 60.332 138.012 60.176 138.276 60.056C138.684 59.744 139.032 59.204 139.32 58.436C139.536 57.932 139.932 56.684 140.508 54.692H143.388L143.532 59.984H149.04V62.756H143.568V72.872C143.568 74.216 143.604 75.164 143.676 75.716C143.748 76.268 143.904 76.628 144.144 76.796C144.384 76.94 144.804 77.012 145.404 77.012C146.004 77.012 146.628 76.952 147.276 76.832C147.924 76.688 148.464 76.52 148.896 76.328L149.58 78.344C148.908 78.848 147.924 79.304 146.628 79.712C145.332 80.12 144.072 80.324 142.848 80.324ZM155.491 77.048C155.683 77.336 156.115 77.612 156.787 77.876C157.483 78.116 158.179 78.236 158.875 78.236C160.003 78.236 160.843 78.008 161.395 77.552C161.971 77.072 162.259 76.448 162.259 75.68C162.259 74.888 161.911 74.252 161.215 73.772C160.519 73.268 159.343 72.656 157.687 71.936L156.679 71.504C155.023 70.808 153.787 69.968 152.971 68.984C152.155 68 151.747 66.728 151.747 65.168C151.747 64.088 152.071 63.128 152.719 62.288C153.367 61.424 154.279 60.752 155.455 60.272C156.631 59.792 157.987 59.552 159.523 59.552C160.651 59.552 161.611 59.624 162.403 59.768C163.219 59.912 164.071 60.104 164.959 60.344C165.439 60.512 165.799 60.608 166.039 60.632V65.348H163.195L162.367 62.612C162.223 62.372 161.899 62.156 161.395 61.964C160.891 61.772 160.315 61.676 159.667 61.676C158.683 61.676 157.891 61.892 157.291 62.324C156.715 62.732 156.427 63.308 156.427 64.052C156.427 64.724 156.631 65.288 157.039 65.744C157.447 66.176 157.891 66.512 158.371 66.752C158.851 66.992 159.739 67.388 161.035 67.94C162.331 68.492 163.399 69.02 164.239 69.524C165.103 70.028 165.811 70.688 166.363 71.504C166.939 72.296 167.227 73.268 167.227 74.42C167.227 76.196 166.531 77.636 165.139 78.74C163.747 79.844 161.743 80.396 159.127 80.396C157.903 80.396 156.799 80.288 155.815 80.072C154.855 79.856 153.739 79.568 152.467 79.208L151.675 78.956V74.204H154.663L155.491 77.048Z" fill="black"/>
</svg>
