<svg width="282" height="89" viewBox="0 0 282 89" fill="none" xmlns="http://www.w3.org/2000/svg">
<path d="M20.016 43.888H3.6V40.684H20.016V43.888ZM20.016 53.68H3.6V50.476H20.016V53.68Z" fill="black"/>
<path d="M72.668 35.324C71.156 35.324 70.04 34.976 69.32 34.28C68.6 33.584 68.24 32.48 68.24 30.968V17.756H65.9V15.884C66.092 15.812 66.44 15.692 66.944 15.524C67.448 15.332 67.832 15.176 68.096 15.056C68.504 14.744 68.852 14.204 69.14 13.436C69.356 12.932 69.752 11.684 70.328 9.692H73.208L73.352 14.984H78.86V17.756H73.388V27.872C73.388 29.216 73.424 30.164 73.496 30.716C73.568 31.268 73.724 31.628 73.964 31.796C74.204 31.94 74.624 32.012 75.224 32.012C75.824 32.012 76.448 31.952 77.096 31.832C77.744 31.688 78.284 31.52 78.716 31.328L79.4 33.344C78.728 33.848 77.744 34.304 76.448 34.712C75.152 35.12 73.892 35.324 72.668 35.324ZM83.0073 8.684L80.2713 8.216V6.272L86.9673 5.48H87.0753L88.0113 6.164L88.0473 14.192L87.7953 17.324C88.5393 16.652 89.5473 16.028 90.8193 15.452C92.1153 14.876 93.4713 14.588 94.8873 14.588C96.3993 14.588 97.5753 14.876 98.4153 15.452C99.2553 16.004 99.8433 16.856 100.179 18.008C100.515 19.16 100.683 20.696 100.683 22.616V32.516L102.987 32.84V35H93.5193V32.84L95.6073 32.516V22.616C95.6073 21.368 95.5233 20.396 95.3553 19.7C95.1873 19.004 94.8753 18.488 94.4193 18.152C93.9873 17.816 93.3393 17.648 92.4753 17.648C91.7313 17.648 90.9633 17.828 90.1713 18.188C89.4033 18.524 88.7193 18.932 88.1193 19.412V32.516L90.3153 32.84V35H80.9913V32.84L83.0073 32.552V8.684ZM114.505 35.396C111.337 35.396 108.973 34.472 107.413 32.624C105.877 30.752 105.109 28.208 105.109 24.992C105.109 22.832 105.505 20.96 106.297 19.376C107.113 17.792 108.253 16.58 109.717 15.74C111.181 14.9 112.873 14.48 114.793 14.48C117.193 14.48 119.041 15.116 120.337 16.388C121.633 17.636 122.305 19.424 122.353 21.752C122.353 23.336 122.257 24.512 122.065 25.28H110.365C110.461 27.464 110.977 29.168 111.913 30.392C112.849 31.592 114.181 32.192 115.909 32.192C116.845 32.192 117.805 32.036 118.789 31.724C119.797 31.412 120.589 31.04 121.165 30.608L122.065 32.588C121.417 33.284 120.361 33.932 118.897 34.532C117.457 35.108 115.993 35.396 114.505 35.396ZM117.313 23.12C117.361 22.448 117.385 21.932 117.385 21.572C117.385 18.38 116.317 16.784 114.181 16.784C113.005 16.784 112.093 17.252 111.445 18.188C110.797 19.124 110.437 20.768 110.365 23.12H117.313ZM132.148 6.272L138.736 5.48H138.808L139.816 6.164V16.784C140.464 16.136 141.256 15.596 142.192 15.164C143.152 14.708 144.184 14.48 145.288 14.48C147.592 14.48 149.464 15.296 150.904 16.928C152.368 18.536 153.1 21.008 153.1 24.344C153.1 26.408 152.668 28.28 151.804 29.96C150.94 31.64 149.692 32.972 148.06 33.956C146.452 34.916 144.58 35.396 142.444 35.396C140.548 35.396 138.904 35.24 137.512 34.928C136.12 34.592 135.232 34.292 134.848 34.028V8.576L132.148 8.144V6.272ZM143.38 17.648C142.66 17.648 141.976 17.816 141.328 18.152C140.704 18.464 140.2 18.824 139.816 19.232V32.372C139.96 32.636 140.296 32.852 140.824 33.02C141.352 33.188 141.952 33.272 142.624 33.272C144.16 33.272 145.384 32.564 146.296 31.148C147.232 29.708 147.7 27.584 147.7 24.776C147.7 22.352 147.304 20.564 146.512 19.412C145.72 18.236 144.676 17.648 143.38 17.648ZM165.094 35.396C161.926 35.396 159.562 34.472 158.002 32.624C156.466 30.752 155.698 28.208 155.698 24.992C155.698 22.832 156.094 20.96 156.886 19.376C157.702 17.792 158.842 16.58 160.306 15.74C161.77 14.9 163.462 14.48 165.382 14.48C167.782 14.48 169.63 15.116 170.926 16.388C172.222 17.636 172.894 19.424 172.942 21.752C172.942 23.336 172.846 24.512 172.654 25.28H160.954C161.05 27.464 161.566 29.168 162.502 30.392C163.438 31.592 164.77 32.192 166.498 32.192C167.434 32.192 168.394 32.036 169.378 31.724C170.386 31.412 171.178 31.04 171.754 30.608L172.654 32.588C172.006 33.284 170.95 33.932 169.486 34.532C168.046 35.108 166.582 35.396 165.094 35.396ZM167.902 23.12C167.95 22.448 167.974 21.932 167.974 21.572C167.974 18.38 166.906 16.784 164.77 16.784C163.594 16.784 162.682 17.252 162.034 18.188C161.386 19.124 161.026 20.768 160.954 23.12H167.902ZM179.811 32.048C180.003 32.336 180.435 32.612 181.107 32.876C181.803 33.116 182.499 33.236 183.195 33.236C184.323 33.236 185.163 33.008 185.715 32.552C186.291 32.072 186.579 31.448 186.579 30.68C186.579 29.888 186.231 29.252 185.535 28.772C184.839 28.268 183.663 27.656 182.007 26.936L180.999 26.504C179.343 25.808 178.107 24.968 177.291 23.984C176.475 23 176.067 21.728 176.067 20.168C176.067 19.088 176.391 18.128 177.039 17.288C177.687 16.424 178.599 15.752 179.775 15.272C180.951 14.792 182.307 14.552 183.843 14.552C184.971 14.552 185.931 14.624 186.723 14.768C187.539 14.912 188.391 15.104 189.279 15.344C189.759 15.512 190.119 15.608 190.359 15.632V20.348H187.515L186.687 17.612C186.543 17.372 186.219 17.156 185.715 16.964C185.211 16.772 184.635 16.676 183.987 16.676C183.003 16.676 182.211 16.892 181.611 17.324C181.035 17.732 180.747 18.308 180.747 19.052C180.747 19.724 180.951 20.288 181.359 20.744C181.767 21.176 182.211 21.512 182.691 21.752C183.171 21.992 184.059 22.388 185.355 22.94C186.651 23.492 187.719 24.02 188.559 24.524C189.423 25.028 190.131 25.688 190.683 26.504C191.259 27.296 191.547 28.268 191.547 29.42C191.547 31.196 190.851 32.636 189.459 33.74C188.067 34.844 186.063 35.396 183.447 35.396C182.223 35.396 181.119 35.288 180.135 35.072C179.175 34.856 178.059 34.568 176.787 34.208L175.995 33.956V29.204H178.983L179.811 32.048ZM200.531 35.324C199.019 35.324 197.903 34.976 197.183 34.28C196.463 33.584 196.103 32.48 196.103 30.968V17.756H193.763V15.884C193.955 15.812 194.303 15.692 194.807 15.524C195.311 15.332 195.695 15.176 195.959 15.056C196.367 14.744 196.715 14.204 197.003 13.436C197.219 12.932 197.615 11.684 198.191 9.692H201.071L201.215 14.984H206.723V17.756H201.251V27.872C201.251 29.216 201.287 30.164 201.359 30.716C201.431 31.268 201.587 31.628 201.827 31.796C202.067 31.94 202.487 32.012 203.087 32.012C203.687 32.012 204.311 31.952 204.959 31.832C205.607 31.688 206.147 31.52 206.579 31.328L207.263 33.344C206.591 33.848 205.607 34.304 204.311 34.712C203.015 35.12 201.755 35.324 200.531 35.324ZM75.692 80.396C72.524 80.396 70.16 79.472 68.6 77.624C67.064 75.752 66.296 73.208 66.296 69.992C66.296 67.832 66.692 65.96 67.484 64.376C68.3 62.792 69.44 61.58 70.904 60.74C72.368 59.9 74.06 59.48 75.98 59.48C78.38 59.48 80.228 60.116 81.524 61.388C82.82 62.636 83.492 64.424 83.54 66.752C83.54 68.336 83.444 69.512 83.252 70.28H71.552C71.648 72.464 72.164 74.168 73.1 75.392C74.036 76.592 75.368 77.192 77.096 77.192C78.032 77.192 78.992 77.036 79.976 76.724C80.984 76.412 81.776 76.04 82.352 75.608L83.252 77.588C82.604 78.284 81.548 78.932 80.084 79.532C78.644 80.108 77.18 80.396 75.692 80.396ZM78.5 68.12C78.548 67.448 78.572 66.932 78.572 66.572C78.572 63.38 77.504 61.784 75.368 61.784C74.192 61.784 73.28 62.252 72.632 63.188C71.984 64.124 71.624 65.768 71.552 68.12H78.5ZM93.001 70.172L87.061 62.504L85.189 62.072V59.984H95.593V62.072L93.253 62.504L96.097 66.5L97.033 68.012L97.969 66.5L100.885 62.504L98.437 62.072V59.984H106.249V62.072L104.197 62.504L98.509 69.488L104.737 77.552L106.717 77.876V80H96.313V77.876L98.437 77.516L95.665 73.304L94.585 71.72L93.721 73.268L90.769 77.516L93.541 77.876V80H84.901V77.876L87.205 77.516L93.001 70.172ZM128.118 69.344C128.118 71.36 127.698 73.208 126.858 74.888C126.042 76.568 124.83 77.912 123.222 78.92C121.638 79.904 119.742 80.396 117.534 80.396C117.054 80.396 116.55 80.348 116.022 80.252C115.518 80.18 115.11 80.084 114.798 79.964L114.906 82.952V86.228L118.254 86.66V88.712H107.562V86.66L109.902 86.228V63.404L107.562 62.756V60.272L113.502 59.516H113.574L114.474 60.236V62.252C115.074 61.508 115.89 60.86 116.922 60.308C117.954 59.756 119.082 59.48 120.306 59.48C122.586 59.48 124.458 60.296 125.922 61.928C127.386 63.536 128.118 66.008 128.118 69.344ZM118.434 62.468C117.714 62.468 117.03 62.624 116.382 62.936C115.734 63.248 115.242 63.596 114.906 63.98V77.336C115.074 77.576 115.41 77.78 115.914 77.948C116.442 78.116 117.018 78.2 117.642 78.2C119.202 78.2 120.438 77.528 121.35 76.184C122.286 74.816 122.754 72.68 122.754 69.776C122.754 67.328 122.358 65.504 121.566 64.304C120.774 63.08 119.73 62.468 118.434 62.468ZM140.133 80.396C136.965 80.396 134.601 79.472 133.041 77.624C131.505 75.752 130.737 73.208 130.737 69.992C130.737 67.832 131.133 65.96 131.925 64.376C132.741 62.792 133.881 61.58 135.345 60.74C136.809 59.9 138.501 59.48 140.421 59.48C142.821 59.48 144.669 60.116 145.965 61.388C147.261 62.636 147.933 64.424 147.981 66.752C147.981 68.336 147.885 69.512 147.693 70.28H135.993C136.089 72.464 136.605 74.168 137.541 75.392C138.477 76.592 139.809 77.192 141.537 77.192C142.473 77.192 143.433 77.036 144.417 76.724C145.425 76.412 146.217 76.04 146.793 75.608L147.693 77.588C147.045 78.284 145.989 78.932 144.525 79.532C143.085 80.108 141.621 80.396 140.133 80.396ZM142.941 68.12C142.989 67.448 143.013 66.932 143.013 66.572C143.013 63.38 141.945 61.784 139.809 61.784C138.633 61.784 137.721 62.252 137.073 63.188C136.425 64.124 136.065 65.768 135.993 68.12H142.941ZM150.854 77.876L153.23 77.588V63.404L150.926 62.756V60.272L156.506 59.516H156.614L157.514 60.236V61.028L157.406 63.944H157.514C157.682 63.464 158.078 62.876 158.702 62.18C159.326 61.46 160.106 60.836 161.042 60.308C162.002 59.756 163.034 59.48 164.138 59.48C164.666 59.48 165.122 59.552 165.506 59.696V65.096C164.786 64.592 163.91 64.34 162.878 64.34C161.126 64.34 159.602 64.808 158.306 65.744V77.552L162.482 77.876V80H150.854V77.876ZM173.848 80.324C172.336 80.324 171.22 79.976 170.5 79.28C169.78 78.584 169.42 77.48 169.42 75.968V62.756H167.08V60.884C167.272 60.812 167.62 60.692 168.124 60.524C168.628 60.332 169.012 60.176 169.276 60.056C169.684 59.744 170.032 59.204 170.32 58.436C170.536 57.932 170.932 56.684 171.508 54.692H174.388L174.532 59.984H180.04V62.756H174.568V72.872C174.568 74.216 174.604 75.164 174.676 75.716C174.748 76.268 174.904 76.628 175.144 76.796C175.384 76.94 175.804 77.012 176.404 77.012C177.004 77.012 177.628 76.952 178.276 76.832C178.924 76.688 179.464 76.52 179.896 76.328L180.58 78.344C179.908 78.848 178.924 79.304 177.628 79.712C176.332 80.12 175.072 80.324 173.848 80.324ZM186.491 77.048C186.683 77.336 187.115 77.612 187.787 77.876C188.483 78.116 189.179 78.236 189.875 78.236C191.003 78.236 191.843 78.008 192.395 77.552C192.971 77.072 193.259 76.448 193.259 75.68C193.259 74.888 192.911 74.252 192.215 73.772C191.519 73.268 190.343 72.656 188.687 71.936L187.679 71.504C186.023 70.808 184.787 69.968 183.971 68.984C183.155 68 182.747 66.728 182.747 65.168C182.747 64.088 183.071 63.128 183.719 62.288C184.367 61.424 185.279 60.752 186.455 60.272C187.631 59.792 188.987 59.552 190.523 59.552C191.651 59.552 192.611 59.624 193.403 59.768C194.219 59.912 195.071 60.104 195.959 60.344C196.439 60.512 196.799 60.608 197.039 60.632V65.348H194.195L193.367 62.612C193.223 62.372 192.899 62.156 192.395 61.964C191.891 61.772 191.315 61.676 190.667 61.676C189.683 61.676 188.891 61.892 188.291 62.324C187.715 62.732 187.427 63.308 187.427 64.052C187.427 64.724 187.631 65.288 188.039 65.744C188.447 66.176 188.891 66.512 189.371 66.752C189.851 66.992 190.739 67.388 192.035 67.94C193.331 68.492 194.399 69.02 195.239 69.524C196.103 70.028 196.811 70.688 197.363 71.504C197.939 72.296 198.227 73.268 198.227 74.42C198.227 76.196 197.531 77.636 196.139 78.74C194.747 79.844 192.743 80.396 190.127 80.396C188.903 80.396 187.799 80.288 186.815 80.072C185.855 79.856 184.739 79.568 183.467 79.208L182.675 78.956V74.204H185.663L186.491 77.048Z" fill="black"/>
</svg>
