<svg width="193" height="142" viewBox="0 0 193 142" fill="none" xmlns="http://www.w3.org/2000/svg">
<g filter="url(#filter0_d)">
<g clip-path="url(#clip0)">
<path d="M33.9001 66.9524C35.2226 59.9048 7.89026 32.5952 7.89026 32.5952L37.4269 3.5238L51.5339 17.619L79.7479 23.3452C80.1888 23.3452 80.6296 23.3452 81.0705 22.9048C83.7155 20.7024 96.9409 11.4524 119.424 11.0119C144.552 10.5714 160.863 8.36904 165.272 8.80952C168.799 9.25 180.701 35.2381 185.551 46.6905C186.873 49.3333 185.551 52.4167 182.906 53.2976C178.056 55.0595 170.562 59.0238 163.508 66.9524C161.304 69.1548 159.1 70.9167 156.455 72.6786L141.466 82.8095C141.466 82.8095 144.993 89.8572 139.262 94.2619C133.531 98.6667 127.359 95.1429 122.951 90.2976C118.542 85.4524 110.607 78.4048 110.607 78.4048L122.951 90.2976C122.951 90.2976 132.649 97.3453 126.037 105.714C126.037 105.714 121.628 113.202 108.844 105.274L94.7367 90.7381L108.844 105.274C108.844 105.274 117.22 114.524 108.403 120.69C100.027 126.417 93.855 117.607 93.855 117.607L86.3606 107.917" fill="white"/>
<path fill-rule="evenodd" clip-rule="evenodd" d="M37.4385 0.420776L52.6231 15.5927L79.7888 21.1061C82.9919 18.4943 96.6229 9.25575 119.381 8.80989L119.385 8.8098C131.893 8.59056 142.208 7.93285 149.962 7.38343C151.099 7.30287 152.184 7.22438 153.214 7.14983C155.687 6.971 157.845 6.8149 159.651 6.70734C162.159 6.55792 164.184 6.48737 165.491 6.61801L165.545 6.62342C166.339 6.7226 166.968 7.1256 167.373 7.43755C167.815 7.77784 168.234 8.20357 168.622 8.65135C169.402 9.54999 170.244 10.754 171.111 12.13C172.855 14.8965 174.862 18.6178 176.884 22.6301C180.921 30.6418 185.115 40.0119 187.556 45.7737C189.408 49.5732 187.526 54.0597 183.634 55.3764C179.08 57.0353 171.923 60.8093 165.156 68.4155L165.113 68.4639L165.067 68.5096C162.749 70.8253 160.431 72.6762 157.684 74.5067C157.682 74.5082 157.68 74.5096 157.678 74.511L144.139 83.6621C144.384 84.4757 144.626 85.5333 144.712 86.727C144.913 89.5415 144.223 93.2274 140.606 96.0075C137.274 98.5682 133.713 98.9496 130.414 97.9937C130.507 98.5738 130.555 99.1765 130.548 99.7994C130.522 102.138 129.714 104.579 127.838 106.988C127.831 106.999 127.824 107.009 127.816 107.021C127.756 107.111 127.674 107.227 127.57 107.362C127.363 107.632 127.063 107.983 126.661 108.362C125.855 109.122 124.63 110.002 122.919 110.561C120.634 111.306 117.722 111.408 114.101 110.228C114.633 111.985 114.891 114.074 114.324 116.238C113.72 118.541 112.242 120.693 109.667 122.495L109.648 122.508C107.212 124.173 104.818 124.853 102.57 124.827C100.347 124.8 98.4234 124.086 96.8899 123.206C95.3615 122.329 94.1667 121.257 93.3621 120.421C92.9561 120 92.6395 119.629 92.4197 119.356C92.3095 119.219 92.223 119.106 92.1611 119.024L92.0866 118.922L84.6164 109.263L88.1048 106.57L95.6309 116.302L95.6557 116.337L95.6587 116.341L95.6915 116.386C95.724 116.429 95.7783 116.5 95.8533 116.593C96.0037 116.78 96.2347 117.052 96.5382 117.367C97.1526 118.004 98.0242 118.777 99.0858 119.386C100.142 119.993 101.332 120.407 102.622 120.422C103.885 120.437 105.399 120.073 107.148 118.88C108.974 117.6 109.754 116.286 110.059 115.122C110.376 113.913 110.243 112.624 109.831 111.344C109.419 110.063 108.762 108.903 108.185 108.043C107.9 107.619 107.644 107.283 107.464 107.058C107.374 106.945 107.304 106.862 107.259 106.809L107.224 106.769L93.1542 92.2712L96.319 89.2049L110.234 103.543C116.128 107.139 119.678 106.984 121.55 106.374C122.538 106.051 123.215 105.555 123.635 105.159C123.846 104.96 123.991 104.787 124.074 104.679C124.116 104.625 124.141 104.588 124.152 104.572L124.213 104.468L124.307 104.35C125.686 102.604 126.125 101.057 126.14 99.7499C126.155 98.4075 125.723 97.1259 125.057 95.9561C124.711 95.3482 124.314 94.7913 123.912 94.2982C123.002 93.5247 122.152 92.6893 121.369 91.8336L109.077 79.9901L112.071 76.7586L112.165 76.8421L112.428 77.0775C112.657 77.282 112.987 77.579 113.396 77.9501C114.215 78.6921 115.354 79.7322 116.631 80.9253C119.122 83.2519 122.189 86.2034 124.445 88.6669C124.529 88.7318 124.635 88.817 124.762 88.9215C125.054 89.164 125.454 89.5135 125.908 89.9588C126.257 90.3015 126.644 90.7075 127.042 91.1718C128.428 92.3096 129.874 93.1816 131.307 93.6591C133.491 94.3862 135.688 94.2302 137.918 92.5162C140.032 90.8915 140.444 88.8512 140.315 87.0408C140.248 86.1139 140.036 85.2791 139.835 84.67C139.735 84.369 139.642 84.1327 139.576 83.979C139.544 83.9025 139.519 83.8472 139.504 83.8155L139.493 83.7912L139.491 83.7866L138.63 82.0672L155.22 70.8543L155.232 70.846C157.754 69.1662 159.831 67.5062 161.905 65.4396C169.22 57.2355 177.017 53.0937 182.152 51.2278L182.208 51.2074C183.562 50.7565 184.311 49.137 183.579 47.6754L183.548 47.6129L183.521 47.5486C181.109 41.8528 176.941 32.5392 172.946 24.6108C170.945 20.6395 169.013 17.0655 167.381 14.4774C166.561 13.1761 165.857 12.1881 165.291 11.5364C165.052 11.2601 164.869 11.0824 164.745 10.977C163.796 10.9209 162.218 10.967 159.913 11.1043C158.137 11.2101 156.023 11.363 153.566 11.5407C152.53 11.6157 151.432 11.6951 150.274 11.7772C142.488 12.3289 132.085 12.9926 119.465 13.2138C97.7566 13.6397 85.0293 22.5025 82.5404 24.5479C81.472 25.5518 80.288 25.5489 79.7948 25.5476C79.7784 25.5476 79.7627 25.5476 79.7479 25.5476H79.5263L50.4446 19.6453L37.4152 6.62672L11.0065 32.6195C11.7227 33.3538 12.6552 34.3176 13.7375 35.4547C16.2937 38.1403 19.6944 41.8014 23.0588 45.6908C26.4136 49.5691 29.775 53.7233 32.2264 57.3867C33.4492 59.2142 34.4876 60.9811 35.1824 62.5716C35.8361 64.0683 36.3609 65.7896 36.0665 67.3582L31.7336 66.5464C31.7699 66.3531 31.7298 65.6794 31.142 64.3336C30.5951 63.0816 29.7151 61.5588 28.5616 59.8349C26.2601 56.3956 23.0364 52.401 19.7234 48.571C16.42 44.7521 13.0703 41.1453 10.543 38.4902C9.28035 37.1636 8.22519 36.0769 7.48663 35.3227C7.11739 34.9457 6.82741 34.6519 6.63033 34.453L6.40614 34.2272L6.33239 34.1533L4.76123 32.5834L37.4385 0.420776Z" fill="#336668"/>
<path d="M77.9846 127.298C77.9846 127.298 86.3607 133.464 92.0916 129.059C97.8226 124.655 93.4142 117.167 93.4142 117.167L89.8874 112.762L87.6832 115.845L77.9846 127.298Z" fill="white"/>
<path fill-rule="evenodd" clip-rule="evenodd" d="M89.7878 109.112L95.234 115.914L95.314 116.05L93.4141 117.167C95.314 116.05 95.3135 116.049 95.314 116.05L95.3184 116.058L95.3245 116.068L95.3412 116.097L95.392 116.188C95.4332 116.262 95.4886 116.365 95.5543 116.493C95.6855 116.749 95.8596 117.11 96.0459 117.553C96.415 118.432 96.8503 119.68 97.0788 121.115C97.5395 124.008 97.1666 127.938 93.4355 130.805C89.6714 133.698 85.2032 132.982 82.1553 131.907C80.5826 131.353 79.2281 130.651 78.2731 130.095C77.7925 129.815 77.4051 129.568 77.133 129.386C76.9967 129.296 76.8888 129.221 76.812 129.167L76.7203 129.102L76.6925 129.082L76.6832 129.075L76.6783 129.072C76.6776 129.071 76.677 129.071 77.9846 127.298L76.6783 129.072L74.779 127.673L85.942 114.492L89.7878 109.112ZM81.3336 126.752C81.9966 127.097 82.7769 127.455 83.6226 127.754C86.1955 128.661 88.7808 128.826 90.7476 127.314C92.7476 125.777 93.0359 123.759 92.7251 121.807C92.5679 120.82 92.2592 119.921 91.9809 119.258C91.8435 118.931 91.7179 118.672 91.6304 118.501C91.6099 118.461 91.5916 118.426 91.5758 118.396L89.9869 116.412L89.4242 117.199L81.3336 126.752ZM79.2888 125.522C79.2882 125.522 79.2884 125.522 79.2888 125.522Z" fill="#336668"/>
<path d="M80.6295 23.3452C80.6295 23.3452 70.4901 30.3928 66.0817 38.7619C65.6408 39.6428 65.6408 40.9643 65.6408 41.8452L68.2859 64.75C68.2859 64.75 69.6084 70.0357 74.8985 70.0357C80.6295 70.0357 81.9521 67.3929 82.3929 62.5476C82.8338 58.1428 84.5971 51.5357 88.5647 48.8928L95.1774 44.4881L107.08 36.5595" fill="white"/>
<path fill-rule="evenodd" clip-rule="evenodd" d="M79.37 21.5378C79.3704 21.5375 79.3708 21.5373 80.6295 23.3452C81.8883 25.1532 81.8886 25.153 81.8888 25.1528L81.8692 25.1665L81.7941 25.2198C81.7259 25.2683 81.6223 25.3427 81.4871 25.4416C81.2167 25.6394 80.8203 25.9346 80.3288 26.3163C79.3446 27.0804 77.9849 28.1858 76.4929 29.5435C73.4822 32.2831 70.0762 35.9215 68.0474 39.7589C68.0031 39.8549 67.9322 40.0927 67.8892 40.5227C67.8506 40.9084 67.8457 41.31 67.8451 41.7192L70.454 64.3109C70.4844 64.4047 70.5351 64.5496 70.6098 64.7288C70.7659 65.103 71.0127 65.5931 71.3718 66.0714C72.0628 66.9921 73.1194 67.8333 74.8985 67.8333C77.4635 67.8333 78.4624 67.2423 78.9662 66.6635C79.5732 65.9661 79.9814 64.7262 80.1977 62.3482L80.1995 62.3285C80.4355 59.9703 81.0238 57.0141 82.1036 54.257C83.1658 51.5447 84.8132 48.7448 87.342 47.0604L105.858 34.727L108.303 38.392L89.7874 50.7253C88.3486 51.6837 87.1305 53.5089 86.209 55.8621C85.3062 58.1671 84.7925 60.7128 84.5871 62.7579C84.3622 65.2217 83.8878 67.7212 82.2928 69.5538C80.5924 71.5077 78.0645 72.2381 74.8985 72.2381C71.3875 72.2381 69.1378 70.4365 67.845 68.7143C67.2122 67.8712 66.7978 67.0398 66.5405 66.423C66.4107 66.1116 66.3175 65.8467 66.2546 65.6511C66.223 65.553 66.1988 65.4716 66.1813 65.4097L66.1597 65.3316L66.1525 65.3039L66.1497 65.293L66.1485 65.2883C66.1483 65.2873 66.1475 65.2842 68.2859 64.75L66.1485 65.2883L66.1126 65.145L63.4366 41.9719L63.4366 41.816C63.4366 41.3875 63.4365 40.7452 63.5026 40.0844C63.5679 39.4325 63.7129 38.5707 64.1101 37.777L64.1307 37.7359C66.5122 33.2148 70.3711 29.1564 73.5246 26.2868C75.1185 24.8364 76.5693 23.6569 77.6239 22.8381C78.1518 22.4282 78.5821 22.1075 78.8834 21.8872C79.0341 21.777 79.1526 21.6918 79.2351 21.633L79.3314 21.5649L79.3584 21.5459L79.37 21.5378Z" fill="#336668"/>
<path d="M99.1451 41.8453L136.176 75.762C136.176 75.762 143.23 83.6905 141.466 91.1786" fill="white"/>
<path fill-rule="evenodd" clip-rule="evenodd" d="M134.592 77.2991L97.6556 43.4687L100.634 40.2217L137.749 74.2145L137.823 74.2987L136.176 75.7619C137.823 74.2987 137.823 74.2982 137.823 74.2987L137.828 74.304L137.835 74.3123L137.857 74.3374L137.93 74.422C137.991 74.4933 138.077 74.5943 138.182 74.7229C138.392 74.98 138.684 75.3486 139.026 75.8123C139.706 76.7363 140.597 78.0547 141.431 79.6334C143.06 82.7136 144.677 87.1603 143.612 91.683L139.32 90.6742C140.019 87.7088 138.991 84.4471 137.533 81.691C136.825 80.3516 136.062 79.2198 135.475 78.4232C135.183 78.0266 134.938 77.7173 134.769 77.5115C134.694 77.4191 134.634 77.3478 134.592 77.2991Z" fill="#336668"/>
<path d="M50.6521 79.2857L38.7493 89.8571C34.3409 93.3809 27.7282 92.9404 24.2014 88.9761C20.6747 84.5714 21.1155 77.9642 25.0831 74.4404L36.9859 63.869C41.3944 60.3452 48.007 60.7857 51.5338 64.7499C55.5014 69.1547 55.0606 75.7619 50.6521 79.2857Z" fill="white"/>
<path fill-rule="evenodd" clip-rule="evenodd" d="M38.4052 65.5552L26.5475 76.0865C23.5361 78.761 23.0754 83.9948 25.8866 87.5549C28.5754 90.5269 33.7835 90.9693 37.3301 88.1708L49.2305 77.6016L49.2752 77.5658C52.6301 74.8841 53.0705 69.7481 49.8954 66.2232L49.8863 66.2131C47.2087 63.2033 41.9683 62.7436 38.4052 65.5552ZM53.1768 63.2816C48.8105 58.3796 40.8602 57.9517 35.609 62.1492L35.5643 62.1849L23.6187 72.7943C18.7078 77.1559 18.2779 85.1033 22.4802 90.3519L22.516 90.3966L22.554 90.4393C26.9193 95.3461 34.8733 95.7757 40.1263 91.5768L40.171 91.5411L52.0759 80.9678C57.4918 76.5946 57.9184 68.5512 53.1768 63.2816Z" fill="#336668"/>
<path d="M63.4366 92.5L48.8887 104.833C45.3619 107.917 39.6309 107.476 36.545 103.952C33.4591 100.429 33.9 94.7023 37.4267 91.619L51.9746 79.2857C55.5014 76.2023 61.2323 76.6428 64.3183 80.1666C67.4042 83.6904 66.9633 88.9762 63.4366 92.5Z" fill="white"/>
<path fill-rule="evenodd" clip-rule="evenodd" d="M62.6595 81.6169C60.3575 78.9882 56.0166 78.6784 53.4262 80.9432L53.401 80.9652L38.8667 93.2867C36.2465 95.5894 35.9407 99.9177 38.204 102.502C40.506 105.131 44.8469 105.441 47.4373 103.176L47.4625 103.154L61.938 90.8822C64.7074 88.0615 64.8578 84.1272 62.6595 81.6169ZM50.5366 77.6166C55.0006 73.7275 62.1113 74.3019 65.9772 78.7164C69.935 83.2358 69.2217 89.8345 64.9953 94.0573L64.9315 94.121L50.3269 106.503C45.8629 110.392 38.7522 109.817 34.8863 105.403C30.9811 100.943 31.5527 93.8281 35.9753 89.9616L36.0006 89.9395L50.5366 77.6166Z" fill="#336668"/>
<path d="M74.4577 104.833L59.469 118.048C55.9422 121.131 50.6521 120.691 47.5662 117.167C44.4802 113.643 44.9211 108.357 48.4478 105.274L63.4366 92.0595C66.9633 88.9762 72.2535 89.4167 75.3394 92.9405C78.4253 96.9048 77.9844 101.75 74.4577 104.833Z" fill="white"/>
<path fill-rule="evenodd" clip-rule="evenodd" d="M64.8881 93.717C64.8869 93.718 64.8892 93.716 64.8881 93.717L49.8993 106.931C47.2567 109.242 46.9685 113.14 49.225 115.716C51.5364 118.356 55.4354 118.645 58.0143 116.393C58.0154 116.392 58.0132 116.394 58.0143 116.393L73.0062 103.176C75.5894 100.917 76.0055 97.4282 73.6391 94.3439C71.3228 91.7481 67.4516 91.4789 64.8881 93.717ZM61.9851 90.4021C66.4597 86.49 73.1387 87.0831 76.9982 91.4902L77.0402 91.5381L77.0793 91.5884C80.8394 96.4188 80.3654 102.592 75.9129 106.488C75.9117 106.489 75.9104 106.49 75.9092 106.491L60.9205 119.705C56.4458 123.617 49.7668 123.024 45.9073 118.617C41.993 114.147 42.5852 107.476 46.9928 103.619L61.9851 90.4021Z" fill="#336668"/>
<path d="M85.0381 120.69L77.9846 126.857L75.3396 129.5C71.372 133.024 65.641 132.583 62.1142 128.619C58.5875 124.655 59.0283 118.929 62.9959 115.405L73.1353 106.595C77.1029 103.071 82.8339 103.512 86.3607 107.476C89.4466 111.44 89.0057 117.167 85.0381 120.69Z" fill="white"/>
<path fill-rule="evenodd" clip-rule="evenodd" d="M84.6646 108.885C81.914 105.847 77.606 105.571 74.5997 108.241L74.5818 108.257L64.4518 117.058C61.368 119.805 61.076 124.137 63.7616 127.156C66.4961 130.23 70.8076 130.537 73.8295 127.894L76.4779 125.248L83.5798 119.039C86.6581 116.3 86.9852 111.926 84.6646 108.885ZM71.6803 104.941C76.5911 100.588 83.7056 101.177 88.0081 106.013L88.0561 106.067L88.1005 106.124C91.9024 111.008 91.3344 118.045 86.5025 122.337L86.4896 122.348L79.4913 128.466L76.8523 131.103L76.8039 131.146C71.8928 135.508 64.772 134.922 60.4667 130.082C56.1013 125.175 56.688 118.06 61.5315 113.759L61.5494 113.743L71.6803 104.941Z" fill="#336668"/>
</g>
</g>
<defs>
<filter id="filter0_d" x="0.804321" y="0" width="191.391" height="141.905" filterUnits="userSpaceOnUse" color-interpolation-filters="sRGB">
<feFlood flood-opacity="0" result="BackgroundImageFix"/>
<feColorMatrix in="SourceAlpha" type="matrix" values="0 0 0 0 0 0 0 0 0 0 0 0 0 0 0 0 0 0 127 0"/>
<feOffset dy="4"/>
<feGaussianBlur stdDeviation="2"/>
<feColorMatrix type="matrix" values="0 0 0 0 0 0 0 0 0 0 0 0 0 0 0 0 0 0 0.25 0"/>
<feBlend mode="normal" in2="BackgroundImageFix" result="effect1_dropShadow"/>
<feBlend mode="normal" in="SourceGraphic" in2="effect1_dropShadow" result="shape"/>
</filter>
<clipPath id="clip0">
<rect x="4.80432" width="183.391" height="133.905" fill="white"/>
</clipPath>
</defs>
</svg>
