<svg width="466" height="99" viewBox="0 0 466 99" fill="none" xmlns="http://www.w3.org/2000/svg">
<g clip-path="url(#clip0)">
<path d="M49.3917 69.3536C49.3917 68.9512 49.5259 68.5487 49.9286 68.4146C50.3312 68.2804 50.8681 68.0121 51.6734 67.878C53.1498 67.4756 54.3577 67.0731 54.8946 66.5365C55.5657 66 55.8341 65.1951 55.8341 64.1219V42.3902C55.8341 37.9634 54.3577 35.5487 51.405 35.1463C50.7339 35.1463 50.4655 34.6097 50.4655 33.8048C50.4655 33.1341 50.7339 32.7317 51.405 32.5975C55.4315 31.6585 58.9211 30.0487 61.8739 27.6341C62.4107 27.2317 62.9476 26.9634 63.216 26.9634C63.6187 26.9634 63.7529 27.0975 63.7529 27.5C63.7529 28.1707 63.6187 29.5122 63.4845 31.2561C63.3502 32.0609 63.3502 33.5365 63.0818 35.6829C62.9476 37.8292 62.8134 39.5731 62.8134 40.9146V63.9878C62.8134 65.0609 63.216 65.8658 63.8871 66.4024C64.5582 66.939 65.6319 67.3414 67.1083 67.7439C67.9136 67.878 68.4505 68.1463 68.8531 68.2804C69.2558 68.4146 69.39 68.817 69.39 69.2195C69.39 69.8902 68.7189 70.2926 67.3767 70.2926C65.7661 70.2926 64.2898 70.1585 63.216 70.0243C61.7396 69.8902 60.3975 69.8902 59.3237 69.8902C58.25 69.8902 57.0421 69.8902 55.5657 70.0243C54.492 70.1585 53.0156 70.2926 51.2708 70.2926C50.0628 70.4268 49.3917 70.1585 49.3917 69.3536Z" fill="white"/>
<path d="M74.2218 69.3536C74.2218 68.9512 74.356 68.5488 74.7587 68.4146C75.0271 68.2805 75.6982 68.0122 76.5035 67.7439C79.0536 67.2073 80.2615 65.8658 80.2615 63.9878V42.5244C80.2615 40.5122 79.9931 38.9024 79.322 37.6951C78.7852 36.4878 77.7114 35.6829 76.1008 35.4146C75.8324 35.4146 75.564 35.1463 75.4298 34.878C75.2955 34.6097 75.1613 34.3415 75.1613 34.0732C75.1613 33.8049 75.2955 33.5366 75.4298 33.2683C75.564 33 75.8324 32.8658 75.9666 32.8658C78.6509 32.061 81.8722 30.3171 85.7644 28.0366C86.4355 27.6341 86.9724 27.3658 87.2408 27.3658C87.5092 27.3658 87.7777 27.6341 87.7777 28.0366C87.7777 29.7805 87.6435 32.3293 87.5092 35.5488C87.5092 35.6829 87.5093 35.6829 87.6435 35.6829C89.2541 33.6707 91.1331 32.061 93.2806 30.8536C95.2938 29.6463 97.3071 28.9756 99.1861 28.9756C100.528 28.9756 101.736 29.2439 102.676 29.9146C103.615 30.4512 104.018 31.2561 104.018 32.1951C104.018 33.2683 103.615 34.3415 102.81 35.5488C102.005 36.7561 101.065 37.2927 100.126 37.2927C99.4545 37.2927 98.515 37.0244 97.3071 36.3537C97.1728 36.3537 96.636 36.0854 95.9649 35.8171C95.2938 35.5488 94.6227 35.4146 94.0859 35.4146C92.2068 35.4146 90.5962 36.0854 89.2541 37.2927C87.9119 38.5 87.2408 40.6463 87.2408 43.7317V63.8536C87.2408 64.6585 87.6435 65.4634 88.583 66C89.3883 66.5366 90.7304 67.0732 92.6095 67.6097C93.4148 67.878 93.9517 68.1463 94.3543 68.2805C94.757 68.4146 94.8912 68.8171 94.8912 69.2195C94.8912 69.8902 94.2201 70.2927 92.8779 70.2927C91.1331 70.2927 89.5225 70.1585 88.1803 70.0244C86.5697 69.8902 85.2276 69.8902 84.1538 69.8902C83.0801 69.8902 81.8722 69.8902 80.3958 70.0244C79.322 70.1585 77.8457 70.2927 76.1008 70.2927C74.8929 70.4268 74.2218 70.1585 74.2218 69.3536Z" fill="white"/>
<path d="M113.145 70.5609C111.4 69.8902 109.789 69.0853 108.581 67.878C108.044 66.8048 107.642 64.1219 107.508 59.9634C107.508 59.4268 107.91 59.0244 108.85 59.0244C109.521 59.0244 109.923 59.2927 110.058 59.6951C110.863 62.7805 112.205 65.0609 113.95 66.5366C115.829 68.0122 117.708 68.817 119.855 68.817C121.734 68.817 123.479 68.1463 124.821 66.939C126.164 65.5975 126.835 63.9878 126.835 62.1097C126.835 60.3658 126.298 58.8902 125.09 57.5488C123.882 56.2073 121.869 54.5975 118.782 52.7195C115.292 50.5731 112.876 48.5609 111.4 46.817C109.923 44.939 109.252 42.7927 109.252 40.378C109.252 37.0244 110.46 34.3414 112.742 32.1951C115.024 30.0488 118.379 28.9756 122.674 28.9756C124.553 28.9756 126.164 29.1097 127.506 29.5122C128.848 29.9146 129.922 30.317 130.593 30.8536C131.13 31.5244 131.532 32.7317 131.935 34.3414C132.338 35.9512 132.472 37.4268 132.472 38.7683C132.472 39.1707 132.203 39.439 131.532 39.439C131.13 39.439 130.727 39.3049 130.324 39.1707C129.922 39.0366 129.653 38.7683 129.653 38.5C128.714 36.2195 127.64 34.6097 126.298 33.4024C124.956 32.3292 123.479 31.6585 121.6 31.6585C119.855 31.6585 118.379 32.1951 117.171 33.2683C115.963 34.3414 115.292 35.817 115.292 37.561C115.292 39.1707 115.829 40.5122 116.768 41.7195C117.708 42.9268 119.587 44.2683 122.137 45.7439C126.298 48.1585 129.251 50.3049 130.995 52.1829C132.74 54.0609 133.546 56.4756 133.546 59.4268C133.546 63.0488 132.203 65.8658 129.519 68.1463C126.835 70.4268 123.211 71.5 118.916 71.5C116.903 71.6341 115.024 71.2317 113.145 70.5609Z" fill="white"/>
<path d="M145.222 68.5487C143.478 66.5365 142.538 63.5853 142.538 59.6951V36.6219C142.538 36.0853 142.27 35.6829 141.867 35.4146C141.464 35.2804 140.525 35.1463 139.317 35.1463H138.78C138.512 35.1463 138.109 35.0121 137.975 34.6097C137.706 34.2073 137.572 33.8048 137.572 33.2682C137.572 33.1341 137.706 32.9999 137.84 32.7317C137.975 32.4634 138.109 32.3292 138.243 32.1951C141.867 29.6463 144.82 26.9634 147.101 24.2804C147.37 24.0121 147.638 23.6097 147.907 23.4756C148.175 23.2073 148.444 23.0731 148.846 23.0731C149.786 23.0731 150.188 23.4756 150.188 24.1463L149.652 28.5731V28.9756C149.652 29.5121 149.786 29.9146 150.188 30.1829C150.591 30.317 151.128 30.4512 151.933 30.4512H163.342C163.61 30.4512 163.878 30.7195 164.013 31.1219C164.147 31.5243 164.281 32.0609 164.281 32.7317C164.281 33.2682 164.147 33.939 164.013 34.4756C163.878 35.0121 163.61 35.2804 163.342 35.2804H153.544C151.799 35.2804 150.591 35.4146 150.188 35.6829C149.786 35.9512 149.517 36.756 149.517 38.0975V57.6829C149.517 60.3658 150.054 62.5121 151.262 63.9878C152.336 65.4634 154.081 66.2682 156.094 66.2682C157.973 66.2682 159.449 66.1341 160.523 65.8658C161.597 65.5975 162.536 65.1951 163.476 64.5243L163.878 64.3902C164.281 64.3902 164.55 64.7926 164.55 65.7317C164.55 66.1341 164.013 66.8048 162.805 67.878C161.597 68.9512 160.12 69.756 158.376 70.5609C156.631 71.3658 154.752 71.7682 153.007 71.7682C149.517 71.6341 146.967 70.5609 145.222 68.5487Z" fill="white"/>
<path d="M169.918 69.6219C169.918 69.2195 170.187 68.817 170.723 68.5487C171.26 68.2804 172.066 68.0122 173.274 67.878C175.824 67.4756 177.837 66.5365 179.045 65.3292C180.387 64.1219 180.924 62.378 180.924 60.0975V21.4634C180.924 17.0365 180.79 13.9512 180.521 12.4756C180.253 10.8658 179.716 10.0609 178.911 9.92679C178.105 9.79264 177.032 9.65849 175.824 9.52435C174.616 9.52435 173.274 9.52435 171.797 9.52435H167.1C165.355 9.52435 163.744 9.79264 162.268 10.4634C160.791 11.1341 159.584 12.0731 159.047 13.4146C158.644 14.2195 157.973 15.0243 157.168 15.9634C156.362 16.7683 155.557 17.3048 154.886 17.3048C154.483 17.3048 154.215 16.9024 154.215 15.9634C154.215 15.2926 154.349 14.6219 154.752 13.9512C155.691 12.2073 156.362 10.4634 156.765 8.98776C157.168 7.51215 157.57 5.6341 157.839 3.48776C157.973 2.01215 158.644 1.20728 159.584 1.20728C159.718 1.20728 160.12 1.60971 160.791 2.28045C161.328 2.95118 161.865 3.75606 162.134 4.42679C162.536 5.09752 163.476 5.6341 164.818 5.9024C166.16 6.17069 167.636 6.43898 169.113 6.43898H204.009C208.17 6.43898 214.075 5.9024 216.223 4.96337C216.626 4.82923 217.162 4.42679 217.968 3.75606C218.773 3.21947 216.626 2.95118 217.297 2.95118C217.431 2.95118 217.699 3.21947 217.833 3.75606C217.968 4.29264 217.968 4.82923 217.968 5.36581C217.968 5.6341 217.833 6.57313 217.565 8.18289L217.028 11.1341C216.76 11.939 216.626 12.878 216.626 14.0853V15.2926C216.626 15.9634 216.491 16.6341 216.223 17.439C215.954 18.1097 218.37 18.5122 217.833 18.5122C217.431 18.5122 217.028 18.2439 216.76 17.5731C216.491 16.9024 216.223 15.9634 215.954 14.4878C215.686 13.0122 214.881 11.939 213.404 11.1341C212.062 10.3292 206.962 9.92679 204.009 9.92679H193.943C192.332 9.92679 191.124 10.0609 190.453 10.4634C189.782 10.8658 189.38 11.8048 189.245 13.2804C189.111 14.7561 188.977 17.439 188.977 21.3292V60.5C188.977 62.7804 189.648 64.5243 190.99 65.7317C192.332 66.939 194.211 67.7439 196.896 68.2804C197.969 68.4146 198.909 68.6829 199.446 68.9512C199.983 69.2195 200.251 69.6219 200.251 70.0243C200.251 70.6951 199.312 71.0975 197.298 71.0975C194.882 71.0975 192.735 70.9634 190.99 70.8292C188.843 70.6951 187.098 70.6951 185.756 70.6951C184.145 70.6951 182.132 70.6951 179.716 70.8292C177.703 70.9634 175.555 71.0975 173.005 71.0975C170.858 70.6951 169.918 70.2926 169.918 69.6219Z" fill="white"/>
<path d="M206.291 69.3537C206.291 68.9512 206.425 68.6829 206.828 68.4146C207.096 68.2805 207.767 68.0122 208.573 67.7439C209.915 67.3415 210.988 66.8049 211.66 66.2683C212.331 65.7317 212.733 64.7927 212.868 63.5854V13.8171C212.868 9.52439 212.196 9.39024 209.244 8.85366C208.707 8.71951 208.304 8.31707 208.304 7.5122C208.304 6.97561 209.378 6.30488 209.915 6.03659C215.149 4.42683 217.162 1.07317 219.31 0.134146C219.578 0 219.713 0 219.847 0C220.249 0 220.518 0.268293 220.518 0.670732C220.518 0.939024 220.384 2.0122 220.115 3.7561C219.847 5.5 219.713 8.98781 219.713 14.2195V31.5244C219.713 32.4634 219.713 33.2683 219.847 33.8049C219.981 34.3415 220.115 34.7439 220.384 35.2805C226.021 31.122 231.121 28.9756 235.55 28.9756C238.771 28.9756 241.456 30.3171 243.603 32.8659C245.751 35.4146 246.824 38.6341 246.824 42.5244V63.4512C246.824 65.5976 248.166 67.0732 250.851 67.8781C251.656 68.0122 252.193 68.2805 252.596 68.5488C252.998 68.8171 253.132 69.0854 253.132 69.4878C253.132 70.1585 252.461 70.561 251.119 70.561C249.509 70.561 248.032 70.4268 246.959 70.2927C245.616 70.1585 244.408 70.1585 243.335 70.1585C242.261 70.1585 241.053 70.1585 239.711 70.2927C238.637 70.4268 237.295 70.561 235.55 70.561C234.208 70.561 233.537 70.1585 233.537 69.4878C233.537 69.0854 233.671 68.8171 233.94 68.6829C234.208 68.5488 234.879 68.2805 235.819 67.8781C237.026 67.4756 237.966 66.939 238.637 66.2683C239.308 65.5976 239.711 64.6585 239.711 63.4512V43.061C239.711 41.4512 239.308 39.9756 238.369 38.6341C237.429 37.2927 236.221 36.2195 234.879 35.4146C233.403 34.6098 232.06 34.2073 230.584 34.2073C229.242 34.2073 227.631 34.3415 226.021 34.7439C224.41 35.1463 223.202 35.6829 222.263 36.3537C221.189 37.1585 220.518 38.0976 220.115 39.0366C219.713 39.9756 219.578 41.4512 219.578 43.4634V63.7195C219.578 64.9268 219.981 65.7317 220.652 66.4024C221.323 66.939 222.263 67.4756 223.471 67.8781C224.142 68.0122 224.813 68.2805 225.081 68.5488C225.484 68.8171 225.618 69.0854 225.618 69.4878C225.618 69.8902 225.484 70.1585 225.215 70.2927C224.947 70.4268 224.41 70.561 223.739 70.561C221.994 70.561 220.652 70.4268 219.713 70.2927C218.505 70.1585 217.297 70.1585 216.223 70.1585C215.149 70.1585 213.941 70.1585 212.465 70.2927C211.391 70.4268 209.915 70.561 208.17 70.561C206.962 70.4268 206.291 70.1585 206.291 69.3537Z" fill="white"/>
<path d="M263.467 68.9512C260.38 67.2073 258.099 64.7927 256.354 61.8415C254.609 58.7561 253.669 55.4024 253.669 51.6463C253.669 48.0244 254.609 44.4024 256.622 40.9146C258.635 37.4268 261.186 34.6097 264.541 32.3293C267.896 30.1829 271.52 29.1097 275.412 29.1097C279.17 29.1097 282.66 30.0488 285.747 31.7927C288.834 33.6707 291.384 36.0854 293.129 39.1707C294.874 42.2561 295.813 45.6097 295.813 49.0975C295.813 53.1219 295.008 56.7439 293.263 60.2317C291.518 63.7195 288.968 66.4024 285.613 68.5488C282.257 70.6951 278.097 71.6341 273.399 71.6341C269.775 71.6341 266.42 70.6951 263.467 68.9512ZM285.747 63.0488C287.089 60.5 287.76 56.6097 287.76 51.2439C287.76 48.0244 287.223 44.939 286.016 41.9878C284.808 39.0366 283.197 36.6219 281.05 34.7439C278.902 32.8658 276.486 31.9268 273.802 31.9268C271.923 31.9268 270.178 32.1951 268.836 32.8658C267.494 33.4024 266.152 34.4756 265.078 35.9512C263.87 37.4268 263.065 39.3049 262.528 41.5854C262.125 43.8658 261.857 46.2805 261.857 49.2317C261.857 52.5854 262.393 55.6707 263.601 58.6219C264.809 61.5732 266.42 63.9878 268.567 65.7317C270.715 67.6097 272.997 68.4146 275.547 68.4146C280.513 68.5488 283.868 66.8049 285.747 63.0488Z" fill="white"/>
<path d="M332.454 71.2317L332.589 68.5487C332.723 67.2073 332.857 66 332.857 65.0609V64.5243C330.307 67.0731 327.757 68.817 325.073 69.8902C322.388 70.9634 319.57 71.5 316.348 71.5C312.993 71.5 310.175 70.4268 308.161 68.4146C306.014 66.4024 305.074 63.4512 305.074 59.6951V39.5731C305.074 38.0975 304.806 36.8902 304.135 36.0853C303.464 35.2804 302.39 34.4756 300.914 33.939C300.108 33.6707 299.571 33.1341 299.571 32.3292C299.571 31.3902 300.108 30.8536 301.048 30.7195C303.061 30.5853 304.672 30.4512 305.88 30.1829C307.088 30.0487 308.698 29.6463 310.846 29.1097L311.651 28.9756C312.322 28.9756 312.725 29.378 312.59 30.317C312.188 33.4024 312.054 35.9512 312.054 37.9634V57.4146C312.054 59.8292 312.859 61.9756 314.604 63.7195C316.348 65.5975 318.228 66.4024 320.375 66.4024C322.388 66.4024 323.999 66.2682 325.207 66C326.415 65.7317 327.623 65.1951 328.696 64.3902C329.904 63.5853 330.978 62.5122 331.783 61.3048C332.723 60.0975 333.126 58.6219 333.126 56.878V38.7683C333.126 37.0243 332.32 35.6829 330.844 34.878C329.367 34.0731 327.891 33.6707 326.415 33.6707C325.073 33.6707 324.267 33.1341 324.267 31.9268C324.267 30.9878 324.938 30.4512 326.415 30.4512C329.233 30.4512 331.515 30.1829 333.26 30.0487C335.005 29.7804 336.749 29.378 338.628 28.8414C339.031 28.7073 339.3 28.7073 339.568 28.7073C339.836 28.7073 340.239 28.8414 340.507 28.9756C340.776 29.1097 340.91 29.378 340.91 29.7804L340.776 30.7195C340.642 31.3902 340.507 32.4634 340.373 33.8048C340.239 35.1463 340.105 36.3536 340.105 37.5609V60.5C340.105 63.8536 340.642 65.4634 341.85 65.4634L344.131 65.3292L346.413 65.1951C347.353 65.1951 347.889 65.5975 347.889 66.5365C347.889 67.0731 347.755 67.4756 347.487 67.6097C347.218 67.7439 346.95 67.878 346.413 68.0122C344.131 68.2804 342.118 68.817 340.373 69.3536C338.628 69.8902 336.749 70.5609 334.736 71.5C333.931 71.9024 333.26 72.0365 332.723 72.0365C332.589 72.0365 332.454 71.7682 332.454 71.2317Z" fill="white"/>
<path d="M392.718 31.9268C392.986 32.1951 393.12 32.5975 393.12 33C393.12 33.5366 392.852 34.2073 392.181 34.878C391.912 35.1463 391.644 35.4146 391.376 35.4146H388.691C386.946 35.4146 385.873 35.6829 385.738 36.2195C385.336 37.4268 385.202 38.9024 385.202 40.7805C385.202 44.1341 384.531 47.2195 383.054 50.0366C381.578 52.9878 379.699 55.2683 377.283 57.0122C374.867 58.7561 372.317 59.561 369.498 59.561C367.619 59.561 365.874 59.2927 364.264 58.6219C363.056 59.1585 362.116 59.9634 361.311 60.7683C360.506 61.5731 360.103 62.2439 360.103 62.9146C360.103 65.7317 364.398 67.3414 372.988 67.878C379.162 68.1463 383.591 69.2195 386.678 70.8292C389.631 72.439 391.107 74.8536 391.107 77.939C391.107 81.2927 390.033 84.5122 387.886 87.8658C385.738 91.2195 382.92 93.9024 379.43 95.9146C375.941 98.061 372.451 99 368.961 99C363.324 99 358.895 97.9268 355.54 95.7805C352.319 93.6341 350.574 90.6829 350.574 87.061C350.574 85.3171 350.842 83.8414 351.379 82.7683C351.916 81.561 352.721 80.6219 353.929 79.6829L357.956 76.4634L362.385 72.9756C359.298 72.439 357.016 71.5 355.674 70.4268C354.332 69.3536 353.661 67.7439 353.661 65.8658C353.661 64.6585 354.466 63.4512 355.942 62.2439C357.553 61.0366 358.761 60.0975 359.566 59.4268C360.372 58.7561 361.043 58.0853 361.445 57.5488C359.029 56.2073 357.15 54.3292 355.674 52.0488C354.198 49.7683 353.526 47.3536 353.526 44.6707C353.526 41.7195 354.332 39.0366 355.942 36.6219C357.553 34.2073 359.7 32.3292 362.251 30.9878C364.935 29.6463 367.753 28.9756 370.84 28.9756C372.854 28.9756 375.27 29.378 377.954 30.317C378.357 30.4512 379.162 30.7195 380.101 30.9878C381.578 31.3902 382.786 31.6585 383.725 31.7927C384.665 31.9268 385.738 31.9268 386.812 31.9268C387.483 31.9268 388.691 31.9268 390.033 31.7927L392.181 31.6585C392.047 31.5244 392.449 31.6585 392.718 31.9268ZM381.175 76.061C378.893 74.9878 375.001 74.1829 369.767 73.9146C367.888 73.7805 366.411 73.6463 365.472 73.5122C362.653 75.3902 360.64 77.2683 359.432 79.1463C358.224 81.0244 357.687 83.1707 357.687 85.7195C357.687 88.4024 358.895 90.5488 361.177 92.4268C363.593 94.3049 366.411 95.1097 369.901 95.1097C373.793 95.1097 377.014 94.1707 379.296 92.4268C380.907 91.2195 382.249 89.4756 383.188 87.4634C384.128 85.4512 384.531 83.3049 384.531 81.0244C384.665 78.878 383.591 77.1341 381.175 76.061ZM375.941 52.317C377.685 49.7683 378.491 46.5488 378.491 42.7927C378.491 40.9146 378.088 39.1707 377.149 37.4268C376.209 35.6829 375.135 34.3414 373.659 33.2683C372.183 32.1951 370.706 31.6585 369.096 31.6585C367.619 31.6585 366.143 32.1951 364.801 33.2683C363.458 34.3414 362.385 35.817 361.579 37.561C360.774 39.3049 360.372 41.1829 360.372 43.1951C360.372 45.4756 360.774 47.6219 361.714 49.5C362.519 51.5122 363.727 53.1219 365.203 54.1951C366.68 55.4024 368.29 55.939 370.035 55.939C372.183 56.2073 374.33 54.8658 375.941 52.317Z" fill="white"/>
<path d="M391.644 69.3537C391.644 68.9512 391.778 68.6829 392.181 68.4146C392.449 68.2805 393.12 68.0122 393.926 67.7439C395.268 67.3415 396.342 66.8049 397.013 66.2683C397.684 65.7317 398.086 64.7927 398.221 63.5854V13.8171C398.221 9.52439 396.744 7.2439 393.791 6.70732C393.255 6.57317 392.852 6.17073 392.852 5.36585C392.852 4.82927 393.12 4.42683 393.657 4.15854C398.892 2.54878 402.65 1.20732 404.663 0.268293C405.066 0 405.2 0 405.334 0C405.737 0 406.005 0.268293 406.005 0.670732C406.005 0.939024 405.871 2.0122 405.603 3.7561C405.334 5.5 405.2 8.98781 405.2 14.2195V31.5244C405.2 32.4634 405.2 33.2683 405.334 33.8049C405.468 34.3415 405.603 34.7439 405.871 35.2805C411.508 31.122 416.608 28.9756 421.037 28.9756C424.259 28.9756 426.943 30.3171 429.09 32.8659C431.238 35.4146 432.312 38.6341 432.312 42.5244V63.4512C432.312 65.5976 433.654 67.0732 436.338 67.8781C437.143 68.0122 437.68 68.2805 438.083 68.5488C438.486 68.8171 438.62 69.0854 438.62 69.4878C438.62 70.1585 437.949 70.561 436.607 70.561C434.996 70.561 433.52 70.4268 432.446 70.2927C431.104 70.1585 429.896 70.1585 428.822 70.1585C427.748 70.1585 426.54 70.1585 425.198 70.2927C424.124 70.4268 422.782 70.561 421.037 70.561C419.695 70.561 419.024 70.1585 419.024 69.4878C419.024 69.0854 419.158 68.8171 419.427 68.6829C419.695 68.5488 420.366 68.2805 421.306 67.8781C422.514 67.4756 423.453 66.939 424.124 66.2683C424.796 65.5976 425.198 64.6585 425.198 63.4512V43.061C425.198 41.4512 424.795 39.9756 423.856 38.6341C422.916 37.2927 421.709 36.2195 420.366 35.4146C418.89 34.6098 417.548 34.2073 416.071 34.2073C414.729 34.2073 413.119 34.3415 411.508 34.7439C409.897 35.1463 408.689 35.6829 407.75 36.3537C406.676 37.1585 406.005 38.0976 405.603 39.0366C405.2 39.9756 405.066 41.4512 405.066 43.4634V63.7195C405.066 64.9268 405.468 65.7317 406.139 66.4024C406.81 66.939 407.75 67.4756 408.958 67.8781C409.629 68.0122 410.3 68.2805 410.569 68.5488C410.971 68.8171 411.105 69.0854 411.105 69.4878C411.105 69.8902 410.971 70.1585 410.703 70.2927C410.434 70.4268 409.897 70.561 409.092 70.561C407.347 70.561 406.005 70.4268 405.066 70.2927C403.858 70.1585 402.65 70.1585 401.576 70.1585C400.502 70.1585 399.294 70.1585 397.818 70.2927C396.744 70.4268 395.268 70.561 393.523 70.561C392.315 70.4268 391.644 70.1585 391.644 69.3537Z" fill="white"/>
<path d="M446.673 68.5487C444.928 66.5365 443.988 63.5853 443.988 59.6951V36.6219C443.988 36.0853 443.72 35.6829 443.317 35.4146C442.915 35.2804 441.975 35.1463 440.767 35.1463H440.23C439.962 35.1463 439.559 35.0121 439.425 34.6097C439.157 34.2073 439.022 33.8048 439.022 33.2682C439.022 33.1341 439.157 32.9999 439.291 32.7317C439.425 32.4634 439.559 32.3292 439.694 32.1951C443.317 29.6463 446.27 26.9634 448.552 24.2804C448.82 24.0121 449.089 23.6097 449.357 23.4756C449.626 23.2073 449.894 23.0731 450.297 23.0731C451.236 23.0731 451.639 23.4756 451.639 24.1463L451.102 28.5731V28.9756C451.102 29.5121 451.236 29.9146 451.639 30.1829C452.041 30.317 452.578 30.4512 453.384 30.4512H464.792C465.06 30.4512 465.329 30.7195 465.463 31.1219C465.597 31.5243 465.732 32.0609 465.732 32.7317C465.732 33.2682 465.597 33.939 465.463 34.4756C465.329 35.0121 465.06 35.2804 464.792 35.2804H454.994C453.249 35.2804 452.041 35.4146 451.639 35.6829C451.236 35.9512 450.968 36.756 450.968 38.0975V57.6829C450.968 60.3658 451.505 62.5121 452.713 63.9878C453.786 65.4634 455.531 66.2682 457.544 66.2682C459.423 66.2682 460.9 66.1341 461.974 65.8658C463.047 65.5975 463.987 65.1951 464.926 64.5243L465.329 64.3902C465.732 64.3902 466 64.7926 466 65.7317C466 66.1341 465.463 66.8048 464.255 67.878C463.047 68.9512 461.571 69.756 459.826 70.5609C458.081 71.3658 456.202 71.7682 454.457 71.7682C450.968 71.6341 448.418 70.5609 446.673 68.5487Z" fill="white"/>
<path d="M30.6014 24.6829C30.6014 22.5366 31.4067 19.9878 33.1515 17.3049C34.8963 14.4878 37.3122 12.2073 40.3992 10.1951C43.4862 8.31707 46.9758 7.2439 50.7339 7.2439C54.0893 7.2439 56.9078 8.18292 59.0553 10.061C61.2028 11.939 62.4107 14.3537 62.4107 17.1707C62.4107 18.9146 61.8738 20.5244 60.8001 21.8658C59.7264 23.2073 58.3842 23.878 56.7736 23.878C55.4314 23.878 54.2235 23.3415 53.284 22.4024C52.3445 21.4634 51.8076 19.9878 51.6734 18.2439C51.5392 17.0366 51.0023 15.9634 49.7943 15.0244C48.5864 14.0854 47.5127 13.5488 46.4389 13.5488C42.5467 13.5488 39.5939 14.7561 37.4464 17.0366C35.299 19.3171 33.9568 22 33.2857 25.2195C33.0173 26.2927 32.6146 26.9634 31.8093 26.9634C31.4067 26.9634 31.1382 26.8293 30.8698 26.4268C30.6014 25.8902 30.6014 25.3537 30.6014 24.6829Z" fill="white"/>
<path d="M0.40265 69.8903C0.134217 69.622 0 69.3537 0 68.9513C0 68.683 0.134217 68.4147 0.536866 68.1464C0.8053 67.8781 1.20795 67.7439 1.74482 67.6098C5.10023 66.8049 7.51613 66.1342 8.99251 65.4635C10.4689 64.7927 11.6768 63.9879 12.4821 62.9147C13.2874 61.8415 13.6901 60.2318 13.6901 58.0854V16.5C13.6901 14.622 12.8848 13.2805 11.2742 12.6098C9.66359 11.9391 7.38191 11.4025 4.56336 11.2683C3.62385 11.2683 2.95276 11 2.4159 10.7318C1.87903 10.4635 1.6106 10.061 1.6106 9.39029C1.6106 8.8537 1.87903 8.45126 2.4159 8.18297C2.95276 7.91468 3.62385 7.64639 4.42915 7.51224C8.45564 6.97565 11.5426 6.17078 13.9585 5.3659C16.2402 4.56102 18.5219 2.95126 20.8036 0.804923C20.9378 0.670776 21.072 0.670776 21.3404 0.670776C21.7431 0.670776 22.0115 0.804923 22.28 0.939069C22.5484 1.07322 22.6826 1.34151 22.5484 1.6098C22.28 3.622 22.1457 6.17078 22.1457 9.39029V59.4269C22.1457 61.3049 22.4142 62.6464 23.0853 63.4513C23.7563 64.3903 24.8301 65.061 26.1722 65.5976C27.6486 66.1342 30.0645 66.8049 33.6884 67.6098C34.2252 67.7439 34.6279 68.0122 35.0305 68.1464C35.4332 68.4147 35.5674 68.683 35.5674 68.9513C35.5674 69.3537 35.4332 69.622 35.1647 69.7561C34.8963 70.0244 34.4937 70.0244 34.091 70.0244C31.1382 70.0244 28.3197 69.8903 25.7696 69.7561C22.28 69.7561 19.7298 69.7561 17.985 69.7561C15.1665 69.7561 12.4821 69.8903 9.79781 70.0244C6.30818 70.1586 3.62385 70.2927 1.6106 70.2927C1.07373 70.2927 0.671083 70.1586 0.40265 69.8903Z" fill="#86C98E"/>
<path d="M41.8755 35.1463C41.7413 34.0732 41.7413 33.1341 41.8755 32.061L42.2782 28.0366C42.2782 27.6341 42.2782 27.0975 42.144 26.6951C41.7413 25.4878 40.8018 23.4756 39.5938 26.2927C38.6543 28.5732 37.1779 30.1829 36.2384 30.9878C35.8358 31.3902 35.4331 31.5244 34.8963 31.5244C33.4199 31.5244 30.0645 31.6585 26.9775 31.7927H26.8433H26.7091C25.2327 31.7927 24.0247 32.5975 24.0247 33.5366C24.0247 34.4756 25.2327 35.2805 26.7091 35.2805C26.8433 35.2805 26.9775 35.2805 26.9775 35.2805C28.8565 35.2805 33.2857 35.2805 35.4331 35.6829C36.5069 35.8171 37.0437 36.8902 39.057 40.378C41.3387 44.2683 42.2782 40.7805 42.2782 40.7805L41.8755 35.1463Z" fill="white"/>
</g>
<defs>
<clipPath id="clip0">
<rect width="466" height="99" fill="white"/>
</clipPath>
</defs>
</svg>
