<svg width="63" height="71" viewBox="0 0 63 71" fill="none" xmlns="http://www.w3.org/2000/svg">
<path d="M30.6014 24.6829C30.6014 22.5366 31.4067 19.9878 33.1515 17.3049C34.8963 14.4878 37.3122 12.2073 40.3992 10.1951C43.4862 8.31707 46.9758 7.2439 50.7339 7.2439C54.0893 7.2439 56.9078 8.18292 59.0553 10.061C61.2028 11.939 62.4107 14.3537 62.4107 17.1707C62.4107 18.9146 61.8738 20.5244 60.8001 21.8658C59.7264 23.2073 58.3842 23.878 56.7736 23.878C55.4314 23.878 54.2235 23.3415 53.284 22.4024C52.3445 21.4634 51.8076 19.9878 51.6734 18.2439C51.5392 17.0366 51.0023 15.9634 49.7943 15.0244C48.5864 14.0854 47.5127 13.5488 46.4389 13.5488C42.5467 13.5488 39.5939 14.7561 37.4464 17.0366C35.299 19.3171 33.9568 22 33.2857 25.2195C33.0173 26.2927 32.6146 26.9634 31.8093 26.9634C31.4067 26.9634 31.1382 26.8293 30.8698 26.4268C30.6014 25.8902 30.6014 25.3537 30.6014 24.6829Z" fill="#86C98E"/>
<path d="M0.40265 69.8902C0.134217 69.6219 0 69.3537 0 68.9512C0 68.6829 0.134217 68.4146 0.536866 68.1463C0.8053 67.878 1.20795 67.7439 1.74482 67.6098C5.10023 66.8049 7.51613 66.1341 8.99251 65.4634C10.4689 64.7927 11.6768 63.9878 12.4821 62.9146C13.2874 61.8415 13.6901 60.2317 13.6901 58.0854V16.5C13.6901 14.622 12.8848 13.2805 11.2742 12.6098C9.66359 11.939 7.38191 11.4024 4.56336 11.2683C3.62385 11.2683 2.95276 11 2.4159 10.7317C1.87903 10.4634 1.6106 10.061 1.6106 9.39024C1.6106 8.85366 1.87903 8.45122 2.4159 8.18293C2.95276 7.91463 3.62385 7.64634 4.42915 7.51219C8.45564 6.97561 11.5426 6.17073 13.9585 5.36585C16.2402 4.56097 18.5219 2.95122 20.8036 0.804877C20.9378 0.670731 21.072 0.670731 21.3404 0.670731C21.7431 0.670731 22.0115 0.804877 22.28 0.939023C22.5484 1.07317 22.6826 1.34146 22.5484 1.60976C22.28 3.62195 22.1457 6.17073 22.1457 9.39024V59.4268C22.1457 61.3049 22.4142 62.6463 23.0853 63.4512C23.7563 64.3902 24.8301 65.061 26.1722 65.5976C27.6486 66.1341 30.0645 66.8049 33.6884 67.6098C34.2252 67.7439 34.6279 68.0122 35.0305 68.1463C35.4332 68.4146 35.5674 68.6829 35.5674 68.9512C35.5674 69.3537 35.4332 69.622 35.1647 69.7561C34.8963 70.0244 34.4937 70.0244 34.091 70.0244C31.1382 70.0244 28.3197 69.8902 25.7696 69.7561C22.28 69.7561 19.7298 69.7561 17.985 69.7561C15.1665 69.7561 12.4821 69.8902 9.79781 70.0244C6.30818 70.1585 3.62385 70.2927 1.6106 70.2927C1.07373 70.2927 0.671083 70.1585 0.40265 69.8902Z" fill="#488C51"/>
<path d="M41.8755 35.1463C41.7413 34.0732 41.7413 33.1341 41.8755 32.061L42.2782 28.0366C42.2782 27.6341 42.2782 27.0976 42.144 26.6951C41.7413 25.4878 40.8018 23.4756 39.5938 26.2927C38.6543 28.5732 37.1779 30.1829 36.2384 30.9878C35.8358 31.3902 35.4331 31.5244 34.8963 31.5244C33.4199 31.5244 30.0645 31.6585 26.9775 31.7927H26.8433H26.7091C25.2327 31.7927 24.0247 32.5976 24.0247 33.5366C24.0247 34.4756 25.2327 35.2805 26.7091 35.2805C26.8433 35.2805 26.9775 35.2805 26.9775 35.2805C28.8565 35.2805 33.2857 35.2805 35.4331 35.6829C36.5069 35.8171 37.0437 36.8902 39.057 40.378C41.3387 44.2683 42.2782 40.7805 42.2782 40.7805L41.8755 35.1463Z" fill="#86C98E"/>
</svg>
