<svg width="80" height="89" viewBox="0 0 80 89" fill="none" xmlns="http://www.w3.org/2000/svg">
<path d="M73.4959 9.48184H70.4607V6.46489C70.4607 3.01695 67.6423 0 63.9566 0C60.4878 0 57.4526 2.80145 57.4526 6.46489V9.69734H22.3306V6.46489C22.3306 3.01695 19.5122 0 15.8266 0C12.3577 0 9.32249 2.80145 9.32249 6.46489V9.69734H6.28726C2.81843 9.48184 0 12.4988 0 15.9467V30.1695V49.1332V68.3124V87.4915C0 88.3535 0.650406 89 1.51762 89H20.813H40.1084H59.187H78.4824C79.3496 89 80 88.3535 80 87.4915V68.3124V49.1332V30.1695V15.9467C80 12.4988 77.1816 9.48184 73.4959 9.48184ZM38.374 31.8935V47.6247H22.3306V31.8935H38.374ZM57.4526 31.8935V47.6247H41.626V31.8935H57.4526ZM76.748 31.8935V47.6247H60.7046V31.8935H76.748ZM19.2954 47.6247H3.25203V31.8935H19.2954V47.6247ZM3.25203 50.8571H19.2954V66.8039H3.25203V50.8571ZM22.5474 50.8571H38.5908V66.8039H22.5474V50.8571ZM41.626 50.8571H57.4526V66.8039H41.626V50.8571ZM60.7046 50.8571H76.748V66.8039H60.7046V50.8571ZM60.7046 6.46489C60.7046 4.74092 62.2222 3.23245 63.9566 3.23245C65.6911 3.23245 67.2087 4.74092 67.2087 6.46489V11.2058V15.9467C67.2087 17.6707 65.6911 19.1792 63.9566 19.1792C62.2222 19.1792 60.7046 17.6707 60.7046 15.9467V11.2058V6.46489ZM12.7913 6.46489C12.7913 4.74092 14.3089 3.23245 16.0434 3.23245C17.7778 3.23245 19.2954 4.74092 19.2954 6.46489V11.2058V15.9467C19.2954 17.6707 17.7778 19.1792 16.0434 19.1792C14.3089 19.1792 12.7913 17.6707 12.7913 15.9467V11.2058V6.46489ZM3.25203 15.9467C3.25203 14.2228 4.76965 12.7143 6.50407 12.7143H9.7561V15.9467C9.7561 19.3947 12.5745 22.4116 16.2602 22.4116C19.729 22.4116 22.7642 19.6102 22.7642 15.9467V12.7143H57.8862V15.9467C57.8862 19.3947 60.7046 22.4116 64.3902 22.4116C67.8591 22.4116 70.8943 19.6102 70.8943 15.9467V12.7143H74.1463C75.8808 12.7143 77.3984 14.2228 77.3984 15.9467V28.661H60.0542H59.8374H59.6206H40.9756H40.7588H40.542H20.813H3.25203V15.9467ZM3.25203 70.0363H19.2954V85.9831H3.25203V70.0363ZM22.5474 70.0363H38.5908V85.9831H22.5474V70.0363ZM41.626 70.0363H57.4526V85.9831H41.626V70.0363ZM76.748 85.7676H60.7046V69.8208H76.748V85.7676Z" fill="#E48514"/>
</svg>
