<svg width="230" height="112" viewBox="0 0 230 112" fill="none" xmlns="http://www.w3.org/2000/svg">
<g filter="url(#filter0_d)">
<path d="M43.9428 0L226 0L185.751 104H4L43.9428 0Z" fill="#174158"/>
<path d="M59.638 33.256H61.366V38.548H67.972V33.256H69.7V46H67.972V40.168H61.366V46H59.638V33.256ZM73.7898 42.328C73.7898 42.7 73.8678 43.042 74.0238 43.354C74.1918 43.654 74.4078 43.912 74.6718 44.128C74.9358 44.344 75.2418 44.512 75.5898 44.632C75.9378 44.752 76.2978 44.812 76.6698 44.812C77.1738 44.812 77.6118 44.698 77.9838 44.47C78.3558 44.23 78.6978 43.918 79.0098 43.534L80.2338 44.47C79.3338 45.634 78.0738 46.216 76.4538 46.216C75.7818 46.216 75.1698 46.102 74.6178 45.874C74.0778 45.646 73.6158 45.334 73.2318 44.938C72.8598 44.53 72.5718 44.056 72.3678 43.516C72.1638 42.964 72.0618 42.37 72.0618 41.734C72.0618 41.098 72.1698 40.51 72.3858 39.97C72.6138 39.418 72.9198 38.944 73.3038 38.548C73.6998 38.14 74.1678 37.822 74.7078 37.594C75.2478 37.366 75.8358 37.252 76.4718 37.252C77.2278 37.252 77.8638 37.384 78.3798 37.648C78.9078 37.912 79.3398 38.26 79.6758 38.692C80.0118 39.112 80.2518 39.592 80.3958 40.132C80.5518 40.66 80.6298 41.2 80.6298 41.752V42.328H73.7898ZM78.9018 41.032C78.8898 40.672 78.8298 40.342 78.7218 40.042C78.6258 39.742 78.4758 39.484 78.2718 39.268C78.0678 39.04 77.8098 38.866 77.4978 38.746C77.1978 38.614 76.8438 38.548 76.4358 38.548C76.0398 38.548 75.6738 38.626 75.3378 38.782C75.0138 38.926 74.7378 39.118 74.5098 39.358C74.2818 39.598 74.1018 39.868 73.9698 40.168C73.8498 40.456 73.7898 40.744 73.7898 41.032H78.9018ZM82.6038 38.512C83.0598 38.092 83.5878 37.78 84.1878 37.576C84.7878 37.36 85.3878 37.252 85.9878 37.252C86.6118 37.252 87.1458 37.33 87.5898 37.486C88.0458 37.642 88.4178 37.852 88.7058 38.116C88.9938 38.38 89.2038 38.686 89.3358 39.034C89.4798 39.37 89.5518 39.724 89.5518 40.096V44.452C89.5518 44.752 89.5578 45.028 89.5698 45.28C89.5818 45.532 89.5998 45.772 89.6238 46H88.1838C88.1478 45.568 88.1298 45.136 88.1298 44.704H88.0938C87.7338 45.256 87.3078 45.646 86.8158 45.874C86.3238 46.102 85.7538 46.216 85.1058 46.216C84.7098 46.216 84.3318 46.162 83.9718 46.054C83.6118 45.946 83.2938 45.784 83.0178 45.568C82.7538 45.352 82.5438 45.088 82.3878 44.776C82.2318 44.452 82.1538 44.08 82.1538 43.66C82.1538 43.108 82.2738 42.646 82.5138 42.274C82.7658 41.902 83.1018 41.602 83.5218 41.374C83.9538 41.134 84.4518 40.966 85.0158 40.87C85.5918 40.762 86.2038 40.708 86.8518 40.708H88.0398V40.348C88.0398 40.132 87.9978 39.916 87.9138 39.7C87.8298 39.484 87.7038 39.292 87.5358 39.124C87.3678 38.944 87.1578 38.806 86.9058 38.71C86.6538 38.602 86.3538 38.548 86.0058 38.548C85.6938 38.548 85.4178 38.578 85.1778 38.638C84.9498 38.698 84.7398 38.776 84.5478 38.872C84.3558 38.956 84.1818 39.058 84.0258 39.178C83.8698 39.298 83.7198 39.412 83.5758 39.52L82.6038 38.512ZM87.1758 41.896C86.7918 41.896 86.3958 41.92 85.9878 41.968C85.5918 42.004 85.2258 42.082 84.8898 42.202C84.5658 42.322 84.2958 42.49 84.0798 42.706C83.8758 42.922 83.7738 43.198 83.7738 43.534C83.7738 44.026 83.9358 44.38 84.2598 44.596C84.5958 44.812 85.0458 44.92 85.6098 44.92C86.0538 44.92 86.4318 44.848 86.7438 44.704C87.0558 44.548 87.3078 44.35 87.4998 44.11C87.6918 43.87 87.8298 43.606 87.9138 43.318C87.9978 43.018 88.0398 42.724 88.0398 42.436V41.896H87.1758ZM92.0277 32.392H93.6477V46H92.0277V32.392ZM100.798 38.872H98.476V42.742C98.476 42.982 98.482 43.222 98.494 43.462C98.506 43.69 98.548 43.9 98.62 44.092C98.704 44.272 98.824 44.422 98.98 44.542C99.148 44.65 99.388 44.704 99.7 44.704C99.892 44.704 100.09 44.686 100.294 44.65C100.498 44.614 100.684 44.548 100.852 44.452V45.928C100.66 46.036 100.408 46.108 100.096 46.144C99.796 46.192 99.562 46.216 99.394 46.216C98.77 46.216 98.284 46.132 97.936 45.964C97.6 45.784 97.348 45.556 97.18 45.28C97.024 45.004 96.928 44.698 96.892 44.362C96.868 44.014 96.856 43.666 96.856 43.318V38.872H94.984V37.468H96.856V35.074H98.476V37.468H100.798V38.872ZM102.888 32.392H104.508V38.782H104.544C104.748 38.326 105.102 37.96 105.606 37.684C106.11 37.396 106.692 37.252 107.352 37.252C107.76 37.252 108.15 37.318 108.522 37.45C108.906 37.57 109.236 37.762 109.512 38.026C109.8 38.29 110.028 38.632 110.196 39.052C110.364 39.46 110.448 39.946 110.448 40.51V46H108.828V40.96C108.828 40.564 108.774 40.228 108.666 39.952C108.558 39.664 108.414 39.436 108.234 39.268C108.054 39.088 107.844 38.962 107.604 38.89C107.376 38.806 107.136 38.764 106.884 38.764C106.548 38.764 106.236 38.818 105.948 38.926C105.66 39.034 105.408 39.208 105.192 39.448C104.976 39.676 104.808 39.97 104.688 40.33C104.568 40.69 104.508 41.116 104.508 41.608V46H102.888V32.392ZM118.992 39.736C118.692 39.424 118.374 39.19 118.038 39.034C117.714 38.866 117.324 38.782 116.868 38.782C116.424 38.782 116.034 38.866 115.698 39.034C115.374 39.19 115.098 39.412 114.87 39.7C114.654 39.976 114.486 40.3 114.366 40.672C114.258 41.032 114.204 41.41 114.204 41.806C114.204 42.202 114.27 42.58 114.402 42.94C114.534 43.288 114.72 43.594 114.96 43.858C115.2 44.122 115.488 44.332 115.824 44.488C116.16 44.632 116.538 44.704 116.958 44.704C117.414 44.704 117.804 44.626 118.128 44.47C118.452 44.302 118.752 44.062 119.028 43.75L120.18 44.902C119.76 45.37 119.268 45.706 118.704 45.91C118.152 46.114 117.564 46.216 116.94 46.216C116.28 46.216 115.674 46.108 115.122 45.892C114.582 45.676 114.114 45.376 113.718 44.992C113.322 44.596 113.016 44.128 112.8 43.588C112.584 43.036 112.476 42.43 112.476 41.77C112.476 41.11 112.584 40.504 112.8 39.952C113.016 39.4 113.316 38.926 113.7 38.53C114.096 38.134 114.564 37.828 115.104 37.612C115.656 37.384 116.268 37.27 116.94 37.27C117.564 37.27 118.158 37.384 118.722 37.612C119.298 37.828 119.796 38.164 120.216 38.62L118.992 39.736ZM121.61 38.512C122.066 38.092 122.594 37.78 123.194 37.576C123.794 37.36 124.394 37.252 124.994 37.252C125.618 37.252 126.152 37.33 126.596 37.486C127.052 37.642 127.424 37.852 127.712 38.116C128 38.38 128.21 38.686 128.342 39.034C128.486 39.37 128.558 39.724 128.558 40.096V44.452C128.558 44.752 128.564 45.028 128.576 45.28C128.588 45.532 128.606 45.772 128.63 46H127.19C127.154 45.568 127.136 45.136 127.136 44.704H127.1C126.74 45.256 126.314 45.646 125.822 45.874C125.33 46.102 124.76 46.216 124.112 46.216C123.716 46.216 123.338 46.162 122.978 46.054C122.618 45.946 122.3 45.784 122.024 45.568C121.76 45.352 121.55 45.088 121.394 44.776C121.238 44.452 121.16 44.08 121.16 43.66C121.16 43.108 121.28 42.646 121.52 42.274C121.772 41.902 122.108 41.602 122.528 41.374C122.96 41.134 123.458 40.966 124.022 40.87C124.598 40.762 125.21 40.708 125.858 40.708H127.046V40.348C127.046 40.132 127.004 39.916 126.92 39.7C126.836 39.484 126.71 39.292 126.542 39.124C126.374 38.944 126.164 38.806 125.912 38.71C125.66 38.602 125.36 38.548 125.012 38.548C124.7 38.548 124.424 38.578 124.184 38.638C123.956 38.698 123.746 38.776 123.554 38.872C123.362 38.956 123.188 39.058 123.032 39.178C122.876 39.298 122.726 39.412 122.582 39.52L121.61 38.512ZM126.182 41.896C125.798 41.896 125.402 41.92 124.994 41.968C124.598 42.004 124.232 42.082 123.896 42.202C123.572 42.322 123.302 42.49 123.086 42.706C122.882 42.922 122.78 43.198 122.78 43.534C122.78 44.026 122.942 44.38 123.266 44.596C123.602 44.812 124.052 44.92 124.616 44.92C125.06 44.92 125.438 44.848 125.75 44.704C126.062 44.548 126.314 44.35 126.506 44.11C126.698 43.87 126.836 43.606 126.92 43.318C127.004 43.018 127.046 42.724 127.046 42.436V41.896H126.182ZM130.908 37.468H132.528V38.782H132.564C132.672 38.554 132.816 38.35 132.996 38.17C133.176 37.978 133.374 37.816 133.59 37.684C133.818 37.552 134.064 37.45 134.328 37.378C134.592 37.294 134.856 37.252 135.12 37.252C135.384 37.252 135.624 37.288 135.84 37.36L135.768 39.106C135.636 39.07 135.504 39.04 135.372 39.016C135.24 38.992 135.108 38.98 134.976 38.98C134.184 38.98 133.578 39.202 133.158 39.646C132.738 40.09 132.528 40.78 132.528 41.716V46H130.908V37.468ZM138.477 42.328C138.477 42.7 138.555 43.042 138.711 43.354C138.879 43.654 139.095 43.912 139.359 44.128C139.623 44.344 139.929 44.512 140.277 44.632C140.625 44.752 140.985 44.812 141.357 44.812C141.861 44.812 142.299 44.698 142.671 44.47C143.043 44.23 143.385 43.918 143.697 43.534L144.921 44.47C144.021 45.634 142.761 46.216 141.141 46.216C140.469 46.216 139.857 46.102 139.305 45.874C138.765 45.646 138.303 45.334 137.919 44.938C137.547 44.53 137.259 44.056 137.055 43.516C136.851 42.964 136.749 42.37 136.749 41.734C136.749 41.098 136.857 40.51 137.073 39.97C137.301 39.418 137.607 38.944 137.991 38.548C138.387 38.14 138.855 37.822 139.395 37.594C139.935 37.366 140.523 37.252 141.159 37.252C141.915 37.252 142.551 37.384 143.067 37.648C143.595 37.912 144.027 38.26 144.363 38.692C144.699 39.112 144.939 39.592 145.083 40.132C145.239 40.66 145.317 41.2 145.317 41.752V42.328H138.477ZM143.589 41.032C143.577 40.672 143.517 40.342 143.409 40.042C143.313 39.742 143.163 39.484 142.959 39.268C142.755 39.04 142.497 38.866 142.185 38.746C141.885 38.614 141.531 38.548 141.123 38.548C140.727 38.548 140.361 38.626 140.025 38.782C139.701 38.926 139.425 39.118 139.197 39.358C138.969 39.598 138.789 39.868 138.657 40.168C138.537 40.456 138.477 40.744 138.477 41.032H143.589ZM59.638 58.256H61.366V63.764H61.51L67.144 58.256H69.556L63.4 64.142L69.97 71H67.45L61.51 64.628H61.366V71H59.638V58.256ZM70.8959 62.468H72.5159V63.782H72.5519C72.7559 63.326 73.1099 62.96 73.6139 62.684C74.1179 62.396 74.6999 62.252 75.3599 62.252C75.7679 62.252 76.1579 62.318 76.5299 62.45C76.9139 62.57 77.2439 62.762 77.5199 63.026C77.8079 63.29 78.0359 63.632 78.2039 64.052C78.3719 64.46 78.4559 64.946 78.4559 65.51V71H76.8359V65.96C76.8359 65.564 76.7819 65.228 76.6739 64.952C76.5659 64.664 76.4219 64.436 76.2419 64.268C76.0619 64.088 75.8519 63.962 75.6119 63.89C75.3839 63.806 75.1439 63.764 74.8919 63.764C74.5559 63.764 74.2439 63.818 73.9559 63.926C73.6679 64.034 73.4159 64.208 73.1999 64.448C72.9839 64.676 72.8159 64.97 72.6959 65.33C72.5759 65.69 72.5159 66.116 72.5159 66.608V71H70.8959V62.468ZM82.2118 66.734C82.2118 67.166 82.2778 67.568 82.4098 67.94C82.5418 68.3 82.7278 68.612 82.9678 68.876C83.2078 69.128 83.5018 69.332 83.8498 69.488C84.1978 69.632 84.5878 69.704 85.0198 69.704C85.4518 69.704 85.8418 69.632 86.1898 69.488C86.5378 69.332 86.8318 69.128 87.0718 68.876C87.3118 68.612 87.4978 68.3 87.6298 67.94C87.7618 67.568 87.8278 67.166 87.8278 66.734C87.8278 66.302 87.7618 65.906 87.6298 65.546C87.4978 65.174 87.3118 64.862 87.0718 64.61C86.8318 64.346 86.5378 64.142 86.1898 63.998C85.8418 63.842 85.4518 63.764 85.0198 63.764C84.5878 63.764 84.1978 63.842 83.8498 63.998C83.5018 64.142 83.2078 64.346 82.9678 64.61C82.7278 64.862 82.5418 65.174 82.4098 65.546C82.2778 65.906 82.2118 66.302 82.2118 66.734ZM80.4838 66.734C80.4838 66.11 80.5978 65.528 80.8258 64.988C81.0658 64.448 81.3898 63.974 81.7978 63.566C82.2058 63.158 82.6858 62.84 83.2378 62.612C83.7898 62.372 84.3838 62.252 85.0198 62.252C85.6558 62.252 86.2498 62.372 86.8018 62.612C87.3538 62.84 87.8338 63.158 88.2418 63.566C88.6498 63.974 88.9678 64.448 89.1958 64.988C89.4358 65.528 89.5558 66.11 89.5558 66.734C89.5558 67.358 89.4358 67.946 89.1958 68.498C88.9678 69.038 88.6498 69.512 88.2418 69.92C87.8338 70.316 87.3538 70.634 86.8018 70.874C86.2498 71.102 85.6558 71.216 85.0198 71.216C84.3838 71.216 83.7898 71.102 83.2378 70.874C82.6858 70.634 82.2058 70.316 81.7978 69.92C81.3898 69.512 81.0658 69.038 80.8258 68.498C80.5978 67.946 80.4838 67.358 80.4838 66.734ZM90.5593 62.468H92.3773L94.3033 68.84H94.3393L96.3733 62.468H98.0833L100.243 68.84H100.279L102.115 62.468H103.825L101.071 71H99.4333L97.1833 64.628H97.1473L95.1133 71H93.3673L90.5593 62.468ZM105.37 57.392H106.99V71H105.37V57.392ZM110.792 67.328C110.792 67.7 110.87 68.042 111.026 68.354C111.194 68.654 111.41 68.912 111.674 69.128C111.938 69.344 112.244 69.512 112.592 69.632C112.94 69.752 113.3 69.812 113.672 69.812C114.176 69.812 114.614 69.698 114.986 69.47C115.358 69.23 115.7 68.918 116.012 68.534L117.236 69.47C116.336 70.634 115.076 71.216 113.456 71.216C112.784 71.216 112.172 71.102 111.62 70.874C111.08 70.646 110.618 70.334 110.234 69.938C109.862 69.53 109.574 69.056 109.37 68.516C109.166 67.964 109.064 67.37 109.064 66.734C109.064 66.098 109.172 65.51 109.388 64.97C109.616 64.418 109.922 63.944 110.306 63.548C110.702 63.14 111.17 62.822 111.71 62.594C112.25 62.366 112.838 62.252 113.474 62.252C114.23 62.252 114.866 62.384 115.382 62.648C115.91 62.912 116.342 63.26 116.678 63.692C117.014 64.112 117.254 64.592 117.398 65.132C117.554 65.66 117.632 66.2 117.632 66.752V67.328H110.792ZM115.904 66.032C115.892 65.672 115.832 65.342 115.724 65.042C115.628 64.742 115.478 64.484 115.274 64.268C115.07 64.04 114.812 63.866 114.5 63.746C114.2 63.614 113.846 63.548 113.438 63.548C113.042 63.548 112.676 63.626 112.34 63.782C112.016 63.926 111.74 64.118 111.512 64.358C111.284 64.598 111.104 64.868 110.972 65.168C110.852 65.456 110.792 65.744 110.792 66.032H115.904ZM128.12 71H126.5V69.776H126.464C126.152 70.232 125.72 70.586 125.168 70.838C124.628 71.09 124.07 71.216 123.494 71.216C122.834 71.216 122.234 71.102 121.694 70.874C121.166 70.646 120.71 70.328 120.326 69.92C119.954 69.512 119.666 69.038 119.462 68.498C119.258 67.958 119.156 67.37 119.156 66.734C119.156 66.098 119.258 65.51 119.462 64.97C119.666 64.418 119.954 63.944 120.326 63.548C120.71 63.14 121.166 62.822 121.694 62.594C122.234 62.366 122.834 62.252 123.494 62.252C124.106 62.252 124.682 62.384 125.222 62.648C125.762 62.9 126.176 63.248 126.464 63.692H126.5V57.392H128.12V71ZM123.692 69.704C124.124 69.704 124.514 69.632 124.862 69.488C125.21 69.332 125.504 69.128 125.744 68.876C125.984 68.612 126.17 68.3 126.302 67.94C126.434 67.568 126.5 67.166 126.5 66.734C126.5 66.302 126.434 65.906 126.302 65.546C126.17 65.174 125.984 64.862 125.744 64.61C125.504 64.346 125.21 64.142 124.862 63.998C124.514 63.842 124.124 63.764 123.692 63.764C123.26 63.764 122.87 63.842 122.522 63.998C122.174 64.142 121.88 64.346 121.64 64.61C121.4 64.862 121.214 65.174 121.082 65.546C120.95 65.906 120.884 66.302 120.884 66.734C120.884 67.166 120.95 67.568 121.082 67.94C121.214 68.3 121.4 68.612 121.64 68.876C121.88 69.128 122.174 69.332 122.522 69.488C122.87 69.632 123.26 69.704 123.692 69.704ZM139.124 70.928C139.124 71.576 139.01 72.164 138.782 72.692C138.566 73.232 138.254 73.694 137.846 74.078C137.438 74.474 136.946 74.78 136.37 74.996C135.794 75.212 135.158 75.32 134.462 75.32C133.646 75.32 132.896 75.206 132.212 74.978C131.54 74.75 130.898 74.354 130.286 73.79L131.384 72.422C131.804 72.878 132.26 73.22 132.752 73.448C133.244 73.688 133.802 73.808 134.426 73.808C135.026 73.808 135.524 73.718 135.92 73.538C136.316 73.37 136.628 73.148 136.856 72.872C137.096 72.596 137.264 72.278 137.36 71.918C137.456 71.57 137.504 71.216 137.504 70.856V69.596H137.45C137.138 70.112 136.712 70.496 136.172 70.748C135.644 70.988 135.086 71.108 134.498 71.108C133.874 71.108 133.292 71 132.752 70.784C132.224 70.556 131.768 70.25 131.384 69.866C131 69.47 130.7 69.008 130.484 68.48C130.268 67.94 130.16 67.358 130.16 66.734C130.16 66.11 130.262 65.528 130.466 64.988C130.67 64.436 130.958 63.956 131.33 63.548C131.714 63.14 132.17 62.822 132.698 62.594C133.238 62.366 133.838 62.252 134.498 62.252C135.074 62.252 135.632 62.378 136.172 62.63C136.724 62.882 137.156 63.236 137.468 63.692H137.504V62.468H139.124V70.928ZM134.696 63.764C134.264 63.764 133.874 63.842 133.526 63.998C133.178 64.142 132.884 64.346 132.644 64.61C132.404 64.862 132.218 65.174 132.086 65.546C131.954 65.906 131.888 66.302 131.888 66.734C131.888 67.598 132.14 68.294 132.644 68.822C133.148 69.338 133.832 69.596 134.696 69.596C135.56 69.596 136.244 69.338 136.748 68.822C137.252 68.294 137.504 67.598 137.504 66.734C137.504 66.302 137.438 65.906 137.306 65.546C137.174 65.174 136.988 64.862 136.748 64.61C136.508 64.346 136.214 64.142 135.866 63.998C135.518 63.842 135.128 63.764 134.696 63.764ZM142.802 67.328C142.802 67.7 142.88 68.042 143.036 68.354C143.204 68.654 143.42 68.912 143.684 69.128C143.948 69.344 144.254 69.512 144.602 69.632C144.95 69.752 145.31 69.812 145.682 69.812C146.186 69.812 146.624 69.698 146.996 69.47C147.368 69.23 147.71 68.918 148.022 68.534L149.246 69.47C148.346 70.634 147.086 71.216 145.466 71.216C144.794 71.216 144.182 71.102 143.63 70.874C143.09 70.646 142.628 70.334 142.244 69.938C141.872 69.53 141.584 69.056 141.38 68.516C141.176 67.964 141.074 67.37 141.074 66.734C141.074 66.098 141.182 65.51 141.398 64.97C141.626 64.418 141.932 63.944 142.316 63.548C142.712 63.14 143.18 62.822 143.72 62.594C144.26 62.366 144.848 62.252 145.484 62.252C146.24 62.252 146.876 62.384 147.392 62.648C147.92 62.912 148.352 63.26 148.688 63.692C149.024 64.112 149.264 64.592 149.408 65.132C149.564 65.66 149.642 66.2 149.642 66.752V67.328H142.802ZM147.914 66.032C147.902 65.672 147.842 65.342 147.734 65.042C147.638 64.742 147.488 64.484 147.284 64.268C147.08 64.04 146.822 63.866 146.51 63.746C146.21 63.614 145.856 63.548 145.448 63.548C145.052 63.548 144.686 63.626 144.35 63.782C144.026 63.926 143.75 64.118 143.522 64.358C143.294 64.598 143.114 64.868 142.982 65.168C142.862 65.456 142.802 65.744 142.802 66.032H147.914Z" fill="white"/>
</g>
<defs>
<filter id="filter0_d" x="0" y="0" width="230" height="112" filterUnits="userSpaceOnUse" color-interpolation-filters="sRGB">
<feFlood flood-opacity="0" result="BackgroundImageFix"/>
<feColorMatrix in="SourceAlpha" type="matrix" values="0 0 0 0 0 0 0 0 0 0 0 0 0 0 0 0 0 0 127 0"/>
<feOffset dy="4"/>
<feGaussianBlur stdDeviation="2"/>
<feColorMatrix type="matrix" values="0 0 0 0 0 0 0 0 0 0 0 0 0 0 0 0 0 0 0.25 0"/>
<feBlend mode="normal" in2="BackgroundImageFix" result="effect1_dropShadow"/>
<feBlend mode="normal" in="SourceGraphic" in2="effect1_dropShadow" result="shape"/>
</filter>
</defs>
</svg>
