<svg width="230" height="112" viewBox="0 0 230 112" fill="none" xmlns="http://www.w3.org/2000/svg">
<g filter="url(#filter0_d)">
<path d="M43.9428 0L226 0L185.751 104H4L43.9428 0Z" fill="#174158"/>
<path d="M59.638 33.2561H61.366V38.5481H67.972V33.2561H69.7V46.0001H67.972V40.1681H61.366V46.0001H59.638V33.2561Z" fill="white"/>
<path d="M73.7898 42.3281C73.7898 42.7001 73.8678 43.0421 74.0238 43.3541C74.1918 43.6541 74.4078 43.9121 74.6718 44.1281C74.9358 44.3441 75.2418 44.5121 75.5898 44.6321C75.9378 44.7521 76.2978 44.8121 76.6698 44.8121C77.1738 44.8121 77.6118 44.6981 77.9838 44.4701C78.3558 44.2301 78.6978 43.9181 79.0098 43.5341L80.2338 44.4701C79.3338 45.6341 78.0738 46.2161 76.4538 46.2161C75.7818 46.2161 75.1698 46.1021 74.6178 45.8741C74.0778 45.6461 73.6158 45.3341 73.2318 44.9381C72.8598 44.5301 72.5718 44.0561 72.3678 43.5161C72.1638 42.9641 72.0618 42.3701 72.0618 41.7341C72.0618 41.0981 72.1698 40.5101 72.3858 39.9701C72.6138 39.4181 72.9198 38.9441 73.3038 38.5481C73.6998 38.1401 74.1678 37.8221 74.7078 37.5941C75.2478 37.3661 75.8358 37.2521 76.4718 37.2521C77.2278 37.2521 77.8638 37.3841 78.3798 37.6481C78.9078 37.9121 79.3398 38.2601 79.6758 38.6921C80.0118 39.1121 80.2518 39.5921 80.3958 40.1321C80.5518 40.6601 80.6298 41.2001 80.6298 41.7521V42.3281H73.7898ZM78.9018 41.0321C78.8898 40.6721 78.8298 40.3421 78.7218 40.0421C78.6258 39.7421 78.4758 39.4841 78.2718 39.2681C78.0678 39.0401 77.8098 38.8661 77.4978 38.7461C77.1978 38.6141 76.8438 38.5481 76.4358 38.5481C76.0398 38.5481 75.6738 38.6261 75.3378 38.7821C75.0138 38.9261 74.7378 39.1181 74.5098 39.3581C74.2818 39.5981 74.1018 39.8681 73.9698 40.1681C73.8498 40.4561 73.7898 40.7441 73.7898 41.0321H78.9018Z" fill="white"/>
<path d="M82.6038 38.5121C83.0598 38.0921 83.5877 37.7801 84.1877 37.5761C84.7877 37.3601 85.3878 37.2521 85.9878 37.2521C86.6118 37.2521 87.1458 37.3301 87.5898 37.4861C88.0458 37.6421 88.4177 37.8521 88.7057 38.1161C88.9937 38.3801 89.2038 38.6861 89.3358 39.0341C89.4798 39.3701 89.5518 39.7241 89.5518 40.0961V44.4521C89.5518 44.7521 89.5577 45.0281 89.5697 45.2801C89.5818 45.5321 89.5998 45.7721 89.6238 46.0001H88.1838C88.1477 45.5681 88.1297 45.1361 88.1297 44.7041H88.0938C87.7337 45.2561 87.3078 45.6461 86.8158 45.8741C86.3238 46.1021 85.7538 46.2161 85.1058 46.2161C84.7098 46.2161 84.3318 46.1621 83.9718 46.0541C83.6118 45.9461 83.2937 45.7841 83.0177 45.5681C82.7537 45.3521 82.5438 45.0881 82.3878 44.7761C82.2318 44.4521 82.1537 44.0801 82.1537 43.6601C82.1537 43.1081 82.2738 42.6461 82.5138 42.2741C82.7658 41.9021 83.1017 41.6021 83.5217 41.3741C83.9537 41.1341 84.4518 40.9661 85.0158 40.8701C85.5918 40.7621 86.2038 40.7081 86.8518 40.7081H88.0398V40.3481C88.0398 40.1321 87.9977 39.9161 87.9137 39.7001C87.8297 39.4841 87.7037 39.2921 87.5357 39.1241C87.3677 38.9441 87.1578 38.8061 86.9058 38.7101C86.6538 38.6021 86.3538 38.5481 86.0058 38.5481C85.6938 38.5481 85.4177 38.5781 85.1777 38.6381C84.9497 38.6981 84.7398 38.7761 84.5478 38.8721C84.3558 38.9561 84.1817 39.0581 84.0257 39.1781C83.8697 39.2981 83.7198 39.4121 83.5758 39.5201L82.6038 38.5121ZM87.1758 41.8961C86.7918 41.8961 86.3958 41.9201 85.9878 41.9681C85.5918 42.0041 85.2257 42.0821 84.8897 42.2021C84.5657 42.3221 84.2957 42.4901 84.0798 42.7061C83.8758 42.9221 83.7738 43.1981 83.7738 43.5341C83.7738 44.0261 83.9358 44.3801 84.2598 44.5961C84.5958 44.8121 85.0458 44.9201 85.6098 44.9201C86.0538 44.9201 86.4317 44.8481 86.7437 44.7041C87.0557 44.5481 87.3078 44.3501 87.4998 44.1101C87.6918 43.8701 87.8297 43.6061 87.9137 43.3181C87.9977 43.0181 88.0398 42.7241 88.0398 42.4361V41.8961H87.1758Z" fill="white"/>
<path d="M92.0277 32.3921H93.6477V46.0001H92.0277V32.3921Z" fill="white"/>
<path d="M100.798 38.8721H98.476V42.7421C98.476 42.9821 98.482 43.2221 98.494 43.4621C98.506 43.6901 98.548 43.9001 98.62 44.0921C98.704 44.2721 98.824 44.4221 98.98 44.5421C99.148 44.6501 99.388 44.7041 99.7 44.7041C99.892 44.7041 100.09 44.6861 100.294 44.6501C100.498 44.6141 100.684 44.5481 100.852 44.4521V45.9281C100.66 46.0361 100.408 46.1081 100.096 46.1441C99.796 46.1921 99.562 46.2161 99.394 46.2161C98.77 46.2161 98.284 46.1321 97.936 45.9641C97.6 45.7841 97.348 45.5561 97.18 45.2801C97.024 45.0041 96.928 44.6981 96.892 44.3621C96.868 44.0141 96.856 43.6661 96.856 43.3181V38.8721H94.984V37.4681H96.856V35.0741H98.476V37.4681H100.798V38.8721Z" fill="white"/>
<path d="M102.888 32.3921H104.508V38.7821H104.544C104.748 38.3261 105.102 37.9601 105.606 37.6841C106.11 37.3961 106.692 37.2521 107.352 37.2521C107.76 37.2521 108.15 37.3181 108.522 37.4501C108.906 37.5701 109.236 37.7621 109.512 38.0261C109.8 38.2901 110.028 38.6321 110.196 39.0521C110.364 39.4601 110.448 39.9461 110.448 40.5101V46.0001H108.828V40.9601C108.828 40.5641 108.774 40.2281 108.666 39.9521C108.558 39.6641 108.414 39.4361 108.234 39.2681C108.054 39.0881 107.844 38.9621 107.604 38.8901C107.376 38.8061 107.136 38.7641 106.884 38.7641C106.548 38.7641 106.236 38.8181 105.948 38.9261C105.66 39.0341 105.408 39.2081 105.192 39.4481C104.976 39.6761 104.808 39.9701 104.688 40.3301C104.568 40.6901 104.508 41.1161 104.508 41.6081V46.0001H102.888V32.3921Z" fill="white"/>
<path d="M118.992 39.7361C118.692 39.4241 118.374 39.1901 118.038 39.0341C117.714 38.8661 117.324 38.7821 116.868 38.7821C116.424 38.7821 116.034 38.8661 115.698 39.0341C115.374 39.1901 115.098 39.4121 114.87 39.7001C114.654 39.9761 114.486 40.3001 114.366 40.6721C114.258 41.0321 114.204 41.4101 114.204 41.8061C114.204 42.2021 114.27 42.5801 114.402 42.9401C114.534 43.2881 114.72 43.5941 114.96 43.8581C115.2 44.1221 115.488 44.3321 115.824 44.4881C116.16 44.6321 116.538 44.7041 116.958 44.7041C117.414 44.7041 117.804 44.6261 118.128 44.4701C118.452 44.3021 118.752 44.0621 119.028 43.7501L120.18 44.9021C119.76 45.3701 119.268 45.7061 118.704 45.9101C118.152 46.1141 117.564 46.2161 116.94 46.2161C116.28 46.2161 115.674 46.1081 115.122 45.8921C114.582 45.6761 114.114 45.3761 113.718 44.9921C113.322 44.5961 113.016 44.1281 112.8 43.5881C112.584 43.0361 112.476 42.4301 112.476 41.7701C112.476 41.1101 112.584 40.5041 112.8 39.9521C113.016 39.4001 113.316 38.9261 113.7 38.5301C114.096 38.1341 114.564 37.8281 115.104 37.6121C115.656 37.3841 116.268 37.2701 116.94 37.2701C117.564 37.2701 118.158 37.3841 118.722 37.6121C119.298 37.8281 119.796 38.1641 120.216 38.6201L118.992 39.7361Z" fill="white"/>
<path d="M121.61 38.5121C122.066 38.0921 122.594 37.7801 123.194 37.5761C123.794 37.3601 124.394 37.2521 124.994 37.2521C125.618 37.2521 126.152 37.3301 126.596 37.4861C127.052 37.6421 127.424 37.8521 127.712 38.1161C128 38.3801 128.21 38.6861 128.342 39.0341C128.486 39.3701 128.558 39.7241 128.558 40.0961V44.4521C128.558 44.7521 128.564 45.0281 128.576 45.2801C128.588 45.5321 128.606 45.7721 128.63 46.0001H127.19C127.154 45.5681 127.136 45.1361 127.136 44.7041H127.1C126.74 45.2561 126.314 45.6461 125.822 45.8741C125.33 46.1021 124.76 46.2161 124.112 46.2161C123.716 46.2161 123.338 46.1621 122.978 46.0541C122.618 45.9461 122.3 45.7841 122.024 45.5681C121.76 45.3521 121.55 45.0881 121.394 44.7761C121.238 44.4521 121.16 44.0801 121.16 43.6601C121.16 43.1081 121.28 42.6461 121.52 42.2741C121.772 41.9021 122.108 41.6021 122.528 41.3741C122.96 41.1341 123.458 40.9661 124.022 40.8701C124.598 40.7621 125.21 40.7081 125.858 40.7081H127.046V40.3481C127.046 40.1321 127.004 39.9161 126.92 39.7001C126.836 39.4841 126.71 39.2921 126.542 39.1241C126.374 38.9441 126.164 38.8061 125.912 38.7101C125.66 38.6021 125.36 38.5481 125.012 38.5481C124.7 38.5481 124.424 38.5781 124.184 38.6381C123.956 38.6981 123.746 38.7761 123.554 38.8721C123.362 38.9561 123.188 39.0581 123.032 39.1781C122.876 39.2981 122.726 39.4121 122.582 39.5201L121.61 38.5121ZM126.182 41.8961C125.798 41.8961 125.402 41.9201 124.994 41.9681C124.598 42.0041 124.232 42.0821 123.896 42.2021C123.572 42.3221 123.302 42.4901 123.086 42.7061C122.882 42.9221 122.78 43.1981 122.78 43.5341C122.78 44.0261 122.942 44.3801 123.266 44.5961C123.602 44.8121 124.052 44.9201 124.616 44.9201C125.06 44.9201 125.438 44.8481 125.75 44.7041C126.062 44.5481 126.314 44.3501 126.506 44.1101C126.698 43.8701 126.836 43.6061 126.92 43.3181C127.004 43.0181 127.046 42.7241 127.046 42.4361V41.8961H126.182Z" fill="white"/>
<path d="M130.908 37.4681H132.528V38.7821H132.564C132.672 38.5541 132.816 38.3501 132.996 38.1701C133.176 37.9781 133.374 37.8161 133.59 37.6841C133.818 37.5521 134.064 37.4501 134.328 37.3781C134.592 37.2941 134.856 37.2521 135.12 37.2521C135.384 37.2521 135.624 37.2881 135.84 37.3601L135.768 39.1061C135.636 39.0701 135.504 39.0401 135.372 39.0161C135.24 38.9921 135.108 38.9801 134.976 38.9801C134.184 38.9801 133.578 39.2021 133.158 39.6461C132.738 40.0901 132.528 40.7801 132.528 41.7161V46.0001H130.908V37.4681Z" fill="white"/>
<path d="M138.477 42.3281C138.477 42.7001 138.555 43.0421 138.711 43.3541C138.879 43.6541 139.095 43.9121 139.359 44.1281C139.623 44.3441 139.929 44.5121 140.277 44.6321C140.625 44.7521 140.985 44.8121 141.357 44.8121C141.861 44.8121 142.299 44.6981 142.671 44.4701C143.043 44.2301 143.385 43.9181 143.697 43.5341L144.921 44.4701C144.021 45.6341 142.761 46.2161 141.141 46.2161C140.469 46.2161 139.857 46.1021 139.305 45.8741C138.765 45.6461 138.303 45.3341 137.919 44.9381C137.547 44.5301 137.259 44.0561 137.055 43.5161C136.851 42.9641 136.749 42.3701 136.749 41.7341C136.749 41.0981 136.857 40.5101 137.073 39.9701C137.301 39.4181 137.607 38.9441 137.991 38.5481C138.387 38.1401 138.855 37.8221 139.395 37.5941C139.935 37.3661 140.523 37.2521 141.159 37.2521C141.915 37.2521 142.551 37.3841 143.067 37.6481C143.595 37.9121 144.027 38.2601 144.363 38.6921C144.699 39.1121 144.939 39.5921 145.083 40.1321C145.239 40.6601 145.317 41.2001 145.317 41.7521V42.3281H138.477ZM143.589 41.0321C143.577 40.6721 143.517 40.3421 143.409 40.0421C143.313 39.7421 143.163 39.4841 142.959 39.2681C142.755 39.0401 142.497 38.8661 142.185 38.7461C141.885 38.6141 141.531 38.5481 141.123 38.5481C140.727 38.5481 140.361 38.6261 140.025 38.7821C139.701 38.9261 139.425 39.1181 139.197 39.3581C138.969 39.5981 138.789 39.8681 138.657 40.1681C138.537 40.4561 138.477 40.7441 138.477 41.0321H143.589Z" fill="white"/>
<path d="M59.638 58.2561H61.366V63.7641H61.51L67.144 58.2561H69.556L63.4 64.1421L69.97 71.0001H67.45L61.51 64.6281H61.366V71.0001H59.638V58.2561Z" fill="white"/>
<path d="M70.8959 62.4681H72.5159V63.7821H72.5519C72.7559 63.3261 73.1099 62.9601 73.6139 62.6841C74.1179 62.3961 74.6999 62.2521 75.3599 62.2521C75.7679 62.2521 76.1579 62.3181 76.5299 62.4501C76.9139 62.5701 77.2439 62.7621 77.5199 63.0261C77.8079 63.2901 78.0359 63.6321 78.2039 64.0521C78.3719 64.4601 78.4559 64.9461 78.4559 65.5101V71.0001H76.8359V65.9601C76.8359 65.5641 76.7819 65.2281 76.6739 64.9521C76.5659 64.6641 76.4219 64.4361 76.2419 64.2681C76.0619 64.0881 75.8519 63.9621 75.6119 63.8901C75.3839 63.8061 75.1439 63.7641 74.8919 63.7641C74.5559 63.7641 74.2439 63.8181 73.9559 63.9261C73.6679 64.0341 73.4159 64.2081 73.1999 64.4481C72.9839 64.6761 72.8159 64.9701 72.6959 65.3301C72.5759 65.6901 72.5159 66.1161 72.5159 66.6081V71.0001H70.8959V62.4681Z" fill="white"/>
<path d="M82.2118 66.7341C82.2118 67.1661 82.2778 67.5681 82.4098 67.9401C82.5418 68.3001 82.7278 68.6121 82.9678 68.8761C83.2078 69.1281 83.5018 69.3321 83.8498 69.4881C84.1978 69.6321 84.5878 69.7041 85.0198 69.7041C85.4518 69.7041 85.8418 69.6321 86.1898 69.4881C86.5378 69.3321 86.8318 69.1281 87.0718 68.8761C87.3118 68.6121 87.4978 68.3001 87.6298 67.9401C87.7618 67.5681 87.8278 67.1661 87.8278 66.7341C87.8278 66.3021 87.7618 65.9061 87.6298 65.5461C87.4978 65.1741 87.3118 64.8621 87.0718 64.6101C86.8318 64.3461 86.5378 64.1421 86.1898 63.9981C85.8418 63.8421 85.4518 63.7641 85.0198 63.7641C84.5878 63.7641 84.1978 63.8421 83.8498 63.9981C83.5018 64.1421 83.2078 64.3461 82.9678 64.6101C82.7278 64.8621 82.5418 65.1741 82.4098 65.5461C82.2778 65.9061 82.2118 66.3021 82.2118 66.7341ZM80.4838 66.7341C80.4838 66.1101 80.5978 65.5281 80.8258 64.9881C81.0658 64.4481 81.3898 63.9741 81.7978 63.5661C82.2058 63.1581 82.6858 62.8401 83.2378 62.6121C83.7898 62.3721 84.3838 62.2521 85.0198 62.2521C85.6558 62.2521 86.2498 62.3721 86.8018 62.6121C87.3538 62.8401 87.8338 63.1581 88.2418 63.5661C88.6498 63.9741 88.9678 64.4481 89.1958 64.9881C89.4358 65.5281 89.5558 66.1101 89.5558 66.7341C89.5558 67.3581 89.4358 67.9461 89.1958 68.4981C88.9678 69.0381 88.6498 69.5121 88.2418 69.9201C87.8338 70.3161 87.3538 70.6341 86.8018 70.8741C86.2498 71.1021 85.6558 71.2161 85.0198 71.2161C84.3838 71.2161 83.7898 71.1021 83.2378 70.8741C82.6858 70.6341 82.2058 70.3161 81.7978 69.9201C81.3898 69.5121 81.0658 69.0381 80.8258 68.4981C80.5978 67.9461 80.4838 67.3581 80.4838 66.7341Z" fill="white"/>
<path d="M90.5593 62.4681H92.3773L94.3033 68.8401H94.3393L96.3733 62.4681H98.0833L100.243 68.8401H100.279L102.115 62.4681H103.825L101.071 71.0001H99.4333L97.1833 64.6281H97.1473L95.1133 71.0001H93.3673L90.5593 62.4681Z" fill="white"/>
<path d="M105.37 57.3921H106.99V71.0001H105.37V57.3921Z" fill="white"/>
<path d="M110.792 67.3281C110.792 67.7001 110.87 68.0421 111.026 68.3541C111.194 68.6541 111.41 68.9121 111.674 69.1281C111.938 69.3441 112.244 69.5121 112.592 69.6321C112.94 69.7521 113.3 69.8121 113.672 69.8121C114.176 69.8121 114.614 69.6981 114.986 69.4701C115.358 69.2301 115.7 68.9181 116.012 68.5341L117.236 69.4701C116.336 70.6341 115.076 71.2161 113.456 71.2161C112.784 71.2161 112.172 71.1021 111.62 70.8741C111.08 70.6461 110.618 70.3341 110.234 69.9381C109.862 69.5301 109.574 69.0561 109.37 68.5161C109.166 67.9641 109.064 67.3701 109.064 66.7341C109.064 66.0981 109.172 65.5101 109.388 64.9701C109.616 64.4181 109.922 63.9441 110.306 63.5481C110.702 63.1401 111.17 62.8221 111.71 62.5941C112.25 62.3661 112.838 62.2521 113.474 62.2521C114.23 62.2521 114.866 62.3841 115.382 62.6481C115.91 62.9121 116.342 63.2601 116.678 63.6921C117.014 64.1121 117.254 64.5921 117.398 65.1321C117.554 65.6601 117.632 66.2001 117.632 66.7521V67.3281H110.792ZM115.904 66.0321C115.892 65.6721 115.832 65.3421 115.724 65.0421C115.628 64.7421 115.478 64.4841 115.274 64.2681C115.07 64.0401 114.812 63.8661 114.5 63.7461C114.2 63.6141 113.846 63.5481 113.438 63.5481C113.042 63.5481 112.676 63.6261 112.34 63.7821C112.016 63.9261 111.74 64.1181 111.512 64.3581C111.284 64.5981 111.104 64.8681 110.972 65.1681C110.852 65.4561 110.792 65.7441 110.792 66.0321H115.904Z" fill="white"/>
<path d="M128.12 71.0001H126.5V69.7761H126.464C126.152 70.2321 125.72 70.5861 125.168 70.8381C124.628 71.0901 124.07 71.2161 123.494 71.2161C122.834 71.2161 122.234 71.1021 121.694 70.8741C121.166 70.6461 120.71 70.3281 120.326 69.9201C119.954 69.5121 119.666 69.0381 119.462 68.4981C119.258 67.9581 119.156 67.3701 119.156 66.7341C119.156 66.0981 119.258 65.5101 119.462 64.9701C119.666 64.4181 119.954 63.9441 120.326 63.5481C120.71 63.1401 121.166 62.8221 121.694 62.5941C122.234 62.3661 122.834 62.2521 123.494 62.2521C124.106 62.2521 124.682 62.3841 125.222 62.6481C125.762 62.9001 126.176 63.2481 126.464 63.6921H126.5V57.3921H128.12V71.0001ZM123.692 69.7041C124.124 69.7041 124.514 69.6321 124.862 69.4881C125.21 69.3321 125.504 69.1281 125.744 68.8761C125.984 68.6121 126.17 68.3001 126.302 67.9401C126.434 67.5681 126.5 67.1661 126.5 66.7341C126.5 66.3021 126.434 65.9061 126.302 65.5461C126.17 65.1741 125.984 64.8621 125.744 64.6101C125.504 64.3461 125.21 64.1421 124.862 63.9981C124.514 63.8421 124.124 63.7641 123.692 63.7641C123.26 63.7641 122.87 63.8421 122.522 63.9981C122.174 64.1421 121.88 64.3461 121.64 64.6101C121.4 64.8621 121.214 65.1741 121.082 65.5461C120.95 65.9061 120.884 66.3021 120.884 66.7341C120.884 67.1661 120.95 67.5681 121.082 67.9401C121.214 68.3001 121.4 68.6121 121.64 68.8761C121.88 69.1281 122.174 69.3321 122.522 69.4881C122.87 69.6321 123.26 69.7041 123.692 69.7041Z" fill="white"/>
<path d="M139.124 70.9281C139.124 71.5761 139.01 72.1641 138.782 72.6921C138.566 73.2321 138.254 73.6941 137.846 74.0781C137.438 74.4741 136.946 74.7801 136.37 74.9961C135.794 75.2121 135.158 75.3201 134.462 75.3201C133.646 75.3201 132.896 75.2061 132.212 74.9781C131.54 74.7501 130.898 74.3541 130.286 73.7901L131.384 72.4221C131.804 72.8781 132.26 73.2201 132.752 73.4481C133.244 73.6881 133.802 73.8081 134.426 73.8081C135.026 73.8081 135.524 73.7181 135.92 73.5381C136.316 73.3701 136.628 73.1481 136.856 72.8721C137.096 72.5961 137.264 72.2781 137.36 71.9181C137.456 71.5701 137.504 71.2161 137.504 70.8561V69.5961H137.45C137.138 70.1121 136.712 70.4961 136.172 70.7481C135.644 70.9881 135.086 71.1081 134.498 71.1081C133.874 71.1081 133.292 71.0001 132.752 70.7841C132.224 70.5561 131.768 70.2501 131.384 69.8661C131 69.4701 130.7 69.0081 130.484 68.4801C130.268 67.9401 130.16 67.3581 130.16 66.7341C130.16 66.1101 130.262 65.5281 130.466 64.9881C130.67 64.4361 130.958 63.9561 131.33 63.5481C131.714 63.1401 132.17 62.8221 132.698 62.5941C133.238 62.3661 133.838 62.2521 134.498 62.2521C135.074 62.2521 135.632 62.3781 136.172 62.6301C136.724 62.8821 137.156 63.2361 137.468 63.6921H137.504V62.4681H139.124V70.9281ZM134.696 63.7641C134.264 63.7641 133.874 63.8421 133.526 63.9981C133.178 64.1421 132.884 64.3461 132.644 64.6101C132.404 64.8621 132.218 65.1741 132.086 65.5461C131.954 65.9061 131.888 66.3021 131.888 66.7341C131.888 67.5981 132.14 68.2941 132.644 68.8221C133.148 69.3381 133.832 69.5961 134.696 69.5961C135.56 69.5961 136.244 69.3381 136.748 68.8221C137.252 68.2941 137.504 67.5981 137.504 66.7341C137.504 66.3021 137.438 65.9061 137.306 65.5461C137.174 65.1741 136.988 64.8621 136.748 64.6101C136.508 64.3461 136.214 64.1421 135.866 63.9981C135.518 63.8421 135.128 63.7641 134.696 63.7641Z" fill="white"/>
<path d="M142.802 67.3281C142.802 67.7001 142.88 68.0421 143.036 68.3541C143.204 68.6541 143.42 68.9121 143.684 69.1281C143.948 69.3441 144.254 69.5121 144.602 69.6321C144.95 69.7521 145.31 69.8121 145.682 69.8121C146.186 69.8121 146.624 69.6981 146.996 69.4701C147.368 69.2301 147.71 68.9181 148.022 68.5341L149.246 69.4701C148.346 70.6341 147.086 71.2161 145.466 71.2161C144.794 71.2161 144.182 71.1021 143.63 70.8741C143.09 70.6461 142.628 70.3341 142.244 69.9381C141.872 69.5301 141.584 69.0561 141.38 68.5161C141.176 67.9641 141.074 67.3701 141.074 66.7341C141.074 66.0981 141.182 65.5101 141.398 64.9701C141.626 64.4181 141.932 63.9441 142.316 63.5481C142.712 63.1401 143.18 62.8221 143.72 62.5941C144.26 62.3661 144.848 62.2521 145.484 62.2521C146.24 62.2521 146.876 62.3841 147.392 62.6481C147.92 62.9121 148.352 63.2601 148.688 63.6921C149.024 64.1121 149.264 64.5921 149.408 65.1321C149.564 65.6601 149.642 66.2001 149.642 66.7521V67.3281H142.802ZM147.914 66.0321C147.902 65.6721 147.842 65.3421 147.734 65.0421C147.638 64.7421 147.488 64.4841 147.284 64.2681C147.08 64.0401 146.822 63.8661 146.51 63.7461C146.21 63.6141 145.856 63.5481 145.448 63.5481C145.052 63.5481 144.686 63.6261 144.35 63.7821C144.026 63.9261 143.75 64.1181 143.522 64.3581C143.294 64.5981 143.114 64.8681 142.982 65.1681C142.862 65.4561 142.802 65.7441 142.802 66.0321H147.914Z" fill="white"/>
</g>
<defs>
<filter id="filter0_d" x="0" y="0" width="230" height="112" filterUnits="userSpaceOnUse" color-interpolation-filters="sRGB">
<feFlood flood-opacity="0" result="BackgroundImageFix"/>
<feColorMatrix in="SourceAlpha" type="matrix" values="0 0 0 0 0 0 0 0 0 0 0 0 0 0 0 0 0 0 127 0"/>
<feOffset dy="4"/>
<feGaussianBlur stdDeviation="2"/>
<feColorMatrix type="matrix" values="0 0 0 0 0 0 0 0 0 0 0 0 0 0 0 0 0 0 0.25 0"/>
<feBlend mode="normal" in2="BackgroundImageFix" result="effect1_dropShadow"/>
<feBlend mode="normal" in="SourceGraphic" in2="effect1_dropShadow" result="shape"/>
</filter>
</defs>
</svg>
