<svg width="92" height="88" viewBox="0 0 92 88" fill="none" xmlns="http://www.w3.org/2000/svg">
<path d="M60.8093 31.4592H31.2784V56.3863H60.8093V31.4592Z" stroke="#E48514" stroke-width="3" stroke-miterlimit="10"/>
<path d="M36.2003 36.1172H55.8875" stroke="#E48514" stroke-width="2" stroke-miterlimit="10"/>
<path d="M46.0439 14.5894C49.5288 14.5894 52.3539 11.7712 52.3539 8.29471C52.3539 4.81824 49.5288 2 46.0439 2C42.559 2 39.7339 4.81824 39.7339 8.29471C39.7339 11.7712 42.559 14.5894 46.0439 14.5894Z" stroke="#E48514" stroke-width="3" stroke-miterlimit="10"/>
<path d="M46.0439 86.3492C49.5288 86.3492 52.3539 83.5309 52.3539 80.0545C52.3539 76.578 49.5288 73.7598 46.0439 73.7598C42.559 73.7598 39.7339 76.578 39.7339 80.0545C39.7339 83.5309 42.559 86.3492 46.0439 86.3492Z" stroke="#E48514" stroke-width="3" stroke-miterlimit="10"/>
<path d="M84.0302 34.8585C87.5151 34.8585 90.3402 32.0402 90.3402 28.5637C90.3402 25.0873 87.5151 22.269 84.0302 22.269C80.5452 22.269 77.7202 25.0873 77.7202 28.5637C77.7202 32.0402 80.5452 34.8585 84.0302 34.8585Z" stroke="#E48514" stroke-width="3" stroke-miterlimit="10"/>
<path d="M8.31001 34.8585C11.7949 34.8585 14.62 32.0402 14.62 28.5637C14.62 25.0873 11.7949 22.269 8.31001 22.269C4.82509 22.269 2 25.0873 2 28.5637C2 32.0402 4.82509 34.8585 8.31001 34.8585Z" stroke="#E48514" stroke-width="3" stroke-miterlimit="10"/>
<path d="M84.0302 66.9615C87.5151 66.9615 90.3402 64.1432 90.3402 60.6668C90.3402 57.1903 87.5151 54.3721 84.0302 54.3721C80.5452 54.3721 77.7202 57.1903 77.7202 60.6668C77.7202 64.1432 80.5452 66.9615 84.0302 66.9615Z" stroke="#E48514" stroke-width="3" stroke-miterlimit="10"/>
<path d="M8.31001 66.9615C11.7949 66.9615 14.62 64.1432 14.62 60.6668C14.62 57.1903 11.7949 54.3721 8.31001 54.3721C4.82509 54.3721 2 57.1903 2 60.6668C2 64.1432 4.82509 66.9615 8.31001 66.9615Z" stroke="#E48514" stroke-width="3" stroke-miterlimit="10"/>
<path d="M47.6845 18.3662H44.4033V21.6395H47.6845V18.3662Z" fill="#E48514"/>
<path d="M47.6845 24.6609H44.4033V27.9341H47.6845V24.6609Z" fill="#E48514"/>
<path d="M47.6845 59.9114H44.4033V63.1846H47.6845V59.9114Z" fill="#E48514"/>
<path d="M47.6845 66.2061H44.4033V69.4793H47.6845V66.2061Z" fill="#E48514"/>
<path d="M73.763 33.8139L72.2343 30.9177L69.3311 32.4427L70.8598 35.3389L73.763 33.8139Z" fill="#E48514"/>
<path d="M68.1682 36.6452L66.6395 33.749L63.7363 35.274L65.265 38.1702L68.1682 36.6452Z" fill="#E48514"/>
<path d="M19.9202 35.1833L21.4489 32.2871L18.5457 30.7621L17.017 33.6583L19.9202 35.1833Z" fill="#E48514"/>
<path d="M25.4921 38.2177L27.0208 35.3215L24.1176 33.7965L22.5889 36.6927L25.4921 38.2177Z" fill="#E48514"/>
<path d="M70.9632 52.5679L69.4345 55.4641L72.3377 56.9891L73.8664 54.0929L70.9632 52.5679Z" fill="#E48514"/>
<path d="M65.3684 49.7369L63.8397 52.6331L66.7429 54.1581L68.2716 51.2619L65.3684 49.7369Z" fill="#E48514"/>
<path d="M17.1205 54.1373L18.6492 57.0334L21.5524 55.5084L20.0237 52.6123L17.1205 54.1373Z" fill="#E48514"/>
<path d="M22.6922 51.1031L24.2209 53.9993L27.1241 52.4743L25.5954 49.5781L22.6922 51.1031Z" fill="#E48514"/>
</svg>
