<svg width="164" height="145" viewBox="0 0 164 145" fill="none" xmlns="http://www.w3.org/2000/svg">
<g filter="url(#filter0_d)">
<path d="M138.922 95.86L139.324 131.808L104.79 95.86H48.5725C38.5337 95.86 30.101 87.8717 30.101 77.4869V20.3702C30.101 10.3848 38.1321 1.99707 48.5725 1.99707H138.922C148.961 1.99707 157.394 9.98541 157.394 20.3702V77.8863C156.992 87.8717 148.961 95.86 138.922 95.86Z" fill="white"/>
<path d="M141.332 137L103.987 98.2566H48.5725C37.329 98.2566 28.0933 89.07 28.0933 77.8863V20.3703C28.0933 9.18659 37.329 0 48.5725 0H138.922C150.166 0 159.402 9.18659 159.402 20.3703V77.8863C159.402 88.2711 151.37 97.0583 140.93 97.8571L141.332 137ZM48.5725 3.99417C39.7383 3.99417 32.1088 11.1837 32.1088 20.3703V77.8863C32.1088 86.6735 39.3368 94.2624 48.5725 94.2624H105.593L136.915 127.015L136.513 94.2624H138.521C147.355 94.2624 154.984 87.0729 154.984 77.8863V20.3703C154.984 11.5831 147.756 3.99417 138.521 3.99417H48.5725Z" fill="#326668"/>
<path d="M17.2513 110.239L16.8497 131.808L37.7305 110.239H71.8627C77.886 110.239 83.1062 105.446 83.1062 99.0554V64.3061C83.1062 58.3149 78.2875 53.1224 71.8627 53.1224H17.2513C11.228 53.1224 6.00775 57.9154 6.00775 64.3061V99.0554C6.00775 105.047 10.8264 110.239 17.2513 110.239Z" fill="white"/>
<path d="M14.842 137L15.2435 111.837C8.81865 111.038 4 105.446 4 99.0554V64.3061C4 57.1166 10.0233 51.1254 17.2513 51.1254H71.8627C79.0907 51.1254 85.114 57.1166 85.114 64.3061V99.0554C85.114 106.245 79.0907 112.236 71.8627 112.236H38.5337L14.842 137ZM17.2513 55.1195C12.0311 55.1195 8.01554 59.1137 8.01554 64.3061V99.0554C8.01554 104.248 12.0311 108.242 17.2513 108.242H19.2591V127.015L37.329 108.242H72.2642C77.4845 108.242 81.5 104.248 81.5 99.0554V64.3061C81.5 59.1137 77.4845 55.1195 72.2642 55.1195H17.2513Z" fill="#326668"/>
</g>
<defs>
<filter id="filter0_d" x="0" y="0" width="163.402" height="145" filterUnits="userSpaceOnUse" color-interpolation-filters="sRGB">
<feFlood flood-opacity="0" result="BackgroundImageFix"/>
<feColorMatrix in="SourceAlpha" type="matrix" values="0 0 0 0 0 0 0 0 0 0 0 0 0 0 0 0 0 0 127 0"/>
<feOffset dy="4"/>
<feGaussianBlur stdDeviation="2"/>
<feColorMatrix type="matrix" values="0 0 0 0 0 0 0 0 0 0 0 0 0 0 0 0 0 0 0.25 0"/>
<feBlend mode="normal" in2="BackgroundImageFix" result="effect1_dropShadow"/>
<feBlend mode="normal" in="SourceGraphic" in2="effect1_dropShadow" result="shape"/>
</filter>
</defs>
</svg>
