<svg width="57" height="87" viewBox="0 0 57 87" fill="none" xmlns="http://www.w3.org/2000/svg">
<path d="M49.3317 59.944H18.8066V50.8616H49.4276V59.944H49.3317ZM21.6863 57.0759H46.5479V53.7297H21.6863V57.0759Z" fill="#E48514"/>
<path d="M56.339 87.0002H11.7033V78.3958H29.6536V73.52H21.3024C15.255 73.52 10.3594 71.6079 6.80778 67.7837C-0.391525 60.1354 0.184419 47.898 0.184419 47.3244C0.184419 23.0409 22.2623 22.6584 22.4543 22.6584V25.5266C21.6863 25.5266 3.06414 25.909 3.06414 47.42C3.06414 47.6112 2.4882 59.0837 8.91957 65.776C11.9913 68.931 16.1189 70.5563 21.3024 70.5563H32.5333V81.264H14.583V84.1321H53.4592V81.264H36.0849V60.1354H32.5333V66.6365H21.3024C17.3668 66.6365 14.1031 65.298 11.7033 62.8123C6.42381 57.3629 6.90377 48.0892 6.90377 47.7068C6.90377 42.1618 8.53561 37.7639 11.7033 34.609C16.5028 29.9244 22.9342 30.02 23.2222 30.02L23.1262 32.8881V31.4541V32.8881C23.0302 32.8881 17.5587 32.8881 13.6231 36.6167C11.1274 39.198 9.78349 42.9266 9.78349 47.7068C9.78349 47.898 9.39952 56.3112 13.8151 60.8046C15.7349 62.8123 18.2307 63.7683 21.3984 63.7683H29.7496V57.2673H39.0606V78.3958H56.435V87.0002H56.339Z" fill="#E48514"/>
<path d="M28.5017 46.3681L27.8297 43.022L24.854 43.5956L17.4627 6.4055L21.8783 5.54506L21.1104 1.52967L28.4057 0L29.2696 4.01538L34.0691 3.05934L41.4604 40.2495L38.5807 40.9187L39.2526 44.2648L28.5017 46.3681ZM30.0375 39.6758L30.7095 43.022L35.893 41.9703L35.221 38.6242L38.1967 38.0506L31.8613 6.4055L27.0618 7.36154L26.1979 3.34615L24.4701 3.72857L25.238 7.74396L20.8224 8.6044L27.1578 40.2495L30.0375 39.6758Z" fill="#E48514"/>
</svg>
