<svg width="319" height="266" viewBox="0 0 319 266" fill="none" xmlns="http://www.w3.org/2000/svg">
<path d="M10.332 125.004L10.224 122.124V118.164H13.572V122.124L13.428 125.004L16.2 124.788H20.124V128.172H16.2L13.428 128.064L13.572 130.872V135.048H10.224V130.872L10.332 128.064L7.056 128.172H3.672V124.788H7.056L10.332 125.004Z" fill="black"/>
<g filter="url(#filter0_d)">
<path d="M186 0L209.037 43.0229L250.5 17.2827L248.94 66.0604L297.717 64.5L271.977 105.963L315 129L271.977 152.037L297.717 193.5L248.94 191.94L250.5 240.717L209.037 214.977L186 258L162.963 214.977L121.5 240.717L123.06 191.94L74.2827 193.5L100.023 152.037L57 129L100.023 105.963L74.2827 64.5L123.06 66.0604L121.5 17.2827L162.963 43.0229L186 0Z" fill="#F0AD00"/>
</g>
<path d="M124.368 140.056C127.704 138.088 130.44 135.916 132.576 133.54C134.712 131.164 135.78 128.872 135.78 126.664C135.78 125.488 135.408 124.552 134.664 123.856C133.944 123.136 132.924 122.776 131.604 122.776C130.356 122.776 129.3 123.016 128.436 123.496C127.596 123.952 126.768 124.552 125.952 125.296L124.584 123.316C125.064 122.716 125.748 122.104 126.636 121.48C127.548 120.856 128.604 120.34 129.804 119.932C131.004 119.5 132.216 119.284 133.44 119.284C135.192 119.284 136.656 119.584 137.832 120.184C139.032 120.784 139.92 121.576 140.496 122.56C141.072 123.544 141.36 124.636 141.36 125.836C141.36 128.14 140.256 130.456 138.048 132.784C135.84 135.112 133.032 137.248 129.624 139.192L140.064 138.22L141.432 135.196L143.7 135.664L142.656 142H125.124L124.368 140.056ZM153.005 132.172L147.065 124.504L145.193 124.072V121.984H155.597V124.072L153.257 124.504L156.101 128.5L157.037 130.012L157.973 128.5L160.889 124.504L158.441 124.072V121.984H166.253V124.072L164.201 124.504L158.513 131.488L164.741 139.552L166.721 139.876V142H156.317V139.876L158.441 139.516L155.669 135.304L154.589 133.72L153.725 135.268L150.773 139.516L153.545 139.876V142H144.905V139.876L147.209 139.516L153.005 132.172Z" fill="black"/>
<path d="M114.488 107.324C113.516 107.324 112.622 107.156 111.806 106.82C110.99 106.472 110.288 105.998 109.7 105.398C109.124 104.798 108.668 104.09 108.332 103.274C108.008 102.458 107.846 101.576 107.846 100.628C107.846 99.68 108.008 98.798 108.332 97.982C108.668 97.166 109.124 96.458 109.7 95.858C110.288 95.258 110.99 94.79 111.806 94.454C112.622 94.106 113.516 93.932 114.488 93.932C115.46 93.932 116.354 94.106 117.17 94.454C117.986 94.79 118.682 95.258 119.258 95.858C119.846 96.458 120.302 97.166 120.626 97.982C120.962 98.798 121.13 99.68 121.13 100.628C121.13 101.576 120.962 102.458 120.626 103.274C120.302 104.09 119.846 104.798 119.258 105.398C118.682 105.998 117.986 106.472 117.17 106.82C116.354 107.156 115.46 107.324 114.488 107.324ZM114.488 105.704C115.22 105.704 115.88 105.572 116.468 105.308C117.056 105.032 117.56 104.666 117.98 104.21C118.4 103.754 118.724 103.22 118.952 102.608C119.18 101.984 119.294 101.324 119.294 100.628C119.294 99.932 119.18 99.278 118.952 98.666C118.724 98.042 118.4 97.502 117.98 97.046C117.56 96.59 117.056 96.23 116.468 95.966C115.88 95.69 115.22 95.552 114.488 95.552C113.756 95.552 113.096 95.69 112.508 95.966C111.92 96.23 111.416 96.59 110.996 97.046C110.576 97.502 110.252 98.042 110.024 98.666C109.796 99.278 109.682 99.932 109.682 100.628C109.682 101.324 109.796 101.984 110.024 102.608C110.252 103.22 110.576 103.754 110.996 104.21C111.416 104.666 111.92 105.032 112.508 105.308C113.096 105.572 113.756 105.704 114.488 105.704ZM123.201 98.468H124.821V99.692H124.857C125.169 99.236 125.595 98.882 126.135 98.63C126.687 98.378 127.251 98.252 127.827 98.252C128.487 98.252 129.081 98.366 129.609 98.594C130.149 98.822 130.605 99.14 130.977 99.548C131.361 99.956 131.655 100.436 131.859 100.988C132.063 101.528 132.165 102.11 132.165 102.734C132.165 103.37 132.063 103.964 131.859 104.516C131.655 105.056 131.361 105.53 130.977 105.938C130.605 106.334 130.149 106.646 129.609 106.874C129.081 107.102 128.487 107.216 127.827 107.216C127.215 107.216 126.639 107.09 126.099 106.838C125.559 106.574 125.145 106.22 124.857 105.776H124.821V112.076H123.201V98.468ZM127.629 99.764C127.197 99.764 126.807 99.842 126.459 99.998C126.111 100.142 125.817 100.346 125.577 100.61C125.337 100.862 125.151 101.174 125.019 101.546C124.887 101.906 124.821 102.302 124.821 102.734C124.821 103.166 124.887 103.568 125.019 103.94C125.151 104.3 125.337 104.612 125.577 104.876C125.817 105.128 126.111 105.332 126.459 105.488C126.807 105.632 127.197 105.704 127.629 105.704C128.061 105.704 128.451 105.632 128.799 105.488C129.147 105.332 129.441 105.128 129.681 104.876C129.921 104.612 130.107 104.3 130.239 103.94C130.371 103.568 130.437 103.166 130.437 102.734C130.437 102.302 130.371 101.906 130.239 101.546C130.107 101.174 129.921 100.862 129.681 100.61C129.441 100.346 129.147 100.142 128.799 99.998C128.451 99.842 128.061 99.764 127.629 99.764ZM138.776 99.872H136.454V103.742C136.454 103.982 136.46 104.222 136.472 104.462C136.484 104.69 136.526 104.9 136.598 105.092C136.682 105.272 136.802 105.422 136.958 105.542C137.126 105.65 137.366 105.704 137.678 105.704C137.87 105.704 138.068 105.686 138.272 105.65C138.476 105.614 138.662 105.548 138.83 105.452V106.928C138.638 107.036 138.386 107.108 138.074 107.144C137.774 107.192 137.54 107.216 137.372 107.216C136.748 107.216 136.262 107.132 135.914 106.964C135.578 106.784 135.326 106.556 135.158 106.28C135.002 106.004 134.906 105.698 134.87 105.362C134.846 105.014 134.834 104.666 134.834 104.318V99.872H132.962V98.468H134.834V96.074H136.454V98.468H138.776V99.872ZM140.993 98.468H142.613V107H140.993V98.468ZM140.615 95.408C140.615 95.084 140.729 94.808 140.957 94.58C141.197 94.34 141.479 94.22 141.803 94.22C142.127 94.22 142.403 94.34 142.631 94.58C142.871 94.808 142.991 95.084 142.991 95.408C142.991 95.732 142.871 96.014 142.631 96.254C142.403 96.482 142.127 96.596 141.803 96.596C141.479 96.596 141.197 96.482 140.957 96.254C140.729 96.014 140.615 95.732 140.615 95.408ZM145.191 98.468H146.703V99.8H146.739C146.775 99.68 146.865 99.53 147.009 99.35C147.165 99.17 147.357 99.002 147.585 98.846C147.825 98.678 148.101 98.54 148.413 98.432C148.737 98.312 149.091 98.252 149.475 98.252C150.111 98.252 150.645 98.384 151.077 98.648C151.509 98.912 151.863 99.308 152.139 99.836C152.415 99.308 152.805 98.912 153.309 98.648C153.813 98.384 154.323 98.252 154.839 98.252C155.499 98.252 156.039 98.36 156.459 98.576C156.879 98.792 157.209 99.08 157.449 99.44C157.689 99.788 157.851 100.19 157.935 100.646C158.031 101.09 158.079 101.552 158.079 102.032V107H156.459V102.248C156.459 101.924 156.435 101.612 156.387 101.312C156.351 101.012 156.267 100.748 156.135 100.52C156.003 100.292 155.817 100.112 155.577 99.98C155.337 99.836 155.019 99.764 154.623 99.764C153.843 99.764 153.285 100.004 152.949 100.484C152.613 100.964 152.445 101.582 152.445 102.338V107H150.825V102.536C150.825 102.128 150.801 101.756 150.753 101.42C150.717 101.084 150.633 100.796 150.501 100.556C150.381 100.304 150.201 100.112 149.961 99.98C149.733 99.836 149.421 99.764 149.025 99.764C148.737 99.764 148.455 99.824 148.179 99.944C147.915 100.052 147.681 100.22 147.477 100.448C147.273 100.676 147.111 100.97 146.991 101.33C146.871 101.678 146.811 102.092 146.811 102.572V107H145.191V98.468ZM160.645 98.468H162.265V107H160.645V98.468ZM160.267 95.408C160.267 95.084 160.381 94.808 160.609 94.58C160.849 94.34 161.131 94.22 161.455 94.22C161.779 94.22 162.055 94.34 162.283 94.58C162.523 94.808 162.643 95.084 162.643 95.408C162.643 95.732 162.523 96.014 162.283 96.254C162.055 96.482 161.779 96.596 161.455 96.596C161.131 96.596 160.849 96.482 160.609 96.254C160.381 96.014 160.267 95.732 160.267 95.408ZM164.249 105.542L169.091 99.872H164.411V98.468H171.071V99.908L166.193 105.596H171.323V107H164.249V105.542ZM174.399 103.328C174.399 103.7 174.477 104.042 174.633 104.354C174.801 104.654 175.017 104.912 175.281 105.128C175.545 105.344 175.851 105.512 176.199 105.632C176.547 105.752 176.907 105.812 177.279 105.812C177.783 105.812 178.221 105.698 178.593 105.47C178.965 105.23 179.307 104.918 179.619 104.534L180.843 105.47C179.943 106.634 178.683 107.216 177.063 107.216C176.391 107.216 175.779 107.102 175.227 106.874C174.687 106.646 174.225 106.334 173.841 105.938C173.469 105.53 173.181 105.056 172.977 104.516C172.773 103.964 172.671 103.37 172.671 102.734C172.671 102.098 172.779 101.51 172.995 100.97C173.223 100.418 173.529 99.944 173.913 99.548C174.309 99.14 174.777 98.822 175.317 98.594C175.857 98.366 176.445 98.252 177.081 98.252C177.837 98.252 178.473 98.384 178.989 98.648C179.517 98.912 179.949 99.26 180.285 99.692C180.621 100.112 180.861 100.592 181.005 101.132C181.161 101.66 181.239 102.2 181.239 102.752V103.328H174.399ZM179.511 102.032C179.499 101.672 179.439 101.342 179.331 101.042C179.235 100.742 179.085 100.484 178.881 100.268C178.677 100.04 178.419 99.866 178.107 99.746C177.807 99.614 177.453 99.548 177.045 99.548C176.649 99.548 176.283 99.626 175.947 99.782C175.623 99.926 175.347 100.118 175.119 100.358C174.891 100.598 174.711 100.868 174.579 101.168C174.459 101.456 174.399 101.744 174.399 102.032H179.511ZM191.727 107H190.107V105.776H190.071C189.759 106.232 189.327 106.586 188.775 106.838C188.235 107.09 187.677 107.216 187.101 107.216C186.441 107.216 185.841 107.102 185.301 106.874C184.773 106.646 184.317 106.328 183.933 105.92C183.561 105.512 183.273 105.038 183.069 104.498C182.865 103.958 182.763 103.37 182.763 102.734C182.763 102.098 182.865 101.51 183.069 100.97C183.273 100.418 183.561 99.944 183.933 99.548C184.317 99.14 184.773 98.822 185.301 98.594C185.841 98.366 186.441 98.252 187.101 98.252C187.713 98.252 188.289 98.384 188.829 98.648C189.369 98.9 189.783 99.248 190.071 99.692H190.107V93.392H191.727V107ZM187.299 105.704C187.731 105.704 188.121 105.632 188.469 105.488C188.817 105.332 189.111 105.128 189.351 104.876C189.591 104.612 189.777 104.3 189.909 103.94C190.041 103.568 190.107 103.166 190.107 102.734C190.107 102.302 190.041 101.906 189.909 101.546C189.777 101.174 189.591 100.862 189.351 100.61C189.111 100.346 188.817 100.142 188.469 99.998C188.121 99.842 187.731 99.764 187.299 99.764C186.867 99.764 186.477 99.842 186.129 99.998C185.781 100.142 185.487 100.346 185.247 100.61C185.007 100.862 184.821 101.174 184.689 101.546C184.557 101.906 184.491 102.302 184.491 102.734C184.491 103.166 184.557 103.568 184.689 103.94C184.821 104.3 185.007 104.612 185.247 104.876C185.487 105.128 185.781 105.332 186.129 105.488C186.477 105.632 186.867 105.704 187.299 105.704ZM203.727 100.61C203.535 100.37 203.295 100.172 203.007 100.016C202.731 99.848 202.389 99.764 201.981 99.764C201.597 99.764 201.261 99.848 200.973 100.016C200.697 100.172 200.559 100.406 200.559 100.718C200.559 100.97 200.637 101.174 200.793 101.33C200.961 101.486 201.153 101.612 201.369 101.708C201.597 101.804 201.837 101.876 202.089 101.924C202.341 101.972 202.557 102.014 202.737 102.05C203.085 102.134 203.409 102.236 203.709 102.356C204.021 102.476 204.285 102.632 204.501 102.824C204.729 103.016 204.903 103.25 205.023 103.526C205.155 103.802 205.221 104.138 205.221 104.534C205.221 105.014 205.119 105.428 204.915 105.776C204.711 106.112 204.447 106.388 204.123 106.604C203.799 106.82 203.427 106.976 203.007 107.072C202.599 107.168 202.185 107.216 201.765 107.216C201.057 107.216 200.433 107.108 199.893 106.892C199.365 106.676 198.891 106.28 198.471 105.704L199.695 104.696C199.959 104.96 200.253 105.194 200.577 105.398C200.901 105.602 201.297 105.704 201.765 105.704C201.969 105.704 202.173 105.686 202.377 105.65C202.593 105.602 202.779 105.536 202.935 105.452C203.103 105.356 203.235 105.242 203.331 105.11C203.439 104.966 203.493 104.804 203.493 104.624C203.493 104.384 203.415 104.186 203.259 104.03C203.115 103.874 202.935 103.754 202.719 103.67C202.515 103.574 202.293 103.502 202.053 103.454C201.825 103.394 201.621 103.346 201.441 103.31C201.093 103.226 200.763 103.13 200.451 103.022C200.139 102.914 199.863 102.77 199.623 102.59C199.383 102.41 199.191 102.182 199.047 101.906C198.903 101.63 198.831 101.288 198.831 100.88C198.831 100.436 198.921 100.052 199.101 99.728C199.293 99.392 199.539 99.116 199.839 98.9C200.151 98.684 200.499 98.522 200.883 98.414C201.279 98.306 201.675 98.252 202.071 98.252C202.647 98.252 203.199 98.36 203.727 98.576C204.255 98.792 204.675 99.152 204.987 99.656L203.727 100.61ZM211.761 99.872H209.439V103.742C209.439 103.982 209.445 104.222 209.457 104.462C209.469 104.69 209.511 104.9 209.583 105.092C209.667 105.272 209.787 105.422 209.943 105.542C210.111 105.65 210.351 105.704 210.663 105.704C210.855 105.704 211.053 105.686 211.257 105.65C211.461 105.614 211.647 105.548 211.815 105.452V106.928C211.623 107.036 211.371 107.108 211.059 107.144C210.759 107.192 210.525 107.216 210.357 107.216C209.733 107.216 209.247 107.132 208.899 106.964C208.563 106.784 208.311 106.556 208.143 106.28C207.987 106.004 207.891 105.698 207.855 105.362C207.831 105.014 207.819 104.666 207.819 104.318V99.872H205.947V98.468H207.819V96.074H209.439V98.468H211.761V99.872ZM213.887 99.512C214.343 99.092 214.871 98.78 215.471 98.576C216.071 98.36 216.671 98.252 217.271 98.252C217.895 98.252 218.429 98.33 218.873 98.486C219.329 98.642 219.701 98.852 219.989 99.116C220.277 99.38 220.487 99.686 220.619 100.034C220.763 100.37 220.835 100.724 220.835 101.096V105.452C220.835 105.752 220.841 106.028 220.853 106.28C220.865 106.532 220.883 106.772 220.907 107H219.467C219.431 106.568 219.413 106.136 219.413 105.704H219.377C219.017 106.256 218.591 106.646 218.099 106.874C217.607 107.102 217.037 107.216 216.389 107.216C215.993 107.216 215.615 107.162 215.255 107.054C214.895 106.946 214.577 106.784 214.301 106.568C214.037 106.352 213.827 106.088 213.671 105.776C213.515 105.452 213.437 105.08 213.437 104.66C213.437 104.108 213.557 103.646 213.797 103.274C214.049 102.902 214.385 102.602 214.805 102.374C215.237 102.134 215.735 101.966 216.299 101.87C216.875 101.762 217.487 101.708 218.135 101.708H219.323V101.348C219.323 101.132 219.281 100.916 219.197 100.7C219.113 100.484 218.987 100.292 218.819 100.124C218.651 99.944 218.441 99.806 218.189 99.71C217.937 99.602 217.637 99.548 217.289 99.548C216.977 99.548 216.701 99.578 216.461 99.638C216.233 99.698 216.023 99.776 215.831 99.872C215.639 99.956 215.465 100.058 215.309 100.178C215.153 100.298 215.003 100.412 214.859 100.52L213.887 99.512ZM218.459 102.896C218.075 102.896 217.679 102.92 217.271 102.968C216.875 103.004 216.509 103.082 216.173 103.202C215.849 103.322 215.579 103.49 215.363 103.706C215.159 103.922 215.057 104.198 215.057 104.534C215.057 105.026 215.219 105.38 215.543 105.596C215.879 105.812 216.329 105.92 216.893 105.92C217.337 105.92 217.715 105.848 218.027 105.704C218.339 105.548 218.591 105.35 218.783 105.11C218.975 104.87 219.113 104.606 219.197 104.318C219.281 104.018 219.323 103.724 219.323 103.436V102.896H218.459ZM223.815 99.872H221.979V98.468H223.815V96.56C223.815 95.42 224.031 94.574 224.463 94.022C224.907 93.458 225.663 93.176 226.731 93.176C226.911 93.176 227.097 93.182 227.289 93.194C227.493 93.206 227.709 93.242 227.937 93.302L227.757 94.742C227.601 94.682 227.451 94.64 227.307 94.616C227.163 94.592 227.007 94.58 226.839 94.58C226.539 94.58 226.299 94.628 226.119 94.724C225.939 94.808 225.795 94.934 225.687 95.102C225.591 95.27 225.525 95.474 225.489 95.714C225.465 95.942 225.453 96.206 225.453 96.506V98.468H227.379V99.872H225.435V107H223.815V99.872ZM229.493 99.872H227.657V98.468H229.493V96.56C229.493 95.42 229.709 94.574 230.141 94.022C230.585 93.458 231.341 93.176 232.409 93.176C232.589 93.176 232.775 93.182 232.967 93.194C233.171 93.206 233.387 93.242 233.615 93.302L233.435 94.742C233.279 94.682 233.129 94.64 232.985 94.616C232.841 94.592 232.685 94.58 232.517 94.58C232.217 94.58 231.977 94.628 231.797 94.724C231.617 94.808 231.473 94.934 231.365 95.102C231.269 95.27 231.203 95.474 231.167 95.714C231.143 95.942 231.131 96.206 231.131 96.506V98.468H233.057V99.872H231.113V107H229.493V99.872ZM234.983 98.468H236.603V107H234.983V98.468ZM234.605 95.408C234.605 95.084 234.719 94.808 234.947 94.58C235.187 94.34 235.469 94.22 235.793 94.22C236.117 94.22 236.393 94.34 236.621 94.58C236.861 94.808 236.981 95.084 236.981 95.408C236.981 95.732 236.861 96.014 236.621 96.254C236.393 96.482 236.117 96.596 235.793 96.596C235.469 96.596 235.187 96.482 234.947 96.254C234.719 96.014 234.605 95.732 234.605 95.408ZM239.181 98.468H240.801V99.782H240.837C241.041 99.326 241.395 98.96 241.899 98.684C242.403 98.396 242.985 98.252 243.645 98.252C244.053 98.252 244.443 98.318 244.815 98.45C245.199 98.57 245.529 98.762 245.805 99.026C246.093 99.29 246.321 99.632 246.489 100.052C246.657 100.46 246.741 100.946 246.741 101.51V107H245.121V101.96C245.121 101.564 245.067 101.228 244.959 100.952C244.851 100.664 244.707 100.436 244.527 100.268C244.347 100.088 244.137 99.962 243.897 99.89C243.669 99.806 243.429 99.764 243.177 99.764C242.841 99.764 242.529 99.818 242.241 99.926C241.953 100.034 241.701 100.208 241.485 100.448C241.269 100.676 241.101 100.97 240.981 101.33C240.861 101.69 240.801 102.116 240.801 102.608V107H239.181V98.468ZM257.733 106.928C257.733 107.576 257.619 108.164 257.391 108.692C257.175 109.232 256.863 109.694 256.455 110.078C256.047 110.474 255.555 110.78 254.979 110.996C254.403 111.212 253.767 111.32 253.071 111.32C252.255 111.32 251.505 111.206 250.821 110.978C250.149 110.75 249.507 110.354 248.895 109.79L249.993 108.422C250.413 108.878 250.869 109.22 251.361 109.448C251.853 109.688 252.411 109.808 253.035 109.808C253.635 109.808 254.133 109.718 254.529 109.538C254.925 109.37 255.237 109.148 255.465 108.872C255.705 108.596 255.873 108.278 255.969 107.918C256.065 107.57 256.113 107.216 256.113 106.856V105.596H256.059C255.747 106.112 255.321 106.496 254.781 106.748C254.253 106.988 253.695 107.108 253.107 107.108C252.483 107.108 251.901 107 251.361 106.784C250.833 106.556 250.377 106.25 249.993 105.866C249.609 105.47 249.309 105.008 249.093 104.48C248.877 103.94 248.769 103.358 248.769 102.734C248.769 102.11 248.871 101.528 249.075 100.988C249.279 100.436 249.567 99.956 249.939 99.548C250.323 99.14 250.779 98.822 251.307 98.594C251.847 98.366 252.447 98.252 253.107 98.252C253.683 98.252 254.241 98.378 254.781 98.63C255.333 98.882 255.765 99.236 256.077 99.692H256.113V98.468H257.733V106.928ZM253.305 99.764C252.873 99.764 252.483 99.842 252.135 99.998C251.787 100.142 251.493 100.346 251.253 100.61C251.013 100.862 250.827 101.174 250.695 101.546C250.563 101.906 250.497 102.302 250.497 102.734C250.497 103.598 250.749 104.294 251.253 104.822C251.757 105.338 252.441 105.596 253.305 105.596C254.169 105.596 254.853 105.338 255.357 104.822C255.861 104.294 256.113 103.598 256.113 102.734C256.113 102.302 256.047 101.906 255.915 101.546C255.783 101.174 255.597 100.862 255.357 100.61C255.117 100.346 254.823 100.142 254.475 99.998C254.127 99.842 253.737 99.764 253.305 99.764ZM108.224 158.468H109.844V159.782H109.88C109.988 159.554 110.132 159.35 110.312 159.17C110.492 158.978 110.69 158.816 110.906 158.684C111.134 158.552 111.38 158.45 111.644 158.378C111.908 158.294 112.172 158.252 112.436 158.252C112.7 158.252 112.94 158.288 113.156 158.36L113.084 160.106C112.952 160.07 112.82 160.04 112.688 160.016C112.556 159.992 112.424 159.98 112.292 159.98C111.5 159.98 110.894 160.202 110.474 160.646C110.054 161.09 109.844 161.78 109.844 162.716V167H108.224V158.468ZM114.922 159.512C115.378 159.092 115.906 158.78 116.506 158.576C117.106 158.36 117.706 158.252 118.306 158.252C118.93 158.252 119.464 158.33 119.908 158.486C120.364 158.642 120.736 158.852 121.024 159.116C121.312 159.38 121.522 159.686 121.654 160.034C121.798 160.37 121.87 160.724 121.87 161.096V165.452C121.87 165.752 121.876 166.028 121.888 166.28C121.9 166.532 121.918 166.772 121.942 167H120.502C120.466 166.568 120.448 166.136 120.448 165.704H120.412C120.052 166.256 119.626 166.646 119.134 166.874C118.642 167.102 118.072 167.216 117.424 167.216C117.028 167.216 116.65 167.162 116.29 167.054C115.93 166.946 115.612 166.784 115.336 166.568C115.072 166.352 114.862 166.088 114.706 165.776C114.55 165.452 114.472 165.08 114.472 164.66C114.472 164.108 114.592 163.646 114.832 163.274C115.084 162.902 115.42 162.602 115.84 162.374C116.272 162.134 116.77 161.966 117.334 161.87C117.91 161.762 118.522 161.708 119.17 161.708H120.358V161.348C120.358 161.132 120.316 160.916 120.232 160.7C120.148 160.484 120.022 160.292 119.854 160.124C119.686 159.944 119.476 159.806 119.224 159.71C118.972 159.602 118.672 159.548 118.324 159.548C118.012 159.548 117.736 159.578 117.496 159.638C117.268 159.698 117.058 159.776 116.866 159.872C116.674 159.956 116.5 160.058 116.344 160.178C116.188 160.298 116.038 160.412 115.894 160.52L114.922 159.512ZM119.494 162.896C119.11 162.896 118.714 162.92 118.306 162.968C117.91 163.004 117.544 163.082 117.208 163.202C116.884 163.322 116.614 163.49 116.398 163.706C116.194 163.922 116.092 164.198 116.092 164.534C116.092 165.026 116.254 165.38 116.578 165.596C116.914 165.812 117.364 165.92 117.928 165.92C118.372 165.92 118.75 165.848 119.062 165.704C119.374 165.548 119.626 165.35 119.818 165.11C120.01 164.87 120.148 164.606 120.232 164.318C120.316 164.018 120.358 163.724 120.358 163.436V162.896H119.494ZM128.792 159.872H126.47V163.742C126.47 163.982 126.476 164.222 126.488 164.462C126.5 164.69 126.542 164.9 126.614 165.092C126.698 165.272 126.818 165.422 126.974 165.542C127.142 165.65 127.382 165.704 127.694 165.704C127.886 165.704 128.084 165.686 128.288 165.65C128.492 165.614 128.678 165.548 128.846 165.452V166.928C128.654 167.036 128.402 167.108 128.09 167.144C127.79 167.192 127.556 167.216 127.388 167.216C126.764 167.216 126.278 167.132 125.93 166.964C125.594 166.784 125.342 166.556 125.174 166.28C125.018 166.004 124.922 165.698 124.886 165.362C124.862 165.014 124.85 164.666 124.85 164.318V159.872H122.978V158.468H124.85V156.074H126.47V158.468H128.792V159.872ZM131.008 158.468H132.628V167H131.008V158.468ZM130.63 155.408C130.63 155.084 130.744 154.808 130.972 154.58C131.212 154.34 131.494 154.22 131.818 154.22C132.142 154.22 132.418 154.34 132.646 154.58C132.886 154.808 133.006 155.084 133.006 155.408C133.006 155.732 132.886 156.014 132.646 156.254C132.418 156.482 132.142 156.596 131.818 156.596C131.494 156.596 131.212 156.482 130.972 156.254C130.744 156.014 130.63 155.732 130.63 155.408ZM136.52 162.734C136.52 163.166 136.586 163.568 136.718 163.94C136.85 164.3 137.036 164.612 137.276 164.876C137.516 165.128 137.81 165.332 138.158 165.488C138.506 165.632 138.896 165.704 139.328 165.704C139.76 165.704 140.15 165.632 140.498 165.488C140.846 165.332 141.14 165.128 141.38 164.876C141.62 164.612 141.806 164.3 141.938 163.94C142.07 163.568 142.136 163.166 142.136 162.734C142.136 162.302 142.07 161.906 141.938 161.546C141.806 161.174 141.62 160.862 141.38 160.61C141.14 160.346 140.846 160.142 140.498 159.998C140.15 159.842 139.76 159.764 139.328 159.764C138.896 159.764 138.506 159.842 138.158 159.998C137.81 160.142 137.516 160.346 137.276 160.61C137.036 160.862 136.85 161.174 136.718 161.546C136.586 161.906 136.52 162.302 136.52 162.734ZM134.792 162.734C134.792 162.11 134.906 161.528 135.134 160.988C135.374 160.448 135.698 159.974 136.106 159.566C136.514 159.158 136.994 158.84 137.546 158.612C138.098 158.372 138.692 158.252 139.328 158.252C139.964 158.252 140.558 158.372 141.11 158.612C141.662 158.84 142.142 159.158 142.55 159.566C142.958 159.974 143.276 160.448 143.504 160.988C143.744 161.528 143.864 162.11 143.864 162.734C143.864 163.358 143.744 163.946 143.504 164.498C143.276 165.038 142.958 165.512 142.55 165.92C142.142 166.316 141.662 166.634 141.11 166.874C140.558 167.102 139.964 167.216 139.328 167.216C138.692 167.216 138.098 167.102 137.546 166.874C136.994 166.634 136.514 166.316 136.106 165.92C135.698 165.512 135.374 165.038 135.134 164.498C134.906 163.946 134.792 163.358 134.792 162.734ZM150.43 160.61C150.238 160.37 149.998 160.172 149.71 160.016C149.434 159.848 149.092 159.764 148.684 159.764C148.3 159.764 147.964 159.848 147.676 160.016C147.4 160.172 147.262 160.406 147.262 160.718C147.262 160.97 147.34 161.174 147.496 161.33C147.664 161.486 147.856 161.612 148.072 161.708C148.3 161.804 148.54 161.876 148.792 161.924C149.044 161.972 149.26 162.014 149.44 162.05C149.788 162.134 150.112 162.236 150.412 162.356C150.724 162.476 150.988 162.632 151.204 162.824C151.432 163.016 151.606 163.25 151.726 163.526C151.858 163.802 151.924 164.138 151.924 164.534C151.924 165.014 151.822 165.428 151.618 165.776C151.414 166.112 151.15 166.388 150.826 166.604C150.502 166.82 150.13 166.976 149.71 167.072C149.302 167.168 148.888 167.216 148.468 167.216C147.76 167.216 147.136 167.108 146.596 166.892C146.068 166.676 145.594 166.28 145.174 165.704L146.398 164.696C146.662 164.96 146.956 165.194 147.28 165.398C147.604 165.602 148 165.704 148.468 165.704C148.672 165.704 148.876 165.686 149.08 165.65C149.296 165.602 149.482 165.536 149.638 165.452C149.806 165.356 149.938 165.242 150.034 165.11C150.142 164.966 150.196 164.804 150.196 164.624C150.196 164.384 150.118 164.186 149.962 164.03C149.818 163.874 149.638 163.754 149.422 163.67C149.218 163.574 148.996 163.502 148.756 163.454C148.528 163.394 148.324 163.346 148.144 163.31C147.796 163.226 147.466 163.13 147.154 163.022C146.842 162.914 146.566 162.77 146.326 162.59C146.086 162.41 145.894 162.182 145.75 161.906C145.606 161.63 145.534 161.288 145.534 160.88C145.534 160.436 145.624 160.052 145.804 159.728C145.996 159.392 146.242 159.116 146.542 158.9C146.854 158.684 147.202 158.522 147.586 158.414C147.982 158.306 148.378 158.252 148.774 158.252C149.35 158.252 149.902 158.36 150.43 158.576C150.958 158.792 151.378 159.152 151.69 159.656L150.43 160.61ZM160.216 162.734C160.216 163.166 160.282 163.568 160.414 163.94C160.546 164.3 160.732 164.612 160.972 164.876C161.212 165.128 161.506 165.332 161.854 165.488C162.202 165.632 162.592 165.704 163.024 165.704C163.456 165.704 163.846 165.632 164.194 165.488C164.542 165.332 164.836 165.128 165.076 164.876C165.316 164.612 165.502 164.3 165.634 163.94C165.766 163.568 165.832 163.166 165.832 162.734C165.832 162.302 165.766 161.906 165.634 161.546C165.502 161.174 165.316 160.862 165.076 160.61C164.836 160.346 164.542 160.142 164.194 159.998C163.846 159.842 163.456 159.764 163.024 159.764C162.592 159.764 162.202 159.842 161.854 159.998C161.506 160.142 161.212 160.346 160.972 160.61C160.732 160.862 160.546 161.174 160.414 161.546C160.282 161.906 160.216 162.302 160.216 162.734ZM158.488 162.734C158.488 162.11 158.602 161.528 158.83 160.988C159.07 160.448 159.394 159.974 159.802 159.566C160.21 159.158 160.69 158.84 161.242 158.612C161.794 158.372 162.388 158.252 163.024 158.252C163.66 158.252 164.254 158.372 164.806 158.612C165.358 158.84 165.838 159.158 166.246 159.566C166.654 159.974 166.972 160.448 167.2 160.988C167.44 161.528 167.56 162.11 167.56 162.734C167.56 163.358 167.44 163.946 167.2 164.498C166.972 165.038 166.654 165.512 166.246 165.92C165.838 166.316 165.358 166.634 164.806 166.874C164.254 167.102 163.66 167.216 163.024 167.216C162.388 167.216 161.794 167.102 161.242 166.874C160.69 166.634 160.21 166.316 159.802 165.92C159.394 165.512 159.07 165.038 158.83 164.498C158.602 163.946 158.488 163.358 158.488 162.734ZM170.219 159.872H168.383V158.468H170.219V156.56C170.219 155.42 170.435 154.574 170.867 154.022C171.311 153.458 172.067 153.176 173.135 153.176C173.315 153.176 173.501 153.182 173.693 153.194C173.897 153.206 174.113 153.242 174.341 153.302L174.161 154.742C174.005 154.682 173.855 154.64 173.711 154.616C173.567 154.592 173.411 154.58 173.243 154.58C172.943 154.58 172.703 154.628 172.523 154.724C172.343 154.808 172.199 154.934 172.091 155.102C171.995 155.27 171.929 155.474 171.893 155.714C171.869 155.942 171.857 156.206 171.857 156.506V158.468H173.783V159.872H171.839V167H170.219V159.872ZM181.907 162.734C181.907 163.166 181.973 163.568 182.105 163.94C182.237 164.3 182.423 164.612 182.663 164.876C182.903 165.128 183.197 165.332 183.545 165.488C183.893 165.632 184.283 165.704 184.715 165.704C185.147 165.704 185.537 165.632 185.885 165.488C186.233 165.332 186.527 165.128 186.767 164.876C187.007 164.612 187.193 164.3 187.325 163.94C187.457 163.568 187.523 163.166 187.523 162.734C187.523 162.302 187.457 161.906 187.325 161.546C187.193 161.174 187.007 160.862 186.767 160.61C186.527 160.346 186.233 160.142 185.885 159.998C185.537 159.842 185.147 159.764 184.715 159.764C184.283 159.764 183.893 159.842 183.545 159.998C183.197 160.142 182.903 160.346 182.663 160.61C182.423 160.862 182.237 161.174 182.105 161.546C181.973 161.906 181.907 162.302 181.907 162.734ZM180.179 162.734C180.179 162.11 180.293 161.528 180.521 160.988C180.761 160.448 181.085 159.974 181.493 159.566C181.901 159.158 182.381 158.84 182.933 158.612C183.485 158.372 184.079 158.252 184.715 158.252C185.351 158.252 185.945 158.372 186.497 158.612C187.049 158.84 187.529 159.158 187.937 159.566C188.345 159.974 188.663 160.448 188.891 160.988C189.131 161.528 189.251 162.11 189.251 162.734C189.251 163.358 189.131 163.946 188.891 164.498C188.663 165.038 188.345 165.512 187.937 165.92C187.529 166.316 187.049 166.634 186.497 166.874C185.945 167.102 185.351 167.216 184.715 167.216C184.079 167.216 183.485 167.102 182.933 166.874C182.381 166.634 181.901 166.316 181.493 165.92C181.085 165.512 180.761 165.038 180.521 164.498C180.293 163.946 180.179 163.358 180.179 162.734ZM198.841 167H197.221V165.686H197.185C196.981 166.142 196.627 166.514 196.123 166.802C195.619 167.078 195.037 167.216 194.377 167.216C193.957 167.216 193.561 167.15 193.189 167.018C192.817 166.898 192.487 166.706 192.199 166.442C191.923 166.178 191.701 165.842 191.533 165.434C191.365 165.014 191.281 164.522 191.281 163.958V158.468H192.901V163.508C192.901 163.904 192.955 164.246 193.063 164.534C193.171 164.81 193.315 165.038 193.495 165.218C193.675 165.386 193.879 165.512 194.107 165.596C194.347 165.668 194.593 165.704 194.845 165.704C195.181 165.704 195.493 165.65 195.781 165.542C196.069 165.434 196.321 165.266 196.537 165.038C196.753 164.798 196.921 164.498 197.041 164.138C197.161 163.778 197.221 163.352 197.221 162.86V158.468H198.841V167ZM201.283 158.468H202.903V159.782H202.939C203.047 159.554 203.191 159.35 203.371 159.17C203.551 158.978 203.749 158.816 203.965 158.684C204.193 158.552 204.439 158.45 204.703 158.378C204.967 158.294 205.231 158.252 205.495 158.252C205.759 158.252 205.999 158.288 206.215 158.36L206.143 160.106C206.011 160.07 205.879 160.04 205.747 160.016C205.615 159.992 205.483 159.98 205.351 159.98C204.559 159.98 203.953 160.202 203.533 160.646C203.113 161.09 202.903 161.78 202.903 162.716V167H201.283V158.468ZM212.954 158.468H214.574V159.692H214.61C214.922 159.236 215.348 158.882 215.888 158.63C216.44 158.378 217.004 158.252 217.58 158.252C218.24 158.252 218.834 158.366 219.362 158.594C219.902 158.822 220.358 159.14 220.73 159.548C221.114 159.956 221.408 160.436 221.612 160.988C221.816 161.528 221.918 162.11 221.918 162.734C221.918 163.37 221.816 163.964 221.612 164.516C221.408 165.056 221.114 165.53 220.73 165.938C220.358 166.334 219.902 166.646 219.362 166.874C218.834 167.102 218.24 167.216 217.58 167.216C216.968 167.216 216.392 167.09 215.852 166.838C215.312 166.574 214.898 166.22 214.61 165.776H214.574V172.076H212.954V158.468ZM217.382 159.764C216.95 159.764 216.56 159.842 216.212 159.998C215.864 160.142 215.57 160.346 215.33 160.61C215.09 160.862 214.904 161.174 214.772 161.546C214.64 161.906 214.574 162.302 214.574 162.734C214.574 163.166 214.64 163.568 214.772 163.94C214.904 164.3 215.09 164.612 215.33 164.876C215.57 165.128 215.864 165.332 216.212 165.488C216.56 165.632 216.95 165.704 217.382 165.704C217.814 165.704 218.204 165.632 218.552 165.488C218.9 165.332 219.194 165.128 219.434 164.876C219.674 164.612 219.86 164.3 219.992 163.94C220.124 163.568 220.19 163.166 220.19 162.734C220.19 162.302 220.124 161.906 219.992 161.546C219.86 161.174 219.674 160.862 219.434 160.61C219.194 160.346 218.9 160.142 218.552 159.998C218.204 159.842 217.814 159.764 217.382 159.764ZM225.182 163.328C225.182 163.7 225.26 164.042 225.416 164.354C225.584 164.654 225.8 164.912 226.064 165.128C226.328 165.344 226.634 165.512 226.982 165.632C227.33 165.752 227.69 165.812 228.062 165.812C228.566 165.812 229.004 165.698 229.376 165.47C229.748 165.23 230.09 164.918 230.402 164.534L231.626 165.47C230.726 166.634 229.466 167.216 227.846 167.216C227.174 167.216 226.562 167.102 226.01 166.874C225.47 166.646 225.008 166.334 224.624 165.938C224.252 165.53 223.964 165.056 223.76 164.516C223.556 163.964 223.454 163.37 223.454 162.734C223.454 162.098 223.562 161.51 223.778 160.97C224.006 160.418 224.312 159.944 224.696 159.548C225.092 159.14 225.56 158.822 226.1 158.594C226.64 158.366 227.228 158.252 227.864 158.252C228.62 158.252 229.256 158.384 229.772 158.648C230.3 158.912 230.732 159.26 231.068 159.692C231.404 160.112 231.644 160.592 231.788 161.132C231.944 161.66 232.022 162.2 232.022 162.752V163.328H225.182ZM230.294 162.032C230.282 161.672 230.222 161.342 230.114 161.042C230.018 160.742 229.868 160.484 229.664 160.268C229.46 160.04 229.202 159.866 228.89 159.746C228.59 159.614 228.236 159.548 227.828 159.548C227.432 159.548 227.066 159.626 226.73 159.782C226.406 159.926 226.13 160.118 225.902 160.358C225.674 160.598 225.494 160.868 225.362 161.168C225.242 161.456 225.182 161.744 225.182 162.032H230.294ZM235.184 163.328C235.184 163.7 235.262 164.042 235.418 164.354C235.586 164.654 235.802 164.912 236.066 165.128C236.33 165.344 236.636 165.512 236.984 165.632C237.332 165.752 237.692 165.812 238.064 165.812C238.568 165.812 239.006 165.698 239.378 165.47C239.75 165.23 240.092 164.918 240.404 164.534L241.628 165.47C240.728 166.634 239.468 167.216 237.848 167.216C237.176 167.216 236.564 167.102 236.012 166.874C235.472 166.646 235.01 166.334 234.626 165.938C234.254 165.53 233.966 165.056 233.762 164.516C233.558 163.964 233.456 163.37 233.456 162.734C233.456 162.098 233.564 161.51 233.78 160.97C234.008 160.418 234.314 159.944 234.698 159.548C235.094 159.14 235.562 158.822 236.102 158.594C236.642 158.366 237.23 158.252 237.866 158.252C238.622 158.252 239.258 158.384 239.774 158.648C240.302 158.912 240.734 159.26 241.07 159.692C241.406 160.112 241.646 160.592 241.79 161.132C241.946 161.66 242.024 162.2 242.024 162.752V163.328H235.184ZM240.296 162.032C240.284 161.672 240.224 161.342 240.116 161.042C240.02 160.742 239.87 160.484 239.666 160.268C239.462 160.04 239.204 159.866 238.892 159.746C238.592 159.614 238.238 159.548 237.83 159.548C237.434 159.548 237.068 159.626 236.732 159.782C236.408 159.926 236.132 160.118 235.904 160.358C235.676 160.598 235.496 160.868 235.364 161.168C235.244 161.456 235.184 161.744 235.184 162.032H240.296ZM243.962 158.468H245.582V159.782H245.618C245.726 159.554 245.87 159.35 246.05 159.17C246.23 158.978 246.428 158.816 246.644 158.684C246.872 158.552 247.118 158.45 247.382 158.378C247.646 158.294 247.91 158.252 248.174 158.252C248.438 158.252 248.678 158.288 248.894 158.36L248.822 160.106C248.69 160.07 248.558 160.04 248.426 160.016C248.294 159.992 248.162 159.98 248.03 159.98C247.238 159.98 246.632 160.202 246.212 160.646C245.792 161.09 245.582 161.78 245.582 162.716V167H243.962V158.468ZM255.16 160.61C254.968 160.37 254.728 160.172 254.44 160.016C254.164 159.848 253.822 159.764 253.414 159.764C253.03 159.764 252.694 159.848 252.406 160.016C252.13 160.172 251.992 160.406 251.992 160.718C251.992 160.97 252.07 161.174 252.226 161.33C252.394 161.486 252.586 161.612 252.802 161.708C253.03 161.804 253.27 161.876 253.522 161.924C253.774 161.972 253.99 162.014 254.17 162.05C254.518 162.134 254.842 162.236 255.142 162.356C255.454 162.476 255.718 162.632 255.934 162.824C256.162 163.016 256.336 163.25 256.456 163.526C256.588 163.802 256.654 164.138 256.654 164.534C256.654 165.014 256.552 165.428 256.348 165.776C256.144 166.112 255.88 166.388 255.556 166.604C255.232 166.82 254.86 166.976 254.44 167.072C254.032 167.168 253.618 167.216 253.198 167.216C252.49 167.216 251.866 167.108 251.326 166.892C250.798 166.676 250.324 166.28 249.904 165.704L251.128 164.696C251.392 164.96 251.686 165.194 252.01 165.398C252.334 165.602 252.73 165.704 253.198 165.704C253.402 165.704 253.606 165.686 253.81 165.65C254.026 165.602 254.212 165.536 254.368 165.452C254.536 165.356 254.668 165.242 254.764 165.11C254.872 164.966 254.926 164.804 254.926 164.624C254.926 164.384 254.848 164.186 254.692 164.03C254.548 163.874 254.368 163.754 254.152 163.67C253.948 163.574 253.726 163.502 253.486 163.454C253.258 163.394 253.054 163.346 252.874 163.31C252.526 163.226 252.196 163.13 251.884 163.022C251.572 162.914 251.296 162.77 251.056 162.59C250.816 162.41 250.624 162.182 250.48 161.906C250.336 161.63 250.264 161.288 250.264 160.88C250.264 160.436 250.354 160.052 250.534 159.728C250.726 159.392 250.972 159.116 251.272 158.9C251.584 158.684 251.932 158.522 252.316 158.414C252.712 158.306 253.108 158.252 253.504 158.252C254.08 158.252 254.632 158.36 255.16 158.576C255.688 158.792 256.108 159.152 256.42 159.656L255.16 160.61Z" fill="black"/>
<defs>
<filter id="filter0_d" x="53" y="0" width="266" height="266" filterUnits="userSpaceOnUse" color-interpolation-filters="sRGB">
<feFlood flood-opacity="0" result="BackgroundImageFix"/>
<feColorMatrix in="SourceAlpha" type="matrix" values="0 0 0 0 0 0 0 0 0 0 0 0 0 0 0 0 0 0 127 0"/>
<feOffset dy="4"/>
<feGaussianBlur stdDeviation="2"/>
<feColorMatrix type="matrix" values="0 0 0 0 0 0 0 0 0 0 0 0 0 0 0 0 0 0 0.25 0"/>
<feBlend mode="normal" in2="BackgroundImageFix" result="effect1_dropShadow"/>
<feBlend mode="normal" in="SourceGraphic" in2="effect1_dropShadow" result="shape"/>
</filter>
</defs>
</svg>
