<svg width="295" height="266" viewBox="0 0 295 266" fill="none" xmlns="http://www.w3.org/2000/svg">
<path d="M10.332 125.004L10.224 122.124V118.164H13.572V122.124L13.428 125.004L16.2 124.788H20.124V128.172H16.2L13.428 128.064L13.572 130.872V135.048H10.224V130.872L10.332 128.064L7.056 128.172H3.672V124.788H7.056L10.332 125.004Z" fill="black"/>
<g filter="url(#filter0_d)">
<path d="M162 0L185.037 43.0229L226.5 17.2827L224.94 66.0604L273.717 64.5L247.977 105.963L291 129L247.977 152.037L273.717 193.5L224.94 191.94L226.5 240.717L185.037 214.977L162 258L138.963 214.977L97.5 240.717L99.0604 191.94L50.2827 193.5L76.0229 152.037L33 129L76.0229 105.963L50.2827 64.5L99.0604 66.0604L97.5 17.2827L138.963 43.0229L162 0Z" fill="#F0AD00"/>
</g>
<path d="M124.368 140.056C127.704 138.088 130.44 135.916 132.576 133.54C134.712 131.164 135.78 128.872 135.78 126.664C135.78 125.488 135.408 124.552 134.664 123.856C133.944 123.136 132.924 122.776 131.604 122.776C130.356 122.776 129.3 123.016 128.436 123.496C127.596 123.952 126.768 124.552 125.952 125.296L124.584 123.316C125.064 122.716 125.748 122.104 126.636 121.48C127.548 120.856 128.604 120.34 129.804 119.932C131.004 119.5 132.216 119.284 133.44 119.284C135.192 119.284 136.656 119.584 137.832 120.184C139.032 120.784 139.92 121.576 140.496 122.56C141.072 123.544 141.36 124.636 141.36 125.836C141.36 128.14 140.256 130.456 138.048 132.784C135.84 135.112 133.032 137.248 129.624 139.192L140.064 138.22L141.432 135.196L143.7 135.664L142.656 142H125.124L124.368 140.056ZM153.005 132.172L147.065 124.504L145.193 124.072V121.984H155.597V124.072L153.257 124.504L156.101 128.5L157.037 130.012L157.973 128.5L160.889 124.504L158.441 124.072V121.984H166.253V124.072L164.201 124.504L158.513 131.488L164.741 139.552L166.721 139.876V142H156.317V139.876L158.441 139.516L155.669 135.304L154.589 133.72L153.725 135.268L150.773 139.516L153.545 139.876V142H144.905V139.876L147.209 139.516L153.005 132.172Z" fill="black"/>
<path d="M90.488 107.324C89.516 107.324 88.622 107.156 87.806 106.82C86.99 106.472 86.288 105.998 85.7 105.398C85.124 104.798 84.668 104.09 84.332 103.274C84.008 102.458 83.846 101.576 83.846 100.628C83.846 99.68 84.008 98.798 84.332 97.982C84.668 97.166 85.124 96.458 85.7 95.858C86.288 95.258 86.99 94.79 87.806 94.454C88.622 94.106 89.516 93.932 90.488 93.932C91.46 93.932 92.354 94.106 93.17 94.454C93.986 94.79 94.682 95.258 95.258 95.858C95.846 96.458 96.302 97.166 96.626 97.982C96.962 98.798 97.13 99.68 97.13 100.628C97.13 101.576 96.962 102.458 96.626 103.274C96.302 104.09 95.846 104.798 95.258 105.398C94.682 105.998 93.986 106.472 93.17 106.82C92.354 107.156 91.46 107.324 90.488 107.324ZM90.488 105.704C91.22 105.704 91.88 105.572 92.468 105.308C93.056 105.032 93.56 104.666 93.98 104.21C94.4 103.754 94.724 103.22 94.952 102.608C95.18 101.984 95.294 101.324 95.294 100.628C95.294 99.932 95.18 99.278 94.952 98.666C94.724 98.042 94.4 97.502 93.98 97.046C93.56 96.59 93.056 96.23 92.468 95.966C91.88 95.69 91.22 95.552 90.488 95.552C89.756 95.552 89.096 95.69 88.508 95.966C87.92 96.23 87.416 96.59 86.996 97.046C86.576 97.502 86.252 98.042 86.024 98.666C85.796 99.278 85.682 99.932 85.682 100.628C85.682 101.324 85.796 101.984 86.024 102.608C86.252 103.22 86.576 103.754 86.996 104.21C87.416 104.666 87.92 105.032 88.508 105.308C89.096 105.572 89.756 105.704 90.488 105.704ZM99.2006 98.468H100.821V99.692H100.857C101.169 99.236 101.595 98.882 102.135 98.63C102.687 98.378 103.251 98.252 103.827 98.252C104.487 98.252 105.081 98.366 105.609 98.594C106.149 98.822 106.605 99.14 106.977 99.548C107.361 99.956 107.655 100.436 107.859 100.988C108.063 101.528 108.165 102.11 108.165 102.734C108.165 103.37 108.063 103.964 107.859 104.516C107.655 105.056 107.361 105.53 106.977 105.938C106.605 106.334 106.149 106.646 105.609 106.874C105.081 107.102 104.487 107.216 103.827 107.216C103.215 107.216 102.639 107.09 102.099 106.838C101.559 106.574 101.145 106.22 100.857 105.776H100.821V112.076H99.2006V98.468ZM103.629 99.764C103.197 99.764 102.807 99.842 102.459 99.998C102.111 100.142 101.817 100.346 101.577 100.61C101.337 100.862 101.151 101.174 101.019 101.546C100.887 101.906 100.821 102.302 100.821 102.734C100.821 103.166 100.887 103.568 101.019 103.94C101.151 104.3 101.337 104.612 101.577 104.876C101.817 105.128 102.111 105.332 102.459 105.488C102.807 105.632 103.197 105.704 103.629 105.704C104.061 105.704 104.451 105.632 104.799 105.488C105.147 105.332 105.441 105.128 105.681 104.876C105.921 104.612 106.107 104.3 106.239 103.94C106.371 103.568 106.437 103.166 106.437 102.734C106.437 102.302 106.371 101.906 106.239 101.546C106.107 101.174 105.921 100.862 105.681 100.61C105.441 100.346 105.147 100.142 104.799 99.998C104.451 99.842 104.061 99.764 103.629 99.764ZM114.776 99.872H112.454V103.742C112.454 103.982 112.46 104.222 112.472 104.462C112.484 104.69 112.526 104.9 112.598 105.092C112.682 105.272 112.802 105.422 112.958 105.542C113.126 105.65 113.366 105.704 113.678 105.704C113.87 105.704 114.068 105.686 114.272 105.65C114.476 105.614 114.662 105.548 114.83 105.452V106.928C114.638 107.036 114.386 107.108 114.074 107.144C113.774 107.192 113.54 107.216 113.372 107.216C112.748 107.216 112.262 107.132 111.914 106.964C111.578 106.784 111.326 106.556 111.158 106.28C111.002 106.004 110.906 105.698 110.87 105.362C110.846 105.014 110.834 104.666 110.834 104.318V99.872H108.962V98.468H110.834V96.074H112.454V98.468H114.776V99.872ZM116.993 98.468H118.613V107H116.993V98.468ZM116.615 95.408C116.615 95.084 116.729 94.808 116.957 94.58C117.197 94.34 117.479 94.22 117.803 94.22C118.127 94.22 118.403 94.34 118.631 94.58C118.871 94.808 118.991 95.084 118.991 95.408C118.991 95.732 118.871 96.014 118.631 96.254C118.403 96.482 118.127 96.596 117.803 96.596C117.479 96.596 117.197 96.482 116.957 96.254C116.729 96.014 116.615 95.732 116.615 95.408ZM121.191 98.468H122.703V99.8H122.739C122.775 99.68 122.865 99.53 123.009 99.35C123.165 99.17 123.357 99.002 123.585 98.846C123.825 98.678 124.101 98.54 124.413 98.432C124.737 98.312 125.091 98.252 125.475 98.252C126.111 98.252 126.645 98.384 127.077 98.648C127.509 98.912 127.863 99.308 128.139 99.836C128.415 99.308 128.805 98.912 129.309 98.648C129.813 98.384 130.323 98.252 130.839 98.252C131.499 98.252 132.039 98.36 132.459 98.576C132.879 98.792 133.209 99.08 133.449 99.44C133.689 99.788 133.851 100.19 133.935 100.646C134.031 101.09 134.079 101.552 134.079 102.032V107H132.459V102.248C132.459 101.924 132.435 101.612 132.387 101.312C132.351 101.012 132.267 100.748 132.135 100.52C132.003 100.292 131.817 100.112 131.577 99.98C131.337 99.836 131.019 99.764 130.623 99.764C129.843 99.764 129.285 100.004 128.949 100.484C128.613 100.964 128.445 101.582 128.445 102.338V107H126.825V102.536C126.825 102.128 126.801 101.756 126.753 101.42C126.717 101.084 126.633 100.796 126.501 100.556C126.381 100.304 126.201 100.112 125.961 99.98C125.733 99.836 125.421 99.764 125.025 99.764C124.737 99.764 124.455 99.824 124.179 99.944C123.915 100.052 123.681 100.22 123.477 100.448C123.273 100.676 123.111 100.97 122.991 101.33C122.871 101.678 122.811 102.092 122.811 102.572V107H121.191V98.468ZM136.645 98.468H138.265V107H136.645V98.468ZM136.267 95.408C136.267 95.084 136.381 94.808 136.609 94.58C136.849 94.34 137.131 94.22 137.455 94.22C137.779 94.22 138.055 94.34 138.283 94.58C138.523 94.808 138.643 95.084 138.643 95.408C138.643 95.732 138.523 96.014 138.283 96.254C138.055 96.482 137.779 96.596 137.455 96.596C137.131 96.596 136.849 96.482 136.609 96.254C136.381 96.014 136.267 95.732 136.267 95.408ZM140.249 105.542L145.091 99.872H140.411V98.468H147.071V99.908L142.193 105.596H147.323V107H140.249V105.542ZM150.399 103.328C150.399 103.7 150.477 104.042 150.633 104.354C150.801 104.654 151.017 104.912 151.281 105.128C151.545 105.344 151.851 105.512 152.199 105.632C152.547 105.752 152.907 105.812 153.279 105.812C153.783 105.812 154.221 105.698 154.593 105.47C154.965 105.23 155.307 104.918 155.619 104.534L156.843 105.47C155.943 106.634 154.683 107.216 153.063 107.216C152.391 107.216 151.779 107.102 151.227 106.874C150.687 106.646 150.225 106.334 149.841 105.938C149.469 105.53 149.181 105.056 148.977 104.516C148.773 103.964 148.671 103.37 148.671 102.734C148.671 102.098 148.779 101.51 148.995 100.97C149.223 100.418 149.529 99.944 149.913 99.548C150.309 99.14 150.777 98.822 151.317 98.594C151.857 98.366 152.445 98.252 153.081 98.252C153.837 98.252 154.473 98.384 154.989 98.648C155.517 98.912 155.949 99.26 156.285 99.692C156.621 100.112 156.861 100.592 157.005 101.132C157.161 101.66 157.239 102.2 157.239 102.752V103.328H150.399ZM155.511 102.032C155.499 101.672 155.439 101.342 155.331 101.042C155.235 100.742 155.085 100.484 154.881 100.268C154.677 100.04 154.419 99.866 154.107 99.746C153.807 99.614 153.453 99.548 153.045 99.548C152.649 99.548 152.283 99.626 151.947 99.782C151.623 99.926 151.347 100.118 151.119 100.358C150.891 100.598 150.711 100.868 150.579 101.168C150.459 101.456 150.399 101.744 150.399 102.032H155.511ZM167.727 107H166.107V105.776H166.071C165.759 106.232 165.327 106.586 164.775 106.838C164.235 107.09 163.677 107.216 163.101 107.216C162.441 107.216 161.841 107.102 161.301 106.874C160.773 106.646 160.317 106.328 159.933 105.92C159.561 105.512 159.273 105.038 159.069 104.498C158.865 103.958 158.763 103.37 158.763 102.734C158.763 102.098 158.865 101.51 159.069 100.97C159.273 100.418 159.561 99.944 159.933 99.548C160.317 99.14 160.773 98.822 161.301 98.594C161.841 98.366 162.441 98.252 163.101 98.252C163.713 98.252 164.289 98.384 164.829 98.648C165.369 98.9 165.783 99.248 166.071 99.692H166.107V93.392H167.727V107ZM163.299 105.704C163.731 105.704 164.121 105.632 164.469 105.488C164.817 105.332 165.111 105.128 165.351 104.876C165.591 104.612 165.777 104.3 165.909 103.94C166.041 103.568 166.107 103.166 166.107 102.734C166.107 102.302 166.041 101.906 165.909 101.546C165.777 101.174 165.591 100.862 165.351 100.61C165.111 100.346 164.817 100.142 164.469 99.998C164.121 99.842 163.731 99.764 163.299 99.764C162.867 99.764 162.477 99.842 162.129 99.998C161.781 100.142 161.487 100.346 161.247 100.61C161.007 100.862 160.821 101.174 160.689 101.546C160.557 101.906 160.491 102.302 160.491 102.734C160.491 103.166 160.557 103.568 160.689 103.94C160.821 104.3 161.007 104.612 161.247 104.876C161.487 105.128 161.781 105.332 162.129 105.488C162.477 105.632 162.867 105.704 163.299 105.704ZM179.727 100.61C179.535 100.37 179.295 100.172 179.007 100.016C178.731 99.848 178.389 99.764 177.981 99.764C177.597 99.764 177.261 99.848 176.973 100.016C176.697 100.172 176.559 100.406 176.559 100.718C176.559 100.97 176.637 101.174 176.793 101.33C176.961 101.486 177.153 101.612 177.369 101.708C177.597 101.804 177.837 101.876 178.089 101.924C178.341 101.972 178.557 102.014 178.737 102.05C179.085 102.134 179.409 102.236 179.709 102.356C180.021 102.476 180.285 102.632 180.501 102.824C180.729 103.016 180.903 103.25 181.023 103.526C181.155 103.802 181.221 104.138 181.221 104.534C181.221 105.014 181.119 105.428 180.915 105.776C180.711 106.112 180.447 106.388 180.123 106.604C179.799 106.82 179.427 106.976 179.007 107.072C178.599 107.168 178.185 107.216 177.765 107.216C177.057 107.216 176.433 107.108 175.893 106.892C175.365 106.676 174.891 106.28 174.471 105.704L175.695 104.696C175.959 104.96 176.253 105.194 176.577 105.398C176.901 105.602 177.297 105.704 177.765 105.704C177.969 105.704 178.173 105.686 178.377 105.65C178.593 105.602 178.779 105.536 178.935 105.452C179.103 105.356 179.235 105.242 179.331 105.11C179.439 104.966 179.493 104.804 179.493 104.624C179.493 104.384 179.415 104.186 179.259 104.03C179.115 103.874 178.935 103.754 178.719 103.67C178.515 103.574 178.293 103.502 178.053 103.454C177.825 103.394 177.621 103.346 177.441 103.31C177.093 103.226 176.763 103.13 176.451 103.022C176.139 102.914 175.863 102.77 175.623 102.59C175.383 102.41 175.191 102.182 175.047 101.906C174.903 101.63 174.831 101.288 174.831 100.88C174.831 100.436 174.921 100.052 175.101 99.728C175.293 99.392 175.539 99.116 175.839 98.9C176.151 98.684 176.499 98.522 176.883 98.414C177.279 98.306 177.675 98.252 178.071 98.252C178.647 98.252 179.199 98.36 179.727 98.576C180.255 98.792 180.675 99.152 180.987 99.656L179.727 100.61ZM187.761 99.872H185.439V103.742C185.439 103.982 185.445 104.222 185.457 104.462C185.469 104.69 185.511 104.9 185.583 105.092C185.667 105.272 185.787 105.422 185.943 105.542C186.111 105.65 186.351 105.704 186.663 105.704C186.855 105.704 187.053 105.686 187.257 105.65C187.461 105.614 187.647 105.548 187.815 105.452V106.928C187.623 107.036 187.371 107.108 187.059 107.144C186.759 107.192 186.525 107.216 186.357 107.216C185.733 107.216 185.247 107.132 184.899 106.964C184.563 106.784 184.311 106.556 184.143 106.28C183.987 106.004 183.891 105.698 183.855 105.362C183.831 105.014 183.819 104.666 183.819 104.318V99.872H181.947V98.468H183.819V96.074H185.439V98.468H187.761V99.872ZM189.887 99.512C190.343 99.092 190.871 98.78 191.471 98.576C192.071 98.36 192.671 98.252 193.271 98.252C193.895 98.252 194.429 98.33 194.873 98.486C195.329 98.642 195.701 98.852 195.989 99.116C196.277 99.38 196.487 99.686 196.619 100.034C196.763 100.37 196.835 100.724 196.835 101.096V105.452C196.835 105.752 196.841 106.028 196.853 106.28C196.865 106.532 196.883 106.772 196.907 107H195.467C195.431 106.568 195.413 106.136 195.413 105.704H195.377C195.017 106.256 194.591 106.646 194.099 106.874C193.607 107.102 193.037 107.216 192.389 107.216C191.993 107.216 191.615 107.162 191.255 107.054C190.895 106.946 190.577 106.784 190.301 106.568C190.037 106.352 189.827 106.088 189.671 105.776C189.515 105.452 189.437 105.08 189.437 104.66C189.437 104.108 189.557 103.646 189.797 103.274C190.049 102.902 190.385 102.602 190.805 102.374C191.237 102.134 191.735 101.966 192.299 101.87C192.875 101.762 193.487 101.708 194.135 101.708H195.323V101.348C195.323 101.132 195.281 100.916 195.197 100.7C195.113 100.484 194.987 100.292 194.819 100.124C194.651 99.944 194.441 99.806 194.189 99.71C193.937 99.602 193.637 99.548 193.289 99.548C192.977 99.548 192.701 99.578 192.461 99.638C192.233 99.698 192.023 99.776 191.831 99.872C191.639 99.956 191.465 100.058 191.309 100.178C191.153 100.298 191.003 100.412 190.859 100.52L189.887 99.512ZM194.459 102.896C194.075 102.896 193.679 102.92 193.271 102.968C192.875 103.004 192.509 103.082 192.173 103.202C191.849 103.322 191.579 103.49 191.363 103.706C191.159 103.922 191.057 104.198 191.057 104.534C191.057 105.026 191.219 105.38 191.543 105.596C191.879 105.812 192.329 105.92 192.893 105.92C193.337 105.92 193.715 105.848 194.027 105.704C194.339 105.548 194.591 105.35 194.783 105.11C194.975 104.87 195.113 104.606 195.197 104.318C195.281 104.018 195.323 103.724 195.323 103.436V102.896H194.459ZM199.815 99.872H197.979V98.468H199.815V96.56C199.815 95.42 200.031 94.574 200.463 94.022C200.907 93.458 201.663 93.176 202.731 93.176C202.911 93.176 203.097 93.182 203.289 93.194C203.493 93.206 203.709 93.242 203.937 93.302L203.757 94.742C203.601 94.682 203.451 94.64 203.307 94.616C203.163 94.592 203.007 94.58 202.839 94.58C202.539 94.58 202.299 94.628 202.119 94.724C201.939 94.808 201.795 94.934 201.687 95.102C201.591 95.27 201.525 95.474 201.489 95.714C201.465 95.942 201.453 96.206 201.453 96.506V98.468H203.379V99.872H201.435V107H199.815V99.872ZM205.493 99.872H203.657V98.468H205.493V96.56C205.493 95.42 205.709 94.574 206.141 94.022C206.585 93.458 207.341 93.176 208.409 93.176C208.589 93.176 208.775 93.182 208.967 93.194C209.171 93.206 209.387 93.242 209.615 93.302L209.435 94.742C209.279 94.682 209.129 94.64 208.985 94.616C208.841 94.592 208.685 94.58 208.517 94.58C208.217 94.58 207.977 94.628 207.797 94.724C207.617 94.808 207.473 94.934 207.365 95.102C207.269 95.27 207.203 95.474 207.167 95.714C207.143 95.942 207.131 96.206 207.131 96.506V98.468H209.057V99.872H207.113V107H205.493V99.872ZM210.983 98.468H212.603V107H210.983V98.468ZM210.605 95.408C210.605 95.084 210.719 94.808 210.947 94.58C211.187 94.34 211.469 94.22 211.793 94.22C212.117 94.22 212.393 94.34 212.621 94.58C212.861 94.808 212.981 95.084 212.981 95.408C212.981 95.732 212.861 96.014 212.621 96.254C212.393 96.482 212.117 96.596 211.793 96.596C211.469 96.596 211.187 96.482 210.947 96.254C210.719 96.014 210.605 95.732 210.605 95.408ZM215.181 98.468H216.801V99.782H216.837C217.041 99.326 217.395 98.96 217.899 98.684C218.403 98.396 218.985 98.252 219.645 98.252C220.053 98.252 220.443 98.318 220.815 98.45C221.199 98.57 221.529 98.762 221.805 99.026C222.093 99.29 222.321 99.632 222.489 100.052C222.657 100.46 222.741 100.946 222.741 101.51V107H221.121V101.96C221.121 101.564 221.067 101.228 220.959 100.952C220.851 100.664 220.707 100.436 220.527 100.268C220.347 100.088 220.137 99.962 219.897 99.89C219.669 99.806 219.429 99.764 219.177 99.764C218.841 99.764 218.529 99.818 218.241 99.926C217.953 100.034 217.701 100.208 217.485 100.448C217.269 100.676 217.101 100.97 216.981 101.33C216.861 101.69 216.801 102.116 216.801 102.608V107H215.181V98.468ZM233.733 106.928C233.733 107.576 233.619 108.164 233.391 108.692C233.175 109.232 232.863 109.694 232.455 110.078C232.047 110.474 231.555 110.78 230.979 110.996C230.403 111.212 229.767 111.32 229.071 111.32C228.255 111.32 227.505 111.206 226.821 110.978C226.149 110.75 225.507 110.354 224.895 109.79L225.993 108.422C226.413 108.878 226.869 109.22 227.361 109.448C227.853 109.688 228.411 109.808 229.035 109.808C229.635 109.808 230.133 109.718 230.529 109.538C230.925 109.37 231.237 109.148 231.465 108.872C231.705 108.596 231.873 108.278 231.969 107.918C232.065 107.57 232.113 107.216 232.113 106.856V105.596H232.059C231.747 106.112 231.321 106.496 230.781 106.748C230.253 106.988 229.695 107.108 229.107 107.108C228.483 107.108 227.901 107 227.361 106.784C226.833 106.556 226.377 106.25 225.993 105.866C225.609 105.47 225.309 105.008 225.093 104.48C224.877 103.94 224.769 103.358 224.769 102.734C224.769 102.11 224.871 101.528 225.075 100.988C225.279 100.436 225.567 99.956 225.939 99.548C226.323 99.14 226.779 98.822 227.307 98.594C227.847 98.366 228.447 98.252 229.107 98.252C229.683 98.252 230.241 98.378 230.781 98.63C231.333 98.882 231.765 99.236 232.077 99.692H232.113V98.468H233.733V106.928ZM229.305 99.764C228.873 99.764 228.483 99.842 228.135 99.998C227.787 100.142 227.493 100.346 227.253 100.61C227.013 100.862 226.827 101.174 226.695 101.546C226.563 101.906 226.497 102.302 226.497 102.734C226.497 103.598 226.749 104.294 227.253 104.822C227.757 105.338 228.441 105.596 229.305 105.596C230.169 105.596 230.853 105.338 231.357 104.822C231.861 104.294 232.113 103.598 232.113 102.734C232.113 102.302 232.047 101.906 231.915 101.546C231.783 101.174 231.597 100.862 231.357 100.61C231.117 100.346 230.823 100.142 230.475 99.998C230.127 99.842 229.737 99.764 229.305 99.764ZM84.224 158.468H85.844V159.782H85.88C85.988 159.554 86.132 159.35 86.312 159.17C86.492 158.978 86.69 158.816 86.906 158.684C87.134 158.552 87.38 158.45 87.644 158.378C87.908 158.294 88.172 158.252 88.436 158.252C88.7 158.252 88.94 158.288 89.156 158.36L89.084 160.106C88.952 160.07 88.82 160.04 88.688 160.016C88.556 159.992 88.424 159.98 88.292 159.98C87.5 159.98 86.894 160.202 86.474 160.646C86.054 161.09 85.844 161.78 85.844 162.716V167H84.224V158.468ZM90.9221 159.512C91.3781 159.092 91.9061 158.78 92.5061 158.576C93.1061 158.36 93.7061 158.252 94.3061 158.252C94.9301 158.252 95.4641 158.33 95.9081 158.486C96.3641 158.642 96.7361 158.852 97.0241 159.116C97.3121 159.38 97.5221 159.686 97.6541 160.034C97.7981 160.37 97.8701 160.724 97.8701 161.096V165.452C97.8701 165.752 97.8761 166.028 97.8881 166.28C97.9001 166.532 97.9181 166.772 97.9421 167H96.5021C96.4661 166.568 96.4481 166.136 96.4481 165.704H96.4121C96.0521 166.256 95.6261 166.646 95.1341 166.874C94.6421 167.102 94.0721 167.216 93.4241 167.216C93.0281 167.216 92.6501 167.162 92.2901 167.054C91.9301 166.946 91.6121 166.784 91.3361 166.568C91.0721 166.352 90.8621 166.088 90.7061 165.776C90.5501 165.452 90.4721 165.08 90.4721 164.66C90.4721 164.108 90.5921 163.646 90.8321 163.274C91.0841 162.902 91.4201 162.602 91.8401 162.374C92.2721 162.134 92.7701 161.966 93.3341 161.87C93.9101 161.762 94.5221 161.708 95.1701 161.708H96.3581V161.348C96.3581 161.132 96.3161 160.916 96.2321 160.7C96.1481 160.484 96.0221 160.292 95.8541 160.124C95.6861 159.944 95.4761 159.806 95.2241 159.71C94.9721 159.602 94.6721 159.548 94.3241 159.548C94.0121 159.548 93.7361 159.578 93.4961 159.638C93.2681 159.698 93.0581 159.776 92.8661 159.872C92.6741 159.956 92.5001 160.058 92.3441 160.178C92.1881 160.298 92.0381 160.412 91.8941 160.52L90.9221 159.512ZM95.4941 162.896C95.1101 162.896 94.7141 162.92 94.3061 162.968C93.9101 163.004 93.5441 163.082 93.2081 163.202C92.8841 163.322 92.6141 163.49 92.3981 163.706C92.1941 163.922 92.0921 164.198 92.0921 164.534C92.0921 165.026 92.2541 165.38 92.5781 165.596C92.9141 165.812 93.3641 165.92 93.9281 165.92C94.3721 165.92 94.7501 165.848 95.0621 165.704C95.3741 165.548 95.6261 165.35 95.8181 165.11C96.0101 164.87 96.1481 164.606 96.2321 164.318C96.3161 164.018 96.3581 163.724 96.3581 163.436V162.896H95.4941ZM104.792 159.872H102.47V163.742C102.47 163.982 102.476 164.222 102.488 164.462C102.5 164.69 102.542 164.9 102.614 165.092C102.698 165.272 102.818 165.422 102.974 165.542C103.142 165.65 103.382 165.704 103.694 165.704C103.886 165.704 104.084 165.686 104.288 165.65C104.492 165.614 104.678 165.548 104.846 165.452V166.928C104.654 167.036 104.402 167.108 104.09 167.144C103.79 167.192 103.556 167.216 103.388 167.216C102.764 167.216 102.278 167.132 101.93 166.964C101.594 166.784 101.342 166.556 101.174 166.28C101.018 166.004 100.922 165.698 100.886 165.362C100.862 165.014 100.85 164.666 100.85 164.318V159.872H98.9781V158.468H100.85V156.074H102.47V158.468H104.792V159.872ZM107.008 158.468H108.628V167H107.008V158.468ZM106.63 155.408C106.63 155.084 106.744 154.808 106.972 154.58C107.212 154.34 107.494 154.22 107.818 154.22C108.142 154.22 108.418 154.34 108.646 154.58C108.886 154.808 109.006 155.084 109.006 155.408C109.006 155.732 108.886 156.014 108.646 156.254C108.418 156.482 108.142 156.596 107.818 156.596C107.494 156.596 107.212 156.482 106.972 156.254C106.744 156.014 106.63 155.732 106.63 155.408ZM112.52 162.734C112.52 163.166 112.586 163.568 112.718 163.94C112.85 164.3 113.036 164.612 113.276 164.876C113.516 165.128 113.81 165.332 114.158 165.488C114.506 165.632 114.896 165.704 115.328 165.704C115.76 165.704 116.15 165.632 116.498 165.488C116.846 165.332 117.14 165.128 117.38 164.876C117.62 164.612 117.806 164.3 117.938 163.94C118.07 163.568 118.136 163.166 118.136 162.734C118.136 162.302 118.07 161.906 117.938 161.546C117.806 161.174 117.62 160.862 117.38 160.61C117.14 160.346 116.846 160.142 116.498 159.998C116.15 159.842 115.76 159.764 115.328 159.764C114.896 159.764 114.506 159.842 114.158 159.998C113.81 160.142 113.516 160.346 113.276 160.61C113.036 160.862 112.85 161.174 112.718 161.546C112.586 161.906 112.52 162.302 112.52 162.734ZM110.792 162.734C110.792 162.11 110.906 161.528 111.134 160.988C111.374 160.448 111.698 159.974 112.106 159.566C112.514 159.158 112.994 158.84 113.546 158.612C114.098 158.372 114.692 158.252 115.328 158.252C115.964 158.252 116.558 158.372 117.11 158.612C117.662 158.84 118.142 159.158 118.55 159.566C118.958 159.974 119.276 160.448 119.504 160.988C119.744 161.528 119.864 162.11 119.864 162.734C119.864 163.358 119.744 163.946 119.504 164.498C119.276 165.038 118.958 165.512 118.55 165.92C118.142 166.316 117.662 166.634 117.11 166.874C116.558 167.102 115.964 167.216 115.328 167.216C114.692 167.216 114.098 167.102 113.546 166.874C112.994 166.634 112.514 166.316 112.106 165.92C111.698 165.512 111.374 165.038 111.134 164.498C110.906 163.946 110.792 163.358 110.792 162.734ZM126.43 160.61C126.238 160.37 125.998 160.172 125.71 160.016C125.434 159.848 125.092 159.764 124.684 159.764C124.3 159.764 123.964 159.848 123.676 160.016C123.4 160.172 123.262 160.406 123.262 160.718C123.262 160.97 123.34 161.174 123.496 161.33C123.664 161.486 123.856 161.612 124.072 161.708C124.3 161.804 124.54 161.876 124.792 161.924C125.044 161.972 125.26 162.014 125.44 162.05C125.788 162.134 126.112 162.236 126.412 162.356C126.724 162.476 126.988 162.632 127.204 162.824C127.432 163.016 127.606 163.25 127.726 163.526C127.858 163.802 127.924 164.138 127.924 164.534C127.924 165.014 127.822 165.428 127.618 165.776C127.414 166.112 127.15 166.388 126.826 166.604C126.502 166.82 126.13 166.976 125.71 167.072C125.302 167.168 124.888 167.216 124.468 167.216C123.76 167.216 123.136 167.108 122.596 166.892C122.068 166.676 121.594 166.28 121.174 165.704L122.398 164.696C122.662 164.96 122.956 165.194 123.28 165.398C123.604 165.602 124 165.704 124.468 165.704C124.672 165.704 124.876 165.686 125.08 165.65C125.296 165.602 125.482 165.536 125.638 165.452C125.806 165.356 125.938 165.242 126.034 165.11C126.142 164.966 126.196 164.804 126.196 164.624C126.196 164.384 126.118 164.186 125.962 164.03C125.818 163.874 125.638 163.754 125.422 163.67C125.218 163.574 124.996 163.502 124.756 163.454C124.528 163.394 124.324 163.346 124.144 163.31C123.796 163.226 123.466 163.13 123.154 163.022C122.842 162.914 122.566 162.77 122.326 162.59C122.086 162.41 121.894 162.182 121.75 161.906C121.606 161.63 121.534 161.288 121.534 160.88C121.534 160.436 121.624 160.052 121.804 159.728C121.996 159.392 122.242 159.116 122.542 158.9C122.854 158.684 123.202 158.522 123.586 158.414C123.982 158.306 124.378 158.252 124.774 158.252C125.35 158.252 125.902 158.36 126.43 158.576C126.958 158.792 127.378 159.152 127.69 159.656L126.43 160.61ZM136.216 162.734C136.216 163.166 136.282 163.568 136.414 163.94C136.546 164.3 136.732 164.612 136.972 164.876C137.212 165.128 137.506 165.332 137.854 165.488C138.202 165.632 138.592 165.704 139.024 165.704C139.456 165.704 139.846 165.632 140.194 165.488C140.542 165.332 140.836 165.128 141.076 164.876C141.316 164.612 141.502 164.3 141.634 163.94C141.766 163.568 141.832 163.166 141.832 162.734C141.832 162.302 141.766 161.906 141.634 161.546C141.502 161.174 141.316 160.862 141.076 160.61C140.836 160.346 140.542 160.142 140.194 159.998C139.846 159.842 139.456 159.764 139.024 159.764C138.592 159.764 138.202 159.842 137.854 159.998C137.506 160.142 137.212 160.346 136.972 160.61C136.732 160.862 136.546 161.174 136.414 161.546C136.282 161.906 136.216 162.302 136.216 162.734ZM134.488 162.734C134.488 162.11 134.602 161.528 134.83 160.988C135.07 160.448 135.394 159.974 135.802 159.566C136.21 159.158 136.69 158.84 137.242 158.612C137.794 158.372 138.388 158.252 139.024 158.252C139.66 158.252 140.254 158.372 140.806 158.612C141.358 158.84 141.838 159.158 142.246 159.566C142.654 159.974 142.972 160.448 143.2 160.988C143.44 161.528 143.56 162.11 143.56 162.734C143.56 163.358 143.44 163.946 143.2 164.498C142.972 165.038 142.654 165.512 142.246 165.92C141.838 166.316 141.358 166.634 140.806 166.874C140.254 167.102 139.66 167.216 139.024 167.216C138.388 167.216 137.794 167.102 137.242 166.874C136.69 166.634 136.21 166.316 135.802 165.92C135.394 165.512 135.07 165.038 134.83 164.498C134.602 163.946 134.488 163.358 134.488 162.734ZM146.219 159.872H144.383V158.468H146.219V156.56C146.219 155.42 146.435 154.574 146.867 154.022C147.311 153.458 148.067 153.176 149.135 153.176C149.315 153.176 149.501 153.182 149.693 153.194C149.897 153.206 150.113 153.242 150.341 153.302L150.161 154.742C150.005 154.682 149.855 154.64 149.711 154.616C149.567 154.592 149.411 154.58 149.243 154.58C148.943 154.58 148.703 154.628 148.523 154.724C148.343 154.808 148.199 154.934 148.091 155.102C147.995 155.27 147.929 155.474 147.893 155.714C147.869 155.942 147.857 156.206 147.857 156.506V158.468H149.783V159.872H147.839V167H146.219V159.872ZM157.907 162.734C157.907 163.166 157.973 163.568 158.105 163.94C158.237 164.3 158.423 164.612 158.663 164.876C158.903 165.128 159.197 165.332 159.545 165.488C159.893 165.632 160.283 165.704 160.715 165.704C161.147 165.704 161.537 165.632 161.885 165.488C162.233 165.332 162.527 165.128 162.767 164.876C163.007 164.612 163.193 164.3 163.325 163.94C163.457 163.568 163.523 163.166 163.523 162.734C163.523 162.302 163.457 161.906 163.325 161.546C163.193 161.174 163.007 160.862 162.767 160.61C162.527 160.346 162.233 160.142 161.885 159.998C161.537 159.842 161.147 159.764 160.715 159.764C160.283 159.764 159.893 159.842 159.545 159.998C159.197 160.142 158.903 160.346 158.663 160.61C158.423 160.862 158.237 161.174 158.105 161.546C157.973 161.906 157.907 162.302 157.907 162.734ZM156.179 162.734C156.179 162.11 156.293 161.528 156.521 160.988C156.761 160.448 157.085 159.974 157.493 159.566C157.901 159.158 158.381 158.84 158.933 158.612C159.485 158.372 160.079 158.252 160.715 158.252C161.351 158.252 161.945 158.372 162.497 158.612C163.049 158.84 163.529 159.158 163.937 159.566C164.345 159.974 164.663 160.448 164.891 160.988C165.131 161.528 165.251 162.11 165.251 162.734C165.251 163.358 165.131 163.946 164.891 164.498C164.663 165.038 164.345 165.512 163.937 165.92C163.529 166.316 163.049 166.634 162.497 166.874C161.945 167.102 161.351 167.216 160.715 167.216C160.079 167.216 159.485 167.102 158.933 166.874C158.381 166.634 157.901 166.316 157.493 165.92C157.085 165.512 156.761 165.038 156.521 164.498C156.293 163.946 156.179 163.358 156.179 162.734ZM174.841 167H173.221V165.686H173.185C172.981 166.142 172.627 166.514 172.123 166.802C171.619 167.078 171.037 167.216 170.377 167.216C169.957 167.216 169.561 167.15 169.189 167.018C168.817 166.898 168.487 166.706 168.199 166.442C167.923 166.178 167.701 165.842 167.533 165.434C167.365 165.014 167.281 164.522 167.281 163.958V158.468H168.901V163.508C168.901 163.904 168.955 164.246 169.063 164.534C169.171 164.81 169.315 165.038 169.495 165.218C169.675 165.386 169.879 165.512 170.107 165.596C170.347 165.668 170.593 165.704 170.845 165.704C171.181 165.704 171.493 165.65 171.781 165.542C172.069 165.434 172.321 165.266 172.537 165.038C172.753 164.798 172.921 164.498 173.041 164.138C173.161 163.778 173.221 163.352 173.221 162.86V158.468H174.841V167ZM177.283 158.468H178.903V159.782H178.939C179.047 159.554 179.191 159.35 179.371 159.17C179.551 158.978 179.749 158.816 179.965 158.684C180.193 158.552 180.439 158.45 180.703 158.378C180.967 158.294 181.231 158.252 181.495 158.252C181.759 158.252 181.999 158.288 182.215 158.36L182.143 160.106C182.011 160.07 181.879 160.04 181.747 160.016C181.615 159.992 181.483 159.98 181.351 159.98C180.559 159.98 179.953 160.202 179.533 160.646C179.113 161.09 178.903 161.78 178.903 162.716V167H177.283V158.468ZM188.954 158.468H190.574V159.692H190.61C190.922 159.236 191.348 158.882 191.888 158.63C192.44 158.378 193.004 158.252 193.58 158.252C194.24 158.252 194.834 158.366 195.362 158.594C195.902 158.822 196.358 159.14 196.73 159.548C197.114 159.956 197.408 160.436 197.612 160.988C197.816 161.528 197.918 162.11 197.918 162.734C197.918 163.37 197.816 163.964 197.612 164.516C197.408 165.056 197.114 165.53 196.73 165.938C196.358 166.334 195.902 166.646 195.362 166.874C194.834 167.102 194.24 167.216 193.58 167.216C192.968 167.216 192.392 167.09 191.852 166.838C191.312 166.574 190.898 166.22 190.61 165.776H190.574V172.076H188.954V158.468ZM193.382 159.764C192.95 159.764 192.56 159.842 192.212 159.998C191.864 160.142 191.57 160.346 191.33 160.61C191.09 160.862 190.904 161.174 190.772 161.546C190.64 161.906 190.574 162.302 190.574 162.734C190.574 163.166 190.64 163.568 190.772 163.94C190.904 164.3 191.09 164.612 191.33 164.876C191.57 165.128 191.864 165.332 192.212 165.488C192.56 165.632 192.95 165.704 193.382 165.704C193.814 165.704 194.204 165.632 194.552 165.488C194.9 165.332 195.194 165.128 195.434 164.876C195.674 164.612 195.86 164.3 195.992 163.94C196.124 163.568 196.19 163.166 196.19 162.734C196.19 162.302 196.124 161.906 195.992 161.546C195.86 161.174 195.674 160.862 195.434 160.61C195.194 160.346 194.9 160.142 194.552 159.998C194.204 159.842 193.814 159.764 193.382 159.764ZM201.182 163.328C201.182 163.7 201.26 164.042 201.416 164.354C201.584 164.654 201.8 164.912 202.064 165.128C202.328 165.344 202.634 165.512 202.982 165.632C203.33 165.752 203.69 165.812 204.062 165.812C204.566 165.812 205.004 165.698 205.376 165.47C205.748 165.23 206.09 164.918 206.402 164.534L207.626 165.47C206.726 166.634 205.466 167.216 203.846 167.216C203.174 167.216 202.562 167.102 202.01 166.874C201.47 166.646 201.008 166.334 200.624 165.938C200.252 165.53 199.964 165.056 199.76 164.516C199.556 163.964 199.454 163.37 199.454 162.734C199.454 162.098 199.562 161.51 199.778 160.97C200.006 160.418 200.312 159.944 200.696 159.548C201.092 159.14 201.56 158.822 202.1 158.594C202.64 158.366 203.228 158.252 203.864 158.252C204.62 158.252 205.256 158.384 205.772 158.648C206.3 158.912 206.732 159.26 207.068 159.692C207.404 160.112 207.644 160.592 207.788 161.132C207.944 161.66 208.022 162.2 208.022 162.752V163.328H201.182ZM206.294 162.032C206.282 161.672 206.222 161.342 206.114 161.042C206.018 160.742 205.868 160.484 205.664 160.268C205.46 160.04 205.202 159.866 204.89 159.746C204.59 159.614 204.236 159.548 203.828 159.548C203.432 159.548 203.066 159.626 202.73 159.782C202.406 159.926 202.13 160.118 201.902 160.358C201.674 160.598 201.494 160.868 201.362 161.168C201.242 161.456 201.182 161.744 201.182 162.032H206.294ZM211.184 163.328C211.184 163.7 211.262 164.042 211.418 164.354C211.586 164.654 211.802 164.912 212.066 165.128C212.33 165.344 212.636 165.512 212.984 165.632C213.332 165.752 213.692 165.812 214.064 165.812C214.568 165.812 215.006 165.698 215.378 165.47C215.75 165.23 216.092 164.918 216.404 164.534L217.628 165.47C216.728 166.634 215.468 167.216 213.848 167.216C213.176 167.216 212.564 167.102 212.012 166.874C211.472 166.646 211.01 166.334 210.626 165.938C210.254 165.53 209.966 165.056 209.762 164.516C209.558 163.964 209.456 163.37 209.456 162.734C209.456 162.098 209.564 161.51 209.78 160.97C210.008 160.418 210.314 159.944 210.698 159.548C211.094 159.14 211.562 158.822 212.102 158.594C212.642 158.366 213.23 158.252 213.866 158.252C214.622 158.252 215.258 158.384 215.774 158.648C216.302 158.912 216.734 159.26 217.07 159.692C217.406 160.112 217.646 160.592 217.79 161.132C217.946 161.66 218.024 162.2 218.024 162.752V163.328H211.184ZM216.296 162.032C216.284 161.672 216.224 161.342 216.116 161.042C216.02 160.742 215.87 160.484 215.666 160.268C215.462 160.04 215.204 159.866 214.892 159.746C214.592 159.614 214.238 159.548 213.83 159.548C213.434 159.548 213.068 159.626 212.732 159.782C212.408 159.926 212.132 160.118 211.904 160.358C211.676 160.598 211.496 160.868 211.364 161.168C211.244 161.456 211.184 161.744 211.184 162.032H216.296ZM219.962 158.468H221.582V159.782H221.618C221.726 159.554 221.87 159.35 222.05 159.17C222.23 158.978 222.428 158.816 222.644 158.684C222.872 158.552 223.118 158.45 223.382 158.378C223.646 158.294 223.91 158.252 224.174 158.252C224.438 158.252 224.678 158.288 224.894 158.36L224.822 160.106C224.69 160.07 224.558 160.04 224.426 160.016C224.294 159.992 224.162 159.98 224.03 159.98C223.238 159.98 222.632 160.202 222.212 160.646C221.792 161.09 221.582 161.78 221.582 162.716V167H219.962V158.468ZM231.16 160.61C230.968 160.37 230.728 160.172 230.44 160.016C230.164 159.848 229.822 159.764 229.414 159.764C229.03 159.764 228.694 159.848 228.406 160.016C228.13 160.172 227.992 160.406 227.992 160.718C227.992 160.97 228.07 161.174 228.226 161.33C228.394 161.486 228.586 161.612 228.802 161.708C229.03 161.804 229.27 161.876 229.522 161.924C229.774 161.972 229.99 162.014 230.17 162.05C230.518 162.134 230.842 162.236 231.142 162.356C231.454 162.476 231.718 162.632 231.934 162.824C232.162 163.016 232.336 163.25 232.456 163.526C232.588 163.802 232.654 164.138 232.654 164.534C232.654 165.014 232.552 165.428 232.348 165.776C232.144 166.112 231.88 166.388 231.556 166.604C231.232 166.82 230.86 166.976 230.44 167.072C230.032 167.168 229.618 167.216 229.198 167.216C228.49 167.216 227.866 167.108 227.326 166.892C226.798 166.676 226.324 166.28 225.904 165.704L227.128 164.696C227.392 164.96 227.686 165.194 228.01 165.398C228.334 165.602 228.73 165.704 229.198 165.704C229.402 165.704 229.606 165.686 229.81 165.65C230.026 165.602 230.212 165.536 230.368 165.452C230.536 165.356 230.668 165.242 230.764 165.11C230.872 164.966 230.926 164.804 230.926 164.624C230.926 164.384 230.848 164.186 230.692 164.03C230.548 163.874 230.368 163.754 230.152 163.67C229.948 163.574 229.726 163.502 229.486 163.454C229.258 163.394 229.054 163.346 228.874 163.31C228.526 163.226 228.196 163.13 227.884 163.022C227.572 162.914 227.296 162.77 227.056 162.59C226.816 162.41 226.624 162.182 226.48 161.906C226.336 161.63 226.264 161.288 226.264 160.88C226.264 160.436 226.354 160.052 226.534 159.728C226.726 159.392 226.972 159.116 227.272 158.9C227.584 158.684 227.932 158.522 228.316 158.414C228.712 158.306 229.108 158.252 229.504 158.252C230.08 158.252 230.632 158.36 231.16 158.576C231.688 158.792 232.108 159.152 232.42 159.656L231.16 160.61Z" fill="black"/>
<defs>
<filter id="filter0_d" x="29" y="0" width="266" height="266" filterUnits="userSpaceOnUse" color-interpolation-filters="sRGB">
<feFlood flood-opacity="0" result="BackgroundImageFix"/>
<feColorMatrix in="SourceAlpha" type="matrix" values="0 0 0 0 0 0 0 0 0 0 0 0 0 0 0 0 0 0 127 0"/>
<feOffset dy="4"/>
<feGaussianBlur stdDeviation="2"/>
<feColorMatrix type="matrix" values="0 0 0 0 0 0 0 0 0 0 0 0 0 0 0 0 0 0 0.25 0"/>
<feBlend mode="normal" in2="BackgroundImageFix" result="effect1_dropShadow"/>
<feBlend mode="normal" in="SourceGraphic" in2="effect1_dropShadow" result="shape"/>
</filter>
</defs>
</svg>
