<svg width="381" height="280" viewBox="0 0 381 280" fill="none" xmlns="http://www.w3.org/2000/svg">
<path d="M140 0L165.002 46.6916L210 18.7564L208.307 71.6935L261.244 70L233.308 114.998L280 140L233.308 165.002L261.244 210L208.307 208.307L210 261.244L165.002 233.308L140 280L114.998 233.308L70 261.244L71.6935 208.307L18.7564 210L46.6916 165.002L0 140L46.6916 114.998L18.7564 70L71.6935 71.6935L70 18.7564L114.998 46.6916L140 0Z" fill="#F0AD00"/>
<path d="M78.368 151.056C81.704 149.088 84.44 146.916 86.576 144.54C88.712 142.164 89.78 139.872 89.78 137.664C89.78 136.488 89.408 135.552 88.664 134.856C87.944 134.136 86.924 133.776 85.604 133.776C84.356 133.776 83.3 134.016 82.436 134.496C81.596 134.952 80.768 135.552 79.952 136.296L78.584 134.316C79.064 133.716 79.748 133.104 80.636 132.48C81.548 131.856 82.604 131.34 83.804 130.932C85.004 130.5 86.216 130.284 87.44 130.284C89.192 130.284 90.656 130.584 91.832 131.184C93.032 131.784 93.92 132.576 94.496 133.56C95.072 134.544 95.36 135.636 95.36 136.836C95.36 139.14 94.256 141.456 92.048 143.784C89.84 146.112 87.032 148.248 83.624 150.192L94.064 149.22L95.432 146.196L97.7 146.664L96.656 153H79.124L78.368 151.056ZM107.005 143.172L101.065 135.504L99.1929 135.072V132.984H109.597V135.072L107.257 135.504L110.101 139.5L111.037 141.012L111.973 139.5L114.889 135.504L112.441 135.072V132.984H120.253V135.072L118.201 135.504L112.513 142.488L118.741 150.552L120.721 150.876V153H110.317V150.876L112.441 150.516L109.669 146.304L108.589 144.72L107.725 146.268L104.773 150.516L107.545 150.876V153H98.9049V150.876L101.209 150.516L107.005 143.172Z" fill="black"/>
<path d="M68.488 118.324C67.516 118.324 66.622 118.156 65.806 117.82C64.99 117.472 64.288 116.998 63.7 116.398C63.124 115.798 62.668 115.09 62.332 114.274C62.008 113.458 61.846 112.576 61.846 111.628C61.846 110.68 62.008 109.798 62.332 108.982C62.668 108.166 63.124 107.458 63.7 106.858C64.288 106.258 64.99 105.79 65.806 105.454C66.622 105.106 67.516 104.932 68.488 104.932C69.46 104.932 70.354 105.106 71.17 105.454C71.986 105.79 72.682 106.258 73.258 106.858C73.846 107.458 74.302 108.166 74.626 108.982C74.962 109.798 75.13 110.68 75.13 111.628C75.13 112.576 74.962 113.458 74.626 114.274C74.302 115.09 73.846 115.798 73.258 116.398C72.682 116.998 71.986 117.472 71.17 117.82C70.354 118.156 69.46 118.324 68.488 118.324ZM68.488 116.704C69.22 116.704 69.88 116.572 70.468 116.308C71.056 116.032 71.56 115.666 71.98 115.21C72.4 114.754 72.724 114.22 72.952 113.608C73.18 112.984 73.294 112.324 73.294 111.628C73.294 110.932 73.18 110.278 72.952 109.666C72.724 109.042 72.4 108.502 71.98 108.046C71.56 107.59 71.056 107.23 70.468 106.966C69.88 106.69 69.22 106.552 68.488 106.552C67.756 106.552 67.096 106.69 66.508 106.966C65.92 107.23 65.416 107.59 64.996 108.046C64.576 108.502 64.252 109.042 64.024 109.666C63.796 110.278 63.682 110.932 63.682 111.628C63.682 112.324 63.796 112.984 64.024 113.608C64.252 114.22 64.576 114.754 64.996 115.21C65.416 115.666 65.92 116.032 66.508 116.308C67.096 116.572 67.756 116.704 68.488 116.704ZM77.2006 109.468H78.8206V110.692H78.8566C79.1686 110.236 79.5946 109.882 80.1346 109.63C80.6866 109.378 81.2506 109.252 81.8266 109.252C82.4866 109.252 83.0806 109.366 83.6086 109.594C84.1486 109.822 84.6046 110.14 84.9766 110.548C85.3606 110.956 85.6546 111.436 85.8586 111.988C86.0626 112.528 86.1646 113.11 86.1646 113.734C86.1646 114.37 86.0626 114.964 85.8586 115.516C85.6546 116.056 85.3606 116.53 84.9766 116.938C84.6046 117.334 84.1486 117.646 83.6086 117.874C83.0806 118.102 82.4866 118.216 81.8266 118.216C81.2146 118.216 80.6386 118.09 80.0986 117.838C79.5586 117.574 79.1446 117.22 78.8566 116.776H78.8206V123.076H77.2006V109.468ZM81.6286 110.764C81.1966 110.764 80.8066 110.842 80.4586 110.998C80.1106 111.142 79.8166 111.346 79.5766 111.61C79.3366 111.862 79.1506 112.174 79.0186 112.546C78.8866 112.906 78.8206 113.302 78.8206 113.734C78.8206 114.166 78.8866 114.568 79.0186 114.94C79.1506 115.3 79.3366 115.612 79.5766 115.876C79.8166 116.128 80.1106 116.332 80.4586 116.488C80.8066 116.632 81.1966 116.704 81.6286 116.704C82.0606 116.704 82.4506 116.632 82.7986 116.488C83.1466 116.332 83.4406 116.128 83.6806 115.876C83.9206 115.612 84.1066 115.3 84.2386 114.94C84.3706 114.568 84.4366 114.166 84.4366 113.734C84.4366 113.302 84.3706 112.906 84.2386 112.546C84.1066 112.174 83.9206 111.862 83.6806 111.61C83.4406 111.346 83.1466 111.142 82.7986 110.998C82.4506 110.842 82.0606 110.764 81.6286 110.764ZM92.7765 110.872H90.4545V114.742C90.4545 114.982 90.4605 115.222 90.4725 115.462C90.4845 115.69 90.5265 115.9 90.5985 116.092C90.6825 116.272 90.8025 116.422 90.9585 116.542C91.1265 116.65 91.3665 116.704 91.6785 116.704C91.8705 116.704 92.0685 116.686 92.2725 116.65C92.4765 116.614 92.6625 116.548 92.8305 116.452V117.928C92.6385 118.036 92.3865 118.108 92.0745 118.144C91.7745 118.192 91.5405 118.216 91.3725 118.216C90.7485 118.216 90.2625 118.132 89.9145 117.964C89.5785 117.784 89.3265 117.556 89.1585 117.28C89.0025 117.004 88.9065 116.698 88.8705 116.362C88.8465 116.014 88.8345 115.666 88.8345 115.318V110.872H86.9625V109.468H88.8345V107.074H90.4545V109.468H92.7765V110.872ZM94.9926 109.468H96.6126V118H94.9926V109.468ZM94.6146 106.408C94.6146 106.084 94.7286 105.808 94.9566 105.58C95.1966 105.34 95.4786 105.22 95.8026 105.22C96.1266 105.22 96.4026 105.34 96.6306 105.58C96.8706 105.808 96.9906 106.084 96.9906 106.408C96.9906 106.732 96.8706 107.014 96.6306 107.254C96.4026 107.482 96.1266 107.596 95.8026 107.596C95.4786 107.596 95.1966 107.482 94.9566 107.254C94.7286 107.014 94.6146 106.732 94.6146 106.408ZM99.1908 109.468H100.703V110.8H100.739C100.775 110.68 100.865 110.53 101.009 110.35C101.165 110.17 101.357 110.002 101.585 109.846C101.825 109.678 102.101 109.54 102.413 109.432C102.737 109.312 103.091 109.252 103.475 109.252C104.111 109.252 104.645 109.384 105.077 109.648C105.509 109.912 105.863 110.308 106.139 110.836C106.415 110.308 106.805 109.912 107.309 109.648C107.813 109.384 108.323 109.252 108.839 109.252C109.499 109.252 110.039 109.36 110.459 109.576C110.879 109.792 111.209 110.08 111.449 110.44C111.689 110.788 111.851 111.19 111.935 111.646C112.031 112.09 112.079 112.552 112.079 113.032V118H110.459V113.248C110.459 112.924 110.435 112.612 110.387 112.312C110.351 112.012 110.267 111.748 110.135 111.52C110.003 111.292 109.817 111.112 109.577 110.98C109.337 110.836 109.019 110.764 108.623 110.764C107.843 110.764 107.285 111.004 106.949 111.484C106.613 111.964 106.445 112.582 106.445 113.338V118H104.825V113.536C104.825 113.128 104.801 112.756 104.753 112.42C104.717 112.084 104.633 111.796 104.501 111.556C104.381 111.304 104.201 111.112 103.961 110.98C103.733 110.836 103.421 110.764 103.025 110.764C102.737 110.764 102.455 110.824 102.179 110.944C101.915 111.052 101.681 111.22 101.477 111.448C101.273 111.676 101.111 111.97 100.991 112.33C100.871 112.678 100.811 113.092 100.811 113.572V118H99.1908V109.468ZM114.645 109.468H116.265V118H114.645V109.468ZM114.267 106.408C114.267 106.084 114.381 105.808 114.609 105.58C114.849 105.34 115.131 105.22 115.455 105.22C115.779 105.22 116.055 105.34 116.283 105.58C116.523 105.808 116.643 106.084 116.643 106.408C116.643 106.732 116.523 107.014 116.283 107.254C116.055 107.482 115.779 107.596 115.455 107.596C115.131 107.596 114.849 107.482 114.609 107.254C114.381 107.014 114.267 106.732 114.267 106.408ZM118.249 116.542L123.091 110.872H118.411V109.468H125.071V110.908L120.193 116.596H125.323V118H118.249V116.542ZM128.399 114.328C128.399 114.7 128.477 115.042 128.633 115.354C128.801 115.654 129.017 115.912 129.281 116.128C129.545 116.344 129.851 116.512 130.199 116.632C130.547 116.752 130.907 116.812 131.279 116.812C131.783 116.812 132.221 116.698 132.593 116.47C132.965 116.23 133.307 115.918 133.619 115.534L134.843 116.47C133.943 117.634 132.683 118.216 131.063 118.216C130.391 118.216 129.779 118.102 129.227 117.874C128.687 117.646 128.225 117.334 127.841 116.938C127.469 116.53 127.181 116.056 126.977 115.516C126.773 114.964 126.671 114.37 126.671 113.734C126.671 113.098 126.779 112.51 126.995 111.97C127.223 111.418 127.529 110.944 127.913 110.548C128.309 110.14 128.777 109.822 129.317 109.594C129.857 109.366 130.445 109.252 131.081 109.252C131.837 109.252 132.473 109.384 132.989 109.648C133.517 109.912 133.949 110.26 134.285 110.692C134.621 111.112 134.861 111.592 135.005 112.132C135.161 112.66 135.239 113.2 135.239 113.752V114.328H128.399ZM133.511 113.032C133.499 112.672 133.439 112.342 133.331 112.042C133.235 111.742 133.085 111.484 132.881 111.268C132.677 111.04 132.419 110.866 132.107 110.746C131.807 110.614 131.453 110.548 131.045 110.548C130.649 110.548 130.283 110.626 129.947 110.782C129.623 110.926 129.347 111.118 129.119 111.358C128.891 111.598 128.711 111.868 128.579 112.168C128.459 112.456 128.399 112.744 128.399 113.032H133.511ZM145.727 118H144.107V116.776H144.071C143.759 117.232 143.327 117.586 142.775 117.838C142.235 118.09 141.677 118.216 141.101 118.216C140.441 118.216 139.841 118.102 139.301 117.874C138.773 117.646 138.317 117.328 137.933 116.92C137.561 116.512 137.273 116.038 137.069 115.498C136.865 114.958 136.763 114.37 136.763 113.734C136.763 113.098 136.865 112.51 137.069 111.97C137.273 111.418 137.561 110.944 137.933 110.548C138.317 110.14 138.773 109.822 139.301 109.594C139.841 109.366 140.441 109.252 141.101 109.252C141.713 109.252 142.289 109.384 142.829 109.648C143.369 109.9 143.783 110.248 144.071 110.692H144.107V104.392H145.727V118ZM141.299 116.704C141.731 116.704 142.121 116.632 142.469 116.488C142.817 116.332 143.111 116.128 143.351 115.876C143.591 115.612 143.777 115.3 143.909 114.94C144.041 114.568 144.107 114.166 144.107 113.734C144.107 113.302 144.041 112.906 143.909 112.546C143.777 112.174 143.591 111.862 143.351 111.61C143.111 111.346 142.817 111.142 142.469 110.998C142.121 110.842 141.731 110.764 141.299 110.764C140.867 110.764 140.477 110.842 140.129 110.998C139.781 111.142 139.487 111.346 139.247 111.61C139.007 111.862 138.821 112.174 138.689 112.546C138.557 112.906 138.491 113.302 138.491 113.734C138.491 114.166 138.557 114.568 138.689 114.94C138.821 115.3 139.007 115.612 139.247 115.876C139.487 116.128 139.781 116.332 140.129 116.488C140.477 116.632 140.867 116.704 141.299 116.704ZM157.727 111.61C157.535 111.37 157.295 111.172 157.007 111.016C156.731 110.848 156.389 110.764 155.981 110.764C155.597 110.764 155.261 110.848 154.973 111.016C154.697 111.172 154.559 111.406 154.559 111.718C154.559 111.97 154.637 112.174 154.793 112.33C154.961 112.486 155.153 112.612 155.369 112.708C155.597 112.804 155.837 112.876 156.089 112.924C156.341 112.972 156.557 113.014 156.737 113.05C157.085 113.134 157.409 113.236 157.709 113.356C158.021 113.476 158.285 113.632 158.501 113.824C158.729 114.016 158.903 114.25 159.023 114.526C159.155 114.802 159.221 115.138 159.221 115.534C159.221 116.014 159.119 116.428 158.915 116.776C158.711 117.112 158.447 117.388 158.123 117.604C157.799 117.82 157.427 117.976 157.007 118.072C156.599 118.168 156.185 118.216 155.765 118.216C155.057 118.216 154.433 118.108 153.893 117.892C153.365 117.676 152.891 117.28 152.471 116.704L153.695 115.696C153.959 115.96 154.253 116.194 154.577 116.398C154.901 116.602 155.297 116.704 155.765 116.704C155.969 116.704 156.173 116.686 156.377 116.65C156.593 116.602 156.779 116.536 156.935 116.452C157.103 116.356 157.235 116.242 157.331 116.11C157.439 115.966 157.493 115.804 157.493 115.624C157.493 115.384 157.415 115.186 157.259 115.03C157.115 114.874 156.935 114.754 156.719 114.67C156.515 114.574 156.293 114.502 156.053 114.454C155.825 114.394 155.621 114.346 155.441 114.31C155.093 114.226 154.763 114.13 154.451 114.022C154.139 113.914 153.863 113.77 153.623 113.59C153.383 113.41 153.191 113.182 153.047 112.906C152.903 112.63 152.831 112.288 152.831 111.88C152.831 111.436 152.921 111.052 153.101 110.728C153.293 110.392 153.539 110.116 153.839 109.9C154.151 109.684 154.499 109.522 154.883 109.414C155.279 109.306 155.675 109.252 156.071 109.252C156.647 109.252 157.199 109.36 157.727 109.576C158.255 109.792 158.675 110.152 158.987 110.656L157.727 111.61ZM165.761 110.872H163.439V114.742C163.439 114.982 163.445 115.222 163.457 115.462C163.469 115.69 163.511 115.9 163.583 116.092C163.667 116.272 163.787 116.422 163.943 116.542C164.111 116.65 164.351 116.704 164.663 116.704C164.855 116.704 165.053 116.686 165.257 116.65C165.461 116.614 165.647 116.548 165.815 116.452V117.928C165.623 118.036 165.371 118.108 165.059 118.144C164.759 118.192 164.525 118.216 164.357 118.216C163.733 118.216 163.247 118.132 162.899 117.964C162.563 117.784 162.311 117.556 162.143 117.28C161.987 117.004 161.891 116.698 161.855 116.362C161.831 116.014 161.819 115.666 161.819 115.318V110.872H159.947V109.468H161.819V107.074H163.439V109.468H165.761V110.872ZM167.887 110.512C168.343 110.092 168.871 109.78 169.471 109.576C170.071 109.36 170.671 109.252 171.271 109.252C171.895 109.252 172.429 109.33 172.873 109.486C173.329 109.642 173.701 109.852 173.989 110.116C174.277 110.38 174.487 110.686 174.619 111.034C174.763 111.37 174.835 111.724 174.835 112.096V116.452C174.835 116.752 174.841 117.028 174.853 117.28C174.865 117.532 174.883 117.772 174.907 118H173.467C173.431 117.568 173.413 117.136 173.413 116.704H173.377C173.017 117.256 172.591 117.646 172.099 117.874C171.607 118.102 171.037 118.216 170.389 118.216C169.993 118.216 169.615 118.162 169.255 118.054C168.895 117.946 168.577 117.784 168.301 117.568C168.037 117.352 167.827 117.088 167.671 116.776C167.515 116.452 167.437 116.08 167.437 115.66C167.437 115.108 167.557 114.646 167.797 114.274C168.049 113.902 168.385 113.602 168.805 113.374C169.237 113.134 169.735 112.966 170.299 112.87C170.875 112.762 171.487 112.708 172.135 112.708H173.323V112.348C173.323 112.132 173.281 111.916 173.197 111.7C173.113 111.484 172.987 111.292 172.819 111.124C172.651 110.944 172.441 110.806 172.189 110.71C171.937 110.602 171.637 110.548 171.289 110.548C170.977 110.548 170.701 110.578 170.461 110.638C170.233 110.698 170.023 110.776 169.831 110.872C169.639 110.956 169.465 111.058 169.309 111.178C169.153 111.298 169.003 111.412 168.859 111.52L167.887 110.512ZM172.459 113.896C172.075 113.896 171.679 113.92 171.271 113.968C170.875 114.004 170.509 114.082 170.173 114.202C169.849 114.322 169.579 114.49 169.363 114.706C169.159 114.922 169.057 115.198 169.057 115.534C169.057 116.026 169.219 116.38 169.543 116.596C169.879 116.812 170.329 116.92 170.893 116.92C171.337 116.92 171.715 116.848 172.027 116.704C172.339 116.548 172.591 116.35 172.783 116.11C172.975 115.87 173.113 115.606 173.197 115.318C173.281 115.018 173.323 114.724 173.323 114.436V113.896H172.459ZM177.815 110.872H175.979V109.468H177.815V107.56C177.815 106.42 178.031 105.574 178.463 105.022C178.907 104.458 179.663 104.176 180.731 104.176C180.911 104.176 181.097 104.182 181.289 104.194C181.493 104.206 181.709 104.242 181.937 104.302L181.757 105.742C181.601 105.682 181.451 105.64 181.307 105.616C181.163 105.592 181.007 105.58 180.839 105.58C180.539 105.58 180.299 105.628 180.119 105.724C179.939 105.808 179.795 105.934 179.687 106.102C179.591 106.27 179.525 106.474 179.489 106.714C179.465 106.942 179.453 107.206 179.453 107.506V109.468H181.379V110.872H179.435V118H177.815V110.872ZM183.493 110.872H181.657V109.468H183.493V107.56C183.493 106.42 183.709 105.574 184.141 105.022C184.585 104.458 185.341 104.176 186.409 104.176C186.589 104.176 186.775 104.182 186.967 104.194C187.171 104.206 187.387 104.242 187.615 104.302L187.435 105.742C187.279 105.682 187.129 105.64 186.985 105.616C186.841 105.592 186.685 105.58 186.517 105.58C186.217 105.58 185.977 105.628 185.797 105.724C185.617 105.808 185.473 105.934 185.365 106.102C185.269 106.27 185.203 106.474 185.167 106.714C185.143 106.942 185.131 107.206 185.131 107.506V109.468H187.057V110.872H185.113V118H183.493V110.872ZM188.983 109.468H190.603V118H188.983V109.468ZM188.605 106.408C188.605 106.084 188.719 105.808 188.947 105.58C189.187 105.34 189.469 105.22 189.793 105.22C190.117 105.22 190.393 105.34 190.621 105.58C190.861 105.808 190.981 106.084 190.981 106.408C190.981 106.732 190.861 107.014 190.621 107.254C190.393 107.482 190.117 107.596 189.793 107.596C189.469 107.596 189.187 107.482 188.947 107.254C188.719 107.014 188.605 106.732 188.605 106.408ZM193.181 109.468H194.801V110.782H194.837C195.041 110.326 195.395 109.96 195.899 109.684C196.403 109.396 196.985 109.252 197.645 109.252C198.053 109.252 198.443 109.318 198.815 109.45C199.199 109.57 199.529 109.762 199.805 110.026C200.093 110.29 200.321 110.632 200.489 111.052C200.657 111.46 200.741 111.946 200.741 112.51V118H199.121V112.96C199.121 112.564 199.067 112.228 198.959 111.952C198.851 111.664 198.707 111.436 198.527 111.268C198.347 111.088 198.137 110.962 197.897 110.89C197.669 110.806 197.429 110.764 197.177 110.764C196.841 110.764 196.529 110.818 196.241 110.926C195.953 111.034 195.701 111.208 195.485 111.448C195.269 111.676 195.101 111.97 194.981 112.33C194.861 112.69 194.801 113.116 194.801 113.608V118H193.181V109.468ZM211.733 117.928C211.733 118.576 211.619 119.164 211.391 119.692C211.175 120.232 210.863 120.694 210.455 121.078C210.047 121.474 209.555 121.78 208.979 121.996C208.403 122.212 207.767 122.32 207.071 122.32C206.255 122.32 205.505 122.206 204.821 121.978C204.149 121.75 203.507 121.354 202.895 120.79L203.993 119.422C204.413 119.878 204.869 120.22 205.361 120.448C205.853 120.688 206.411 120.808 207.035 120.808C207.635 120.808 208.133 120.718 208.529 120.538C208.925 120.37 209.237 120.148 209.465 119.872C209.705 119.596 209.873 119.278 209.969 118.918C210.065 118.57 210.113 118.216 210.113 117.856V116.596H210.059C209.747 117.112 209.321 117.496 208.781 117.748C208.253 117.988 207.695 118.108 207.107 118.108C206.483 118.108 205.901 118 205.361 117.784C204.833 117.556 204.377 117.25 203.993 116.866C203.609 116.47 203.309 116.008 203.093 115.48C202.877 114.94 202.769 114.358 202.769 113.734C202.769 113.11 202.871 112.528 203.075 111.988C203.279 111.436 203.567 110.956 203.939 110.548C204.323 110.14 204.779 109.822 205.307 109.594C205.847 109.366 206.447 109.252 207.107 109.252C207.683 109.252 208.241 109.378 208.781 109.63C209.333 109.882 209.765 110.236 210.077 110.692H210.113V109.468H211.733V117.928ZM207.305 110.764C206.873 110.764 206.483 110.842 206.135 110.998C205.787 111.142 205.493 111.346 205.253 111.61C205.013 111.862 204.827 112.174 204.695 112.546C204.563 112.906 204.497 113.302 204.497 113.734C204.497 114.598 204.749 115.294 205.253 115.822C205.757 116.338 206.441 116.596 207.305 116.596C208.169 116.596 208.853 116.338 209.357 115.822C209.861 115.294 210.113 114.598 210.113 113.734C210.113 113.302 210.047 112.906 209.915 112.546C209.783 112.174 209.597 111.862 209.357 111.61C209.117 111.346 208.823 111.142 208.475 110.998C208.127 110.842 207.737 110.764 207.305 110.764ZM62.224 169.468H63.844V170.782H63.88C63.988 170.554 64.132 170.35 64.312 170.17C64.492 169.978 64.69 169.816 64.906 169.684C65.134 169.552 65.38 169.45 65.644 169.378C65.908 169.294 66.172 169.252 66.436 169.252C66.7 169.252 66.94 169.288 67.156 169.36L67.084 171.106C66.952 171.07 66.82 171.04 66.688 171.016C66.556 170.992 66.424 170.98 66.292 170.98C65.5 170.98 64.894 171.202 64.474 171.646C64.054 172.09 63.844 172.78 63.844 173.716V178H62.224V169.468ZM68.9221 170.512C69.3781 170.092 69.9061 169.78 70.5061 169.576C71.1061 169.36 71.7061 169.252 72.3061 169.252C72.9301 169.252 73.4641 169.33 73.9081 169.486C74.3641 169.642 74.7361 169.852 75.0241 170.116C75.3121 170.38 75.5221 170.686 75.6541 171.034C75.7981 171.37 75.8701 171.724 75.8701 172.096V176.452C75.8701 176.752 75.8761 177.028 75.8881 177.28C75.9001 177.532 75.9181 177.772 75.9421 178H74.5021C74.4661 177.568 74.4481 177.136 74.4481 176.704H74.4121C74.0521 177.256 73.6261 177.646 73.1341 177.874C72.6421 178.102 72.0721 178.216 71.4241 178.216C71.0281 178.216 70.6501 178.162 70.2901 178.054C69.9301 177.946 69.6121 177.784 69.3361 177.568C69.0721 177.352 68.8621 177.088 68.7061 176.776C68.5501 176.452 68.4721 176.08 68.4721 175.66C68.4721 175.108 68.5921 174.646 68.8321 174.274C69.0841 173.902 69.4201 173.602 69.8401 173.374C70.2721 173.134 70.7701 172.966 71.3341 172.87C71.9101 172.762 72.5221 172.708 73.1701 172.708H74.3581V172.348C74.3581 172.132 74.3161 171.916 74.2321 171.7C74.1481 171.484 74.0221 171.292 73.8541 171.124C73.6861 170.944 73.4761 170.806 73.2241 170.71C72.9721 170.602 72.6721 170.548 72.3241 170.548C72.0121 170.548 71.7361 170.578 71.4961 170.638C71.2681 170.698 71.0581 170.776 70.8661 170.872C70.6741 170.956 70.5001 171.058 70.3441 171.178C70.1881 171.298 70.0381 171.412 69.8941 171.52L68.9221 170.512ZM73.4941 173.896C73.1101 173.896 72.7141 173.92 72.3061 173.968C71.9101 174.004 71.5441 174.082 71.2081 174.202C70.8841 174.322 70.6141 174.49 70.3981 174.706C70.1941 174.922 70.0921 175.198 70.0921 175.534C70.0921 176.026 70.2541 176.38 70.5781 176.596C70.9141 176.812 71.3641 176.92 71.9281 176.92C72.3721 176.92 72.7501 176.848 73.0621 176.704C73.3741 176.548 73.6261 176.35 73.8181 176.11C74.0101 175.87 74.1481 175.606 74.2321 175.318C74.3161 175.018 74.3581 174.724 74.3581 174.436V173.896H73.4941ZM82.7921 170.872H80.4701V174.742C80.4701 174.982 80.4761 175.222 80.4881 175.462C80.5001 175.69 80.5421 175.9 80.6141 176.092C80.6981 176.272 80.8181 176.422 80.9741 176.542C81.1421 176.65 81.3821 176.704 81.6941 176.704C81.8861 176.704 82.0841 176.686 82.2881 176.65C82.4921 176.614 82.6781 176.548 82.8461 176.452V177.928C82.6541 178.036 82.4021 178.108 82.0901 178.144C81.7901 178.192 81.5561 178.216 81.3881 178.216C80.7641 178.216 80.2781 178.132 79.9301 177.964C79.5941 177.784 79.3421 177.556 79.1741 177.28C79.0181 177.004 78.9221 176.698 78.8861 176.362C78.8621 176.014 78.8501 175.666 78.8501 175.318V170.872H76.9781V169.468H78.8501V167.074H80.4701V169.468H82.7921V170.872ZM85.0082 169.468H86.6282V178H85.0082V169.468ZM84.6302 166.408C84.6302 166.084 84.7442 165.808 84.9722 165.58C85.2122 165.34 85.4942 165.22 85.8182 165.22C86.1422 165.22 86.4182 165.34 86.6462 165.58C86.8862 165.808 87.0062 166.084 87.0062 166.408C87.0062 166.732 86.8862 167.014 86.6462 167.254C86.4182 167.482 86.1422 167.596 85.8182 167.596C85.4942 167.596 85.2122 167.482 84.9722 167.254C84.7442 167.014 84.6302 166.732 84.6302 166.408ZM90.5204 173.734C90.5204 174.166 90.5864 174.568 90.7184 174.94C90.8504 175.3 91.0364 175.612 91.2764 175.876C91.5164 176.128 91.8104 176.332 92.1584 176.488C92.5064 176.632 92.8964 176.704 93.3284 176.704C93.7604 176.704 94.1504 176.632 94.4984 176.488C94.8464 176.332 95.1404 176.128 95.3804 175.876C95.6204 175.612 95.8064 175.3 95.9384 174.94C96.0704 174.568 96.1364 174.166 96.1364 173.734C96.1364 173.302 96.0704 172.906 95.9384 172.546C95.8064 172.174 95.6204 171.862 95.3804 171.61C95.1404 171.346 94.8464 171.142 94.4984 170.998C94.1504 170.842 93.7604 170.764 93.3284 170.764C92.8964 170.764 92.5064 170.842 92.1584 170.998C91.8104 171.142 91.5164 171.346 91.2764 171.61C91.0364 171.862 90.8504 172.174 90.7184 172.546C90.5864 172.906 90.5204 173.302 90.5204 173.734ZM88.7924 173.734C88.7924 173.11 88.9064 172.528 89.1344 171.988C89.3744 171.448 89.6984 170.974 90.1064 170.566C90.5144 170.158 90.9944 169.84 91.5464 169.612C92.0984 169.372 92.6924 169.252 93.3284 169.252C93.9644 169.252 94.5584 169.372 95.1104 169.612C95.6624 169.84 96.1424 170.158 96.5504 170.566C96.9584 170.974 97.2764 171.448 97.5044 171.988C97.7444 172.528 97.8644 173.11 97.8644 173.734C97.8644 174.358 97.7444 174.946 97.5044 175.498C97.2764 176.038 96.9584 176.512 96.5504 176.92C96.1424 177.316 95.6624 177.634 95.1104 177.874C94.5584 178.102 93.9644 178.216 93.3284 178.216C92.6924 178.216 92.0984 178.102 91.5464 177.874C90.9944 177.634 90.5144 177.316 90.1064 176.92C89.6984 176.512 89.3744 176.038 89.1344 175.498C88.9064 174.946 88.7924 174.358 88.7924 173.734ZM104.43 171.61C104.238 171.37 103.998 171.172 103.71 171.016C103.434 170.848 103.092 170.764 102.684 170.764C102.3 170.764 101.964 170.848 101.676 171.016C101.4 171.172 101.262 171.406 101.262 171.718C101.262 171.97 101.34 172.174 101.496 172.33C101.664 172.486 101.856 172.612 102.072 172.708C102.3 172.804 102.54 172.876 102.792 172.924C103.044 172.972 103.26 173.014 103.44 173.05C103.788 173.134 104.112 173.236 104.412 173.356C104.724 173.476 104.988 173.632 105.204 173.824C105.432 174.016 105.606 174.25 105.726 174.526C105.858 174.802 105.924 175.138 105.924 175.534C105.924 176.014 105.822 176.428 105.618 176.776C105.414 177.112 105.15 177.388 104.826 177.604C104.502 177.82 104.13 177.976 103.71 178.072C103.302 178.168 102.888 178.216 102.468 178.216C101.76 178.216 101.136 178.108 100.596 177.892C100.068 177.676 99.5939 177.28 99.1739 176.704L100.398 175.696C100.662 175.96 100.956 176.194 101.28 176.398C101.604 176.602 102 176.704 102.468 176.704C102.672 176.704 102.876 176.686 103.08 176.65C103.296 176.602 103.482 176.536 103.638 176.452C103.806 176.356 103.938 176.242 104.034 176.11C104.142 175.966 104.196 175.804 104.196 175.624C104.196 175.384 104.118 175.186 103.962 175.03C103.818 174.874 103.638 174.754 103.422 174.67C103.218 174.574 102.996 174.502 102.756 174.454C102.528 174.394 102.324 174.346 102.144 174.31C101.796 174.226 101.466 174.13 101.154 174.022C100.842 173.914 100.566 173.77 100.326 173.59C100.086 173.41 99.8939 173.182 99.7499 172.906C99.6059 172.63 99.5339 172.288 99.5339 171.88C99.5339 171.436 99.6239 171.052 99.8039 170.728C99.9959 170.392 100.242 170.116 100.542 169.9C100.854 169.684 101.202 169.522 101.586 169.414C101.982 169.306 102.378 169.252 102.774 169.252C103.35 169.252 103.902 169.36 104.43 169.576C104.958 169.792 105.378 170.152 105.69 170.656L104.43 171.61ZM114.216 173.734C114.216 174.166 114.282 174.568 114.414 174.94C114.546 175.3 114.732 175.612 114.972 175.876C115.212 176.128 115.506 176.332 115.854 176.488C116.202 176.632 116.592 176.704 117.024 176.704C117.456 176.704 117.846 176.632 118.194 176.488C118.542 176.332 118.836 176.128 119.076 175.876C119.316 175.612 119.502 175.3 119.634 174.94C119.766 174.568 119.832 174.166 119.832 173.734C119.832 173.302 119.766 172.906 119.634 172.546C119.502 172.174 119.316 171.862 119.076 171.61C118.836 171.346 118.542 171.142 118.194 170.998C117.846 170.842 117.456 170.764 117.024 170.764C116.592 170.764 116.202 170.842 115.854 170.998C115.506 171.142 115.212 171.346 114.972 171.61C114.732 171.862 114.546 172.174 114.414 172.546C114.282 172.906 114.216 173.302 114.216 173.734ZM112.488 173.734C112.488 173.11 112.602 172.528 112.83 171.988C113.07 171.448 113.394 170.974 113.802 170.566C114.21 170.158 114.69 169.84 115.242 169.612C115.794 169.372 116.388 169.252 117.024 169.252C117.66 169.252 118.254 169.372 118.806 169.612C119.358 169.84 119.838 170.158 120.246 170.566C120.654 170.974 120.972 171.448 121.2 171.988C121.44 172.528 121.56 173.11 121.56 173.734C121.56 174.358 121.44 174.946 121.2 175.498C120.972 176.038 120.654 176.512 120.246 176.92C119.838 177.316 119.358 177.634 118.806 177.874C118.254 178.102 117.66 178.216 117.024 178.216C116.388 178.216 115.794 178.102 115.242 177.874C114.69 177.634 114.21 177.316 113.802 176.92C113.394 176.512 113.07 176.038 112.83 175.498C112.602 174.946 112.488 174.358 112.488 173.734ZM124.219 170.872H122.383V169.468H124.219V167.56C124.219 166.42 124.435 165.574 124.867 165.022C125.311 164.458 126.067 164.176 127.135 164.176C127.315 164.176 127.501 164.182 127.693 164.194C127.897 164.206 128.113 164.242 128.341 164.302L128.161 165.742C128.005 165.682 127.855 165.64 127.711 165.616C127.567 165.592 127.411 165.58 127.243 165.58C126.943 165.58 126.703 165.628 126.523 165.724C126.343 165.808 126.199 165.934 126.091 166.102C125.995 166.27 125.929 166.474 125.893 166.714C125.869 166.942 125.857 167.206 125.857 167.506V169.468H127.783V170.872H125.839V178H124.219V170.872ZM135.907 173.734C135.907 174.166 135.973 174.568 136.105 174.94C136.237 175.3 136.423 175.612 136.663 175.876C136.903 176.128 137.197 176.332 137.545 176.488C137.893 176.632 138.283 176.704 138.715 176.704C139.147 176.704 139.537 176.632 139.885 176.488C140.233 176.332 140.527 176.128 140.767 175.876C141.007 175.612 141.193 175.3 141.325 174.94C141.457 174.568 141.523 174.166 141.523 173.734C141.523 173.302 141.457 172.906 141.325 172.546C141.193 172.174 141.007 171.862 140.767 171.61C140.527 171.346 140.233 171.142 139.885 170.998C139.537 170.842 139.147 170.764 138.715 170.764C138.283 170.764 137.893 170.842 137.545 170.998C137.197 171.142 136.903 171.346 136.663 171.61C136.423 171.862 136.237 172.174 136.105 172.546C135.973 172.906 135.907 173.302 135.907 173.734ZM134.179 173.734C134.179 173.11 134.293 172.528 134.521 171.988C134.761 171.448 135.085 170.974 135.493 170.566C135.901 170.158 136.381 169.84 136.933 169.612C137.485 169.372 138.079 169.252 138.715 169.252C139.351 169.252 139.945 169.372 140.497 169.612C141.049 169.84 141.529 170.158 141.937 170.566C142.345 170.974 142.663 171.448 142.891 171.988C143.131 172.528 143.251 173.11 143.251 173.734C143.251 174.358 143.131 174.946 142.891 175.498C142.663 176.038 142.345 176.512 141.937 176.92C141.529 177.316 141.049 177.634 140.497 177.874C139.945 178.102 139.351 178.216 138.715 178.216C138.079 178.216 137.485 178.102 136.933 177.874C136.381 177.634 135.901 177.316 135.493 176.92C135.085 176.512 134.761 176.038 134.521 175.498C134.293 174.946 134.179 174.358 134.179 173.734ZM152.841 178H151.221V176.686H151.185C150.981 177.142 150.627 177.514 150.123 177.802C149.619 178.078 149.037 178.216 148.377 178.216C147.957 178.216 147.561 178.15 147.189 178.018C146.817 177.898 146.487 177.706 146.199 177.442C145.923 177.178 145.701 176.842 145.533 176.434C145.365 176.014 145.281 175.522 145.281 174.958V169.468H146.901V174.508C146.901 174.904 146.955 175.246 147.063 175.534C147.171 175.81 147.315 176.038 147.495 176.218C147.675 176.386 147.879 176.512 148.107 176.596C148.347 176.668 148.593 176.704 148.845 176.704C149.181 176.704 149.493 176.65 149.781 176.542C150.069 176.434 150.321 176.266 150.537 176.038C150.753 175.798 150.921 175.498 151.041 175.138C151.161 174.778 151.221 174.352 151.221 173.86V169.468H152.841V178ZM155.283 169.468H156.903V170.782H156.939C157.047 170.554 157.191 170.35 157.371 170.17C157.551 169.978 157.749 169.816 157.965 169.684C158.193 169.552 158.439 169.45 158.703 169.378C158.967 169.294 159.231 169.252 159.495 169.252C159.759 169.252 159.999 169.288 160.215 169.36L160.143 171.106C160.011 171.07 159.879 171.04 159.747 171.016C159.615 170.992 159.483 170.98 159.351 170.98C158.559 170.98 157.953 171.202 157.533 171.646C157.113 172.09 156.903 172.78 156.903 173.716V178H155.283V169.468ZM166.954 169.468H168.574V170.692H168.61C168.922 170.236 169.348 169.882 169.888 169.63C170.44 169.378 171.004 169.252 171.58 169.252C172.24 169.252 172.834 169.366 173.362 169.594C173.902 169.822 174.358 170.14 174.73 170.548C175.114 170.956 175.408 171.436 175.612 171.988C175.816 172.528 175.918 173.11 175.918 173.734C175.918 174.37 175.816 174.964 175.612 175.516C175.408 176.056 175.114 176.53 174.73 176.938C174.358 177.334 173.902 177.646 173.362 177.874C172.834 178.102 172.24 178.216 171.58 178.216C170.968 178.216 170.392 178.09 169.852 177.838C169.312 177.574 168.898 177.22 168.61 176.776H168.574V183.076H166.954V169.468ZM171.382 170.764C170.95 170.764 170.56 170.842 170.212 170.998C169.864 171.142 169.57 171.346 169.33 171.61C169.09 171.862 168.904 172.174 168.772 172.546C168.64 172.906 168.574 173.302 168.574 173.734C168.574 174.166 168.64 174.568 168.772 174.94C168.904 175.3 169.09 175.612 169.33 175.876C169.57 176.128 169.864 176.332 170.212 176.488C170.56 176.632 170.95 176.704 171.382 176.704C171.814 176.704 172.204 176.632 172.552 176.488C172.9 176.332 173.194 176.128 173.434 175.876C173.674 175.612 173.86 175.3 173.992 174.94C174.124 174.568 174.19 174.166 174.19 173.734C174.19 173.302 174.124 172.906 173.992 172.546C173.86 172.174 173.674 171.862 173.434 171.61C173.194 171.346 172.9 171.142 172.552 170.998C172.204 170.842 171.814 170.764 171.382 170.764ZM179.182 174.328C179.182 174.7 179.26 175.042 179.416 175.354C179.584 175.654 179.8 175.912 180.064 176.128C180.328 176.344 180.634 176.512 180.982 176.632C181.33 176.752 181.69 176.812 182.062 176.812C182.566 176.812 183.004 176.698 183.376 176.47C183.748 176.23 184.09 175.918 184.402 175.534L185.626 176.47C184.726 177.634 183.466 178.216 181.846 178.216C181.174 178.216 180.562 178.102 180.01 177.874C179.47 177.646 179.008 177.334 178.624 176.938C178.252 176.53 177.964 176.056 177.76 175.516C177.556 174.964 177.454 174.37 177.454 173.734C177.454 173.098 177.562 172.51 177.778 171.97C178.006 171.418 178.312 170.944 178.696 170.548C179.092 170.14 179.56 169.822 180.1 169.594C180.64 169.366 181.228 169.252 181.864 169.252C182.62 169.252 183.256 169.384 183.772 169.648C184.3 169.912 184.732 170.26 185.068 170.692C185.404 171.112 185.644 171.592 185.788 172.132C185.944 172.66 186.022 173.2 186.022 173.752V174.328H179.182ZM184.294 173.032C184.282 172.672 184.222 172.342 184.114 172.042C184.018 171.742 183.868 171.484 183.664 171.268C183.46 171.04 183.202 170.866 182.89 170.746C182.59 170.614 182.236 170.548 181.828 170.548C181.432 170.548 181.066 170.626 180.73 170.782C180.406 170.926 180.13 171.118 179.902 171.358C179.674 171.598 179.494 171.868 179.362 172.168C179.242 172.456 179.182 172.744 179.182 173.032H184.294ZM189.184 174.328C189.184 174.7 189.262 175.042 189.418 175.354C189.586 175.654 189.802 175.912 190.066 176.128C190.33 176.344 190.636 176.512 190.984 176.632C191.332 176.752 191.692 176.812 192.064 176.812C192.568 176.812 193.006 176.698 193.378 176.47C193.75 176.23 194.092 175.918 194.404 175.534L195.628 176.47C194.728 177.634 193.468 178.216 191.848 178.216C191.176 178.216 190.564 178.102 190.012 177.874C189.472 177.646 189.01 177.334 188.626 176.938C188.254 176.53 187.966 176.056 187.762 175.516C187.558 174.964 187.456 174.37 187.456 173.734C187.456 173.098 187.564 172.51 187.78 171.97C188.008 171.418 188.314 170.944 188.698 170.548C189.094 170.14 189.562 169.822 190.102 169.594C190.642 169.366 191.23 169.252 191.866 169.252C192.622 169.252 193.258 169.384 193.774 169.648C194.302 169.912 194.734 170.26 195.07 170.692C195.406 171.112 195.646 171.592 195.79 172.132C195.946 172.66 196.024 173.2 196.024 173.752V174.328H189.184ZM194.296 173.032C194.284 172.672 194.224 172.342 194.116 172.042C194.02 171.742 193.87 171.484 193.666 171.268C193.462 171.04 193.204 170.866 192.892 170.746C192.592 170.614 192.238 170.548 191.83 170.548C191.434 170.548 191.068 170.626 190.732 170.782C190.408 170.926 190.132 171.118 189.904 171.358C189.676 171.598 189.496 171.868 189.364 172.168C189.244 172.456 189.184 172.744 189.184 173.032H194.296ZM197.962 169.468H199.582V170.782H199.618C199.726 170.554 199.87 170.35 200.05 170.17C200.23 169.978 200.428 169.816 200.644 169.684C200.872 169.552 201.118 169.45 201.382 169.378C201.646 169.294 201.91 169.252 202.174 169.252C202.438 169.252 202.678 169.288 202.894 169.36L202.822 171.106C202.69 171.07 202.558 171.04 202.426 171.016C202.294 170.992 202.162 170.98 202.03 170.98C201.238 170.98 200.632 171.202 200.212 171.646C199.792 172.09 199.582 172.78 199.582 173.716V178H197.962V169.468ZM209.16 171.61C208.968 171.37 208.728 171.172 208.44 171.016C208.164 170.848 207.822 170.764 207.414 170.764C207.03 170.764 206.694 170.848 206.406 171.016C206.13 171.172 205.992 171.406 205.992 171.718C205.992 171.97 206.07 172.174 206.226 172.33C206.394 172.486 206.586 172.612 206.802 172.708C207.03 172.804 207.27 172.876 207.522 172.924C207.774 172.972 207.99 173.014 208.17 173.05C208.518 173.134 208.842 173.236 209.142 173.356C209.454 173.476 209.718 173.632 209.934 173.824C210.162 174.016 210.336 174.25 210.456 174.526C210.588 174.802 210.654 175.138 210.654 175.534C210.654 176.014 210.552 176.428 210.348 176.776C210.144 177.112 209.88 177.388 209.556 177.604C209.232 177.82 208.86 177.976 208.44 178.072C208.032 178.168 207.618 178.216 207.198 178.216C206.49 178.216 205.866 178.108 205.326 177.892C204.798 177.676 204.324 177.28 203.904 176.704L205.128 175.696C205.392 175.96 205.686 176.194 206.01 176.398C206.334 176.602 206.73 176.704 207.198 176.704C207.402 176.704 207.606 176.686 207.81 176.65C208.026 176.602 208.212 176.536 208.368 176.452C208.536 176.356 208.668 176.242 208.764 176.11C208.872 175.966 208.926 175.804 208.926 175.624C208.926 175.384 208.848 175.186 208.692 175.03C208.548 174.874 208.368 174.754 208.152 174.67C207.948 174.574 207.726 174.502 207.486 174.454C207.258 174.394 207.054 174.346 206.874 174.31C206.526 174.226 206.196 174.13 205.884 174.022C205.572 173.914 205.296 173.77 205.056 173.59C204.816 173.41 204.624 173.182 204.48 172.906C204.336 172.63 204.264 172.288 204.264 171.88C204.264 171.436 204.354 171.052 204.534 170.728C204.726 170.392 204.972 170.116 205.272 169.9C205.584 169.684 205.932 169.522 206.316 169.414C206.712 169.306 207.108 169.252 207.504 169.252C208.08 169.252 208.632 169.36 209.16 169.576C209.688 169.792 210.108 170.152 210.42 170.656L209.16 171.61Z" fill="black"/>
</svg>
