<svg width="141" height="141" viewBox="0 0 141 141" fill="none" xmlns="http://www.w3.org/2000/svg">
<g filter="url(#filter0_d)">
<rect x="13" y="13" width="115" height="83" fill="white"/>
<path d="M137 6.54098C137 2.9071 134.093 0 130.459 0H10.541C6.9071 0 4 2.9071 4 6.54098C4 9.0847 5.81694 11.6284 7.99727 12.3552V98.4781C7.99727 99.9317 9.08743 101.022 10.541 101.022H68.3197V113.014L29.4372 128.276C28.347 128.639 27.6202 130.093 27.9836 131.546C28.347 132.637 29.0738 133 30.1639 133C30.5273 133 30.8907 133 30.8907 133L70.1366 117.374L109.383 133C109.746 133 110.109 133 110.109 133C111.199 133 111.926 132.273 112.29 131.546C112.653 130.456 112.29 129.003 110.836 128.276L72.3169 113.014V101.022H130.096C131.549 101.022 132.639 99.9317 132.639 98.4781V12.3552C135.183 11.265 137 9.0847 137 6.54098ZM10.541 4.72404H130.459C131.186 4.72404 131.913 5.45082 131.913 6.1776C131.913 6.90437 131.186 7.63115 130.459 7.63115H10.541C9.45082 7.99454 8.72404 7.26776 8.72404 6.54098C8.72404 5.81421 9.45082 4.72404 10.541 4.72404ZM128.279 95.9344H12.7213V12.7186H127.915V95.9344H128.279Z" fill="#336668"/>
<path d="M26.5301 85.0328C27.2568 85.0328 27.9836 84.6694 28.347 84.306L56.3279 49.4208L79.9481 68.6803L112.653 28.3443C113.016 26.8907 113.016 25.4372 111.926 24.7104C110.836 23.9836 109.383 23.9836 108.656 25.0738L78.8579 61.776L55.2377 42.5164L24.7131 81.0355C23.9863 82.1257 23.9863 83.5792 25.0765 84.306C25.4399 84.6694 25.8033 85.0328 26.5301 85.0328Z" fill="#336668"/>
<rect x="8" y="4" width="124" height="4" rx="2" fill="white"/>
</g>
<defs>
<filter id="filter0_d" x="0" y="0" width="141" height="141" filterUnits="userSpaceOnUse" color-interpolation-filters="sRGB">
<feFlood flood-opacity="0" result="BackgroundImageFix"/>
<feColorMatrix in="SourceAlpha" type="matrix" values="0 0 0 0 0 0 0 0 0 0 0 0 0 0 0 0 0 0 127 0"/>
<feOffset dy="4"/>
<feGaussianBlur stdDeviation="2"/>
<feColorMatrix type="matrix" values="0 0 0 0 0 0 0 0 0 0 0 0 0 0 0 0 0 0 0.25 0"/>
<feBlend mode="normal" in2="BackgroundImageFix" result="effect1_dropShadow"/>
<feBlend mode="normal" in="SourceGraphic" in2="effect1_dropShadow" result="shape"/>
</filter>
</defs>
</svg>
